<svg width="40" height="40" viewBox="0 0 40 40" fill="none" xmlns="http://www.w3.org/2000/svg">
<path d="M33.2305 14.8161C33.1761 18.684 31.9161 22.3888 29.5477 25.7041C28.5038 27.1647 27.3659 28.5572 26.2765 29.9837C25.2136 31.3762 24.5314 32.9746 23.8287 34.5641C23.198 35.9892 22.4776 37.3713 21.2764 38.4082C19.7371 39.737 18.9918 39.6629 17.5348 38.4689C16.2793 37.4379 15.5207 36.0336 14.8694 34.573C14.1269 32.9065 13.3933 31.237 12.2833 29.7734C11.2424 28.4017 10.153 27.064 9.16211 25.6582C6.65104 22.097 5.33964 18.1255 5.56311 13.7436C5.83215 8.50408 8.25207 4.49553 12.7391 1.81131C15.2751 0.294406 18.0523 -0.244807 20.9736 0.100349C24.1403 0.47365 26.8469 1.85427 29.0743 4.14149C31.8353 6.97828 33.2584 10.615 33.2305 14.8161ZM32.0499 16.5641C31.9426 15.659 31.9014 14.7406 31.7132 13.8518C31.4457 12.5882 31.0384 11.3557 30.7473 10.0965C30.1475 7.50565 29.0449 5.2051 26.9925 3.46895C24.008 0.944722 20.5634 0.128495 16.785 0.972867C12.9714 1.82613 10.1868 4.06594 8.74311 7.75303C8.06389 9.48622 7.6493 11.3305 7.19648 13.1452C6.5643 15.6783 6.68339 18.207 7.42142 20.7105C8.25942 23.5532 9.81194 25.9619 11.976 27.9276C13.5065 29.3171 14.6165 30.9155 15.2251 32.8872C15.4471 33.6042 15.7 34.3137 15.9735 35.0129C16.4822 36.3136 17.1731 37.509 18.2581 38.4067C19.3211 39.2852 19.4505 39.2615 20.4575 38.4334C21.3764 37.6794 22.0336 36.7017 22.4923 35.6159C22.9862 34.45 23.395 33.2472 23.8345 32.0576C24.3476 30.6711 25.118 29.4816 26.2251 28.4757C27.1116 27.6699 27.9378 26.7766 28.6759 25.83C30.787 23.1206 31.9397 20.0394 32.0499 16.5612V16.5641Z" fill="white"/>
<path d="M21.0352 27.8782C21.1438 26.9454 21.1861 26.0911 21.3491 25.2594C21.9544 22.1651 23.1574 19.329 25.1603 16.8672C26.2728 15.4997 27.595 14.3963 29.3112 13.8529C30.3526 13.5223 30.6123 13.6582 30.9458 14.6861C31.379 16.0234 31.2568 17.3698 30.976 18.7116C30.5292 20.8429 29.7368 22.8232 28.3406 24.5258C26.8991 26.2813 24.9883 27.205 22.7996 27.6216C22.2578 27.7242 21.7083 27.7831 21.0352 27.8797V27.8782ZM30.3723 15.2008C28.9127 15.4106 27.6388 16.0264 26.5067 16.9411C24.3483 18.6845 22.9581 20.9471 22.0932 23.5553C22.0238 23.7666 21.98 23.987 21.9257 24.2028C23.4758 20.0052 26.5701 17.2762 30.3723 15.1993V15.2008Z" fill="white"/>
<path d="M18.356 27.836C17.2466 27.7605 16.1931 27.5658 15.1637 27.2277C12.4136 26.3221 10.6823 24.3598 9.55175 21.7909C8.86347 20.2286 8.41669 18.5955 8.31707 16.8838C8.26122 15.9208 8.37291 14.979 8.79705 14.0914C8.93592 13.8001 9.13214 13.6869 9.45364 13.7216C10.2763 13.8122 10.9962 14.1579 11.6845 14.582C13.5773 15.7518 14.9161 17.4272 15.9742 19.3456C17.3131 21.7727 18.1613 24.3568 18.3545 27.1371C18.3696 27.3575 18.356 27.5809 18.356 27.8345V27.836ZM17.538 24.1908C17.5214 24.1093 17.5093 24.0248 17.4851 23.9448C17.07 22.538 16.4829 21.2082 15.6769 19.9826C14.3139 17.9147 12.5751 16.2952 10.1932 15.465C9.82646 15.3367 9.44307 15.2627 9.06572 15.1631C12.8483 17.2944 15.932 20.0354 17.538 24.1908Z" fill="white"/>
<path d="M19.7366 27.9915C20.9592 29.2941 20.9592 31.2623 19.7562 32.4321C18.5487 31.4434 18.5306 29.3922 19.7366 27.9915Z" fill="white"/>
<path d="M21.6927 34.853C20.3811 35.3239 19.1223 35.333 17.8423 34.8666C18.7524 34.2191 20.5335 34.1723 21.6927 34.853Z" fill="white"/>
</svg>
