<svg width="210" height="210" viewBox="0 0 210 210" fill="none" xmlns="http://www.w3.org/2000/svg">
<path d="M210 105C210 162.99 162.99 210 105 210C47.0101 210 0 162.99 0 105C0 47.0101 47.0101 0 105 0C162.99 0 210 47.0101 210 105Z" fill="#111C1F"/>
<mask id="mask0_5028_1646" style="mask-type:luminance" maskUnits="userSpaceOnUse" x="44" y="21" width="123" height="169">
<path d="M167 21H44V189.556H167V21Z" fill="white"/>
</mask>
<g mask="url(#mask0_5028_1646)">
<mask id="mask1_5028_1646" style="mask-type:luminance" maskUnits="userSpaceOnUse" x="44" y="21" width="123" height="168">
<path d="M166.387 21H44V188.509H166.387V21Z" fill="white"/>
</mask>
<g mask="url(#mask1_5028_1646)">
<path d="M102.175 21L44 107.552L102.175 138.385V83.8419V21Z" fill="url(#paint0_linear_5028_1646)"/>
<path d="M108.199 21L166.374 107.552L108.199 138.385V83.8419V21Z" fill="url(#paint1_linear_5028_1646)"/>
<path d="M108.205 138.393L166.378 107.559L108.205 83.8489V138.393Z" fill="#0E322D"/>
<path d="M44 107.559L102.175 138.393V83.8489L44 107.559Z" fill="#0B5B3E"/>
<path d="M102.574 188.507V145.131L44.7832 113.817L102.574 188.507Z" fill="url(#paint2_linear_5028_1646)"/>
<path d="M108.225 188.507V145.131L166.015 113.817L108.225 188.507Z" fill="url(#paint3_linear_5028_1646)"/>
</g>
</g>
<defs>
<linearGradient id="paint0_linear_5028_1646" x1="94.7783" y1="42.8676" x2="31.8049" y2="69.1264" gradientUnits="userSpaceOnUse">
<stop stop-color="#00FF84"/>
<stop offset="1" stop-color="#2EBAC6"/>
</linearGradient>
<linearGradient id="paint1_linear_5028_1646" x1="115.596" y1="42.8676" x2="178.569" y2="69.1264" gradientUnits="userSpaceOnUse">
<stop stop-color="#00FF84"/>
<stop offset="1" stop-color="#2EBAC6"/>
</linearGradient>
<linearGradient id="paint2_linear_5028_1646" x1="95.2262" y1="127.731" x2="43.6503" y2="161.308" gradientUnits="userSpaceOnUse">
<stop stop-color="#00FF84"/>
<stop offset="1" stop-color="#2EBAC6"/>
</linearGradient>
<linearGradient id="paint3_linear_5028_1646" x1="115.572" y1="127.731" x2="167.148" y2="161.308" gradientUnits="userSpaceOnUse">
<stop stop-color="#00FF84"/>
<stop offset="1" stop-color="#2EBAC6"/>
</linearGradient>
</defs>
</svg>
