<?xml version="1.0" encoding="utf-8"?>
<!-- Generator: Adobe Illustrator 24.3.0, SVG Export Plug-In . SVG Version: 6.00 Build 0)  -->
<svg version="1.1" id="Layer_1" xmlns="http://www.w3.org/2000/svg" xmlns:xlink="http://www.w3.org/1999/xlink" x="0px" y="0px"
	 viewBox="0 0 1000 1000" style="enable-background:new 0 0 1000 1000;" xml:space="preserve">
<style type="text/css">
	.st0{fill:#FCFC05;}
	.st1{fill:#76CBFF;}
	.st2{fill:#5098BC;}
	.st3{fill:#BECCD3;}
	.st4{fill:#FFFFFF;}
	.st5{fill:#036AFF;}
	.st6{fill:#0630EB;}
	.st7{fill:#0196FF;}
	.st8{fill:#03E1FF;}
	.st9{fill:none;}
	.st10{fill:#636BCE;}
	.st11{fill:#00FFFF;}
	.st12{fill:#B6E7FF;}
	.st13{fill:#AD3E23;}
	.st14{fill:#7F210E;}
	.st15{fill:#464189;}
	.st16{fill:#3B2767;}
	.st17{fill:#2B1C54;}
	.st18{fill:#15063F;}
	.st19{fill:#4F4575;}
	.st20{fill:#605B7F;}
	.st21{fill:#E6E7E8;}
</style>
<g>
	<circle class="st0" cx="500" cy="500" r="500"/>
	<g>
		<g>
			<path d="M853.68,571.1c-1.46-15.15-10.35-22.8-15.94-26.16c-1.01-6.5-2.78-12.84-5.28-18.86c-3.57-8.57-7.32-14.81-9.41-18.02
				c1.9-12.04-3.27-16.86-18.18-30.78c-3.7-3.45-7.89-7.36-12.98-12.28c-21.98-21.24-38.53-25.16-45.23-25.82
				c-13.83-18.62-34.77-23.92-41.51-25.18c-1.22-1.01-2.54-1.91-3.94-2.68c-2.18-1.2-5.17-2.84-88.15-5.02
				c-37.76-0.99-75.29-1.62-80.21-1.7l-85.42-20.9l-21.31-8.59c6.15-5.6,10.54-9.61,10.54-9.61l1.36-1.24l10.4-48.96l-44.15-47.18
				l-27.65-19.09c-4.67-3.23-10.15-4.93-15.83-4.93c-1.37,0-2.75,0.1-4.1,0.3l-14.76,2.2c-0.33,0.05-0.67,0.1-1.01,0.16L311,202.18
				v-0.01l-7.02-10.44v-0.01l-3.02-4.49c-2.67-3.99-7.13-6.5-11.92-6.7c-1.66-0.07-3.34-0.11-4.99-0.11
				c-57.23,0-78.18,43.94-83.24,57.41c-1.59,4.26-1.19,8.96,1.1,12.91c13.03,22.39,22.56,38.66,28.27,48.35
				c2.81,4.77,5.61,9.52,8.31,14.08c-7.77,16.39-10.08,34.12-10.64,46.18c-0.37,7.81,1.57,15.48,5.61,22.17l8.15,13.52
				c-0.42,1.17-0.83,2.43-1.24,3.78l-3.63-2.46l-0.81,1.14c-9.31,13.08-17.43,26.96-24.13,41.27
				c-14.1,13.17-17.38,19.65-18.14,26.67c-4.52,4.87-17.66,20.87-21.1,45.23c-5.84,3.77-14.94,11.76-14.94,24.87
				c0,5.67,4.33,9.77,10.72,10.36c-1.36,2.9-2.24,6.08-2.58,9.31c-0.9,8.74,2.12,17.46,8.51,24.56c1.12,1.23,2.53,2.16,4.11,2.7
				c1.01,0.34,2.07,0.52,3.14,0.52c2.29,0,4.5-0.8,6.27-2.27c2.48,29.99,8.8,54.89,13.85,70.92
				c-20.93,19.35-40.06,31.13-47.37,35.33c-2.01,1.15-3.87,2.53-5.53,4.09l-2.46,2.31l0.96,1.04c1.46,1.59,2.88,3.38,4.23,5.33
				c18.76,27.04,41.87,31.08,53.98,31.08c1.06,0,2.13-0.03,3.18-0.09c-0.02,0.21-0.03,0.35-0.03,0.36
				c-0.03,0.38-0.06,0.77-0.09,1.16c-0.02,0.28-0.08,1.23-0.08,1.23c-0.06,0.97-0.11,1.93-0.16,2.9c0,0-0.05,1.1-0.06,1.44
				c-0.01,0.32-0.05,1.66-0.05,1.66s-0.02,0.85-0.03,1.16c-0.01,0.32-0.01,0.64-0.02,0.98c0,0-0.02,1.41-0.02,1.83
				c0,0.38,0,0.75,0,1.12c0,0,0,1.17,0.01,1.67l0.02,1.24c0.01,0.51,0.02,1.02,0.03,1.52c0.01,0.4,0.02,0.79,0.03,1.18
				c0.02,0.52,0.04,1.04,0.06,1.56c0.01,0.37,0.03,0.75,0.05,1.11c0.03,0.54,0.05,1.07,0.08,1.6l0.06,1.03
				c0.03,0.56,0.07,1.11,0.11,1.66l0.07,0.95c0.05,0.61,0.1,1.22,0.15,1.81l0.07,0.75c0.08,0.8,0.16,1.59,0.24,2.37
				c0.12,3.22,0.61,6.61,1.46,10.09c2,10.97,5.11,19.8,8.77,24.95c0.58,2.87,1.98,9.59,3.86,17.33
				c-5.91,3.48-15.02,11.74-16.85,30.1c-0.23,2.33,0.5,4.68,2.01,6.46c1.51,1.77,3.72,2.87,6.06,3.01c1.27,0.07,2.54,0.13,3.77,0.16
				c0.85,0.02,1.77,0.03,2.72,0.03c4.16,0,7.96-0.24,11.34-0.72c-0.21,0.73-0.41,1.46-0.6,2.19c-0.1,0.41-0.21,0.82-0.3,1.23
				c-0.66,2.84-0.12,5.87,1.47,8.3c1.6,2.44,4.06,4.07,6.92,4.6c4.57,0.84,10.34,1.27,17.14,1.27c9.44,0,17.45-1.92,23.21-5.55
				c2.52,0.38,5.08,0.72,7.63,1.03c0.05,0.18,0.1,0.36,0.16,0.54c1.81,5.69,7.03,9.51,12.99,9.51c0.14,0,0.29,0,0.44-0.01
				c7.89-0.26,18.82-1.89,26.44-8.07c6.27-0.15,12.46-0.53,18.4-1.13c1.25-0.13,2.49-0.27,3.74-0.41c0.4-0.05,1.52-0.19,1.52-0.19
				c0.75-0.09,1.5-0.19,2.24-0.29c0.59-0.08,1.18-0.16,1.77-0.25c0.68-0.1,1.36-0.2,2.03-0.3l0.17-0.03
				c0.55-0.08,1.09-0.17,1.64-0.26c0.65-0.11,1.29-0.22,1.94-0.33l0.71-0.12c0.38-0.07,0.76-0.13,1.14-0.2
				c1.19-0.22,2.38-0.45,3.58-0.69c0.31-0.06,1.41-0.3,1.41-0.3c0.8-0.17,1.6-0.34,2.4-0.52c0.45-0.1,0.9-0.21,1.34-0.31l0.62-0.14
				c0.3-0.07,0.61-0.14,0.89-0.21c0.24-0.06,2.17-0.54,2.17-0.54c1.25-0.32,2.5-0.65,3.75-1l2.74-0.77l1.04-2.65
				c0.14-0.35,13.7-35.21,20.55-76.75c11.53,0.99,23.79,1.5,36.45,1.5c26.8,0,52.84-3.84,77.41-11.41h0.01l0.85-0.26l0.62-0.2
				c1.14-0.36,2.28-0.72,3.41-1.1c0.45-0.15,0.89-0.3,1.34-0.45l1.23-0.42c0.51-0.17,1.02-0.35,1.52-0.53
				c0.58-0.2,1.16-0.41,1.74-0.62l0.44-0.16c0.63-0.23,1.26-0.46,1.89-0.69c0.75-0.28,1.5-0.56,2.25-0.85
				c0.59-0.23,1.18-0.45,1.75-0.68l0.53-0.21c0.3-0.11,0.6-0.23,0.9-0.35c0.16-0.06,0.78-0.32,0.78-0.32
				c1.3-0.53,2.61-1.06,3.91-1.62l0.6-0.25c1.38-0.59,2.84-1.24,4.49-1.98l1.1-0.5c1.29-0.59,2.57-1.19,3.85-1.81l0.82-0.39
				c1.69-0.82,3.22-1.59,4.69-2.35l0.13-0.07c1.26-0.65,2.52-1.32,3.79-2c0,0,1.27-0.7,1.61-0.88c0.83,7.78,1.26,16.59,1.26,26.22
				l0,2.72c-0.03,14.04-0.06,27.3,8.14,37.55c8.75,10.93,25.61,16.32,53.06,16.98c1.77,0.04,3.62,0.07,5.5,0.07l0.59,0
				c2.55,0,5.26-0.04,8.05-0.11c5.18,8.43,15.27,13.75,27.17,14.27c0.6,0.03,1.2,0.05,1.81,0.05c0.16,0.01,0.36,0.02,0.59,0.02
				c1.42,0,13.67-0.51,15.19-17.72l0.16-0.02c1.08,1.58,2.48,2.92,4.09,3.92c5.15,3.18,14.42,7.05,29.36,7.42
				c0.82,0.03,1.66,0.04,2.51,0.04c3.57,0,6.42-0.18,8.72-0.56c10.02-1.62,11.52-7.64,11.52-11.09c0-1.61-0.47-4.02-1.28-6.69
				l0.27,0.05c0.45,0.08,0.91,0.16,1.44,0.23l0.27,0.04c1.02,0.15,2.07,0.28,3.12,0.38l0.26,0.03c0.41,0.04,0.82,0.08,1.23,0.11
				l0.53,0.04c0.31,0.02,0.63,0.05,0.93,0.06l0.76,0.05l0.71,0.04c0.32,0.02,1.45,0.06,1.46,0.06c0.38,0.01,1.4,0.04,1.41,0.04
				c0.43,0.01,0.84,0.01,1.23,0.02l1.46,0c0.92-0.01,1.75-0.02,2.54-0.04c2.37-0.07,4.64-1.12,6.22-2.88
				c1.59-1.76,2.4-4.11,2.23-6.46c-1.42-20.45-15.43-30.08-22.17-33.56l-0.52-6.06l-0.25-2.97c0.48-0.71,0.88-1.52,1.23-2.49
				c0.65-1.8,1.13-4.19,1.46-7.29c0.37-3.42,0.55-7.8,0.55-13.01c0-3.31-0.29-12.51-2.97-26.38c-0.14-0.71-0.28-1.42-0.43-2.15
				c-0.77-3.79-1.67-7.61-2.67-11.37c-0.41-1.57-0.86-3.19-1.33-4.8c-1.23-4.22-2.6-8.42-4.07-12.48c-0.31-0.85-0.62-1.7-0.95-2.56
				c-0.66-1.74-1.34-3.47-2.04-5.16c-5.51-13.36-12.34-25.55-20.29-36.24c-1.26-1.69-2.55-3.35-3.86-4.96
				c-0.67-0.82-1.34-1.63-2.03-2.44c-2.09-2.46-4.28-4.85-6.5-7.12c-0.76-0.77-1.52-1.54-2.3-2.3c-7.14-6.95-15.04-13.05-23.5-18.14
				l0.01-0.03c0.22-0.65,0.43-1.31,0.64-1.95c0.34-1.05,0.68-2.1,1.01-3.16c0.22-0.7,0.44-1.41,0.66-2.12
				c0.3-0.99,0.61-1.99,0.9-2.99l0.17-0.58c0.12-0.4,0.51-1.78,0.51-1.78c0.29-1,0.57-2.01,0.85-3.01c0,0,0.35-1.25,0.45-1.63
				l0.2-0.76c0.27-0.99,0.53-1.99,0.79-2.99c0.21-0.82,0.42-1.65,0.63-2.47l0.19-0.74c0.12-0.49,0.55-2.28,0.55-2.28
				c0.2-0.84,0.4-1.68,0.6-2.53c0,0,0.33-1.42,0.44-1.91l0.29-1.3c0.18-0.8,0.35-1.59,0.53-2.39c0.2-0.94,0.4-1.88,0.6-2.83
				l0.22-1.04c0.12-0.6,0.24-1.2,0.36-1.8c0.22-1.12,0.44-2.25,0.65-3.38c0,0,0.25-1.31,0.31-1.62c0.06-0.35,0.13-0.7,0.18-1
				c0.17-0.94,0.33-1.88,0.5-2.87l0.09-0.54c0.14-0.81,0.28-1.61,0.41-2.43c0.09-0.54,0.33-2.08,0.33-2.08
				c0.15-0.93,0.3-1.87,0.44-2.81c15.47,9.33,45.56,26.06,73.48,40.14c3.24,1.64,6.56,3.1,9.87,4.36c0.42,7.7,4.44,18.1,14.66,23.5
				c1.44,0.76,3.06,1.16,4.68,1.16c4.47,0,8.43-2.99,9.61-7.25c0.13-0.44,0.23-0.89,0.29-1.34c0.36-2.55,1.07-6.27,2.41-10.04
				c0,0,0,0,0,0c4.86,0,9.62-0.43,14.17-1.29c2.09,2.97,4.73,5.38,7.86,7.19c0.38,0.22,0.79,0.44,1.21,0.66
				c0.78,0.4,1.55,0.74,2.27,1.01l0.74,0.28l0.3,0.09h0.04c1.25,0.38,2.46,0.57,3.6,0.57c6.44,0,11.5-3.96,13.89-10.87
				c2.47-7.16,1.94-17.57-1.21-26.09c0.02,0,0.05,0,0.07,0c0.2,0.01,0.39,0.01,0.65,0.01c0,0,0,0,0,0c1.09,0,2.1-0.14,3.01-0.41
				C851.23,580.12,854.13,575.84,853.68,571.1z"/>
			<path d="M757.9,359.33l5.09-2.44l5.29,10.89l50.96-25.68l0.5-2.82c0.12-0.67,2.9-16.67-0.62-35.9
				c-4.75-25.98-18.76-45.36-40.5-56.06l-2.34-1.15l-55.72,23.37l3.86,7.94l-4.9,2.14L757.9,359.33z"/>
		</g>
		<path class="st1" d="M703.15,437.61c-2.68,3.38-5.61,8.95-8.41,16.7c-5.31,14.74-10.1,37.4-11.51,68.01
			c-0.31,5.04-0.7,10-1.17,14.87c0,0,0,0,0,0.01c0,0.01,0,0.04-0.01,0.07c-0.23,2.47-0.49,4.91-0.77,7.34
			c-0.04,0.3-0.07,0.61-0.11,0.92c-0.13,1.12-0.26,2.24-0.4,3.35c-0.89,7.1-1.95,14-3.17,20.71c-0.05,0.31-0.11,0.62-0.16,0.92
			c-5.72,31.15-14.95,58.34-26.89,81.87c-3.35,6.6-6.92,12.92-10.69,18.95c-15.66,25.13-34.78,45.38-56.1,61.18
			c-9.67,7.17-19.8,13.43-30.26,18.82c-6.47,3.33-13.07,6.34-19.78,9.02c-5.68,2.27-11.43,4.31-17.24,6.12h-0.01
			c-24.89,7.77-50.83,11.41-76.54,11.41c-113.62,0-140.54-39.85-140.54-39.85l-87.86-125.07l68.43,3.07l7.36-93.7l38.17-105.55
			l31.89-48.44l36.17-7.05l14.1,12.57l38.01,15.33l86.45,21.15c0,0,160.02,2.55,166.35,6.03
			C704.79,419.82,710.92,427.8,703.15,437.61z"/>
		<path class="st2" d="M398.46,454.61c0,0,21.63,28.93,161.32,28.93c105.92-2.4,125.52-9.2,125.52-9.2l-1.97-11.8
			c0,0-153.39-7.7-155.79-8.23c-2.4-0.54-109.04-21.45-109.04-21.45l-31.09-15.43L398.46,454.61z"/>
		<path class="st3" d="M239.47,846.77c-6.29,2.49-15.19,2.78-21.19,2.62c-1.37-0.04-2.58-0.09-3.58-0.15
			c-1.65-0.1-2.87-1.55-2.7-3.19c2.47-24.71,19.09-27.84,19.09-27.84c0.31,1.89,0.77,3.96,1.29,6.09
			C234.96,834.74,239.47,846.77,239.47,846.77z"/>
		<path class="st4" d="M239.47,846.77c-6.29,2.49-15.19,2.78-21.19,2.62c0.72-4.69,3.55-16.48,14.1-25.08
			C234.96,834.74,239.47,846.77,239.47,846.77z"/>
		<path class="st5" d="M236.3,622.14c0,0-1.27,23.91-4.73,48.79c-1.29,9.24-2.89,18.62-4.84,26.94
			c-2.82,12.04-6.37,21.9-10.81,26.04c0,0-35.58,10.42-61.69-30.33c-0.01-0.01-0.01-0.01-0.01-0.01s0,0,0.01-0.01
			C154.93,693.19,200.72,668.98,236.3,622.14z"/>
		<path class="st6" d="M226.73,697.88c-2.82,12.04-6.37,21.9-10.81,26.04c0,0-35.58,10.42-61.69-30.33
			C155.03,694.32,192.28,728.66,226.73,697.88z"/>
		<path class="st7" d="M236.3,622.14c0,0-1.27,23.91-4.73,48.79c-32.94,34.17-77.34,22.64-77.34,22.64l-0.01-0.02
			C154.93,693.19,200.72,668.98,236.3,622.14z"/>
		<path class="st8" d="M758.43,818.72c0.12,1.7-1.21,3.17-2.92,3.22c-0.72,0.01-1.52,0.03-2.42,0.04
			c-2.98,0.01-6.84-0.09-10.72-0.57c-4.46-0.53-8.93-1.54-12.09-3.39l1.52-10.58l1.74-12.05l1.08-7.51
			C734.62,787.88,756.71,794.1,758.43,818.72z"/>
		<path class="st4" d="M753.09,821.97c-6.41,0.03-16.91-0.5-22.81-3.96l3.26-22.63l1.39-1.28
			C734.93,794.11,749.48,798.36,753.09,821.97z"/>
		<path class="st3" d="M742.37,821.41c-4.46-0.53-8.93-1.54-12.09-3.39l1.52-10.58C734.47,809.12,739.93,813.41,742.37,821.41z"/>
		<path class="st4" d="M735.24,773.16l0.43,0.04C735.4,773.27,735.24,773.16,735.24,773.16z"/>
		<path class="st6" d="M735.24,773.16c2.71,33.24,5.12,43.64-7.88,48.37c-8.58,3.13-23.88,3.78-50.25,6.91
			c-21.67,2.26-39.02,3.13-52.91,2.79c-57.6-1.38-55.61-23.37-55.61-51.53c0-34.95-5.51-48.44-5.51-48.44
			c-10.12-38.01,13.18-148.36,87.82-118.32c3.9,1.57,7.63,3.3,11.2,5.16c64.79,33.84,76.62,113.52,76.62,134.82
			c0,17.51-2.11,20.01-3.04,20.27h-0.01C735.4,773.27,735.24,773.16,735.24,773.16z"/>
		<polygon class="st8" points="733.61,780.93 681.17,773.22 656.17,760.9 648.82,749.66 672.93,756.86 714.62,765.29 732.6,752.52 
					"/>
		<path class="st9" d="M712.91,770.71c-23.79,0-52.22-11.52-53.96-12.23c40.25,19.8,62.55,18.42,71.54,16.3
			c0.26-7.44,0.73-11.23,1.04-13.03C730.02,767.1,725.42,770.71,712.91,770.71z"/>
		<path class="st10" d="M732.24,818.93c-0.17,0.13-0.34,0.26-0.52,0.39C731.9,819.19,732.07,819.07,732.24,818.93z"/>
		<path class="st10" d="M734.43,816.67c-0.18,0.25-0.37,0.49-0.58,0.73C734.06,817.16,734.25,816.92,734.43,816.67z"/>
		<path class="st10" d="M732.98,818.3c-0.15,0.14-0.31,0.28-0.47,0.41C732.68,818.58,732.83,818.44,732.98,818.3z"/>
		<path class="st10" d="M733.7,817.57c-0.16,0.17-0.32,0.34-0.48,0.51C733.39,817.91,733.55,817.74,733.7,817.57z"/>
		<path class="st10" d="M728.26,821.17c-0.22,0.09-0.44,0.18-0.67,0.26C727.82,821.35,728.04,821.26,728.26,821.17z"/>
		<path class="st10" d="M731.45,819.51c-0.22,0.15-0.45,0.29-0.69,0.43C731,819.81,731.23,819.66,731.45,819.51z"/>
		<path class="st10" d="M735.48,776.06c0.02,0.22,0.04,0.44,0.06,0.66C735.51,776.5,735.5,776.28,735.48,776.06z"/>
		<path class="st10" d="M729.37,820.69c-0.23,0.11-0.46,0.22-0.7,0.32C728.91,820.9,729.14,820.79,729.37,820.69z"/>
		<path class="st10" d="M730.59,820.05c-0.29,0.17-0.6,0.33-0.92,0.49C729.99,820.38,730.3,820.22,730.59,820.05z"/>
		<path class="st10" d="M736.81,810.76c-0.05,0.28-0.11,0.55-0.18,0.82C736.69,811.31,736.75,811.04,736.81,810.76z"/>
		<path class="st10" d="M737.28,806.86c-0.02,0.35-0.05,0.69-0.08,1.02C737.23,807.55,737.25,807.21,737.28,806.86z"/>
		<path class="st10" d="M737,809.59c-0.04,0.26-0.08,0.51-0.12,0.76C736.92,810.1,736.96,809.85,737,809.59z"/>
		<path class="st10" d="M737.15,808.33c-0.03,0.27-0.06,0.54-0.09,0.81C737.1,808.88,737.13,808.61,737.15,808.33z"/>
		<path class="st10" d="M737.35,805.19c-0.01,0.47-0.03,0.93-0.06,1.38C737.32,806.12,737.34,805.66,737.35,805.19z"/>
		<path class="st10" d="M737.38,803.72c0,0.35-0.01,0.68-0.01,1.01C737.37,804.4,737.37,804.06,737.38,803.72z"/>
		<path class="st10" d="M736.22,813.09c-0.08,0.25-0.17,0.5-0.26,0.75C736.05,813.59,736.13,813.34,736.22,813.09z"/>
		<path class="st10" d="M735.41,815.06c-0.1,0.19-0.2,0.38-0.3,0.56C735.21,815.44,735.31,815.25,735.41,815.06z"/>
		<path class="st10" d="M735.82,814.15c-0.08,0.2-0.17,0.4-0.26,0.6C735.65,814.55,735.74,814.35,735.82,814.15z"/>
		<path class="st10" d="M736.57,811.85c-0.09,0.35-0.18,0.69-0.28,1.02C736.39,812.54,736.48,812.2,736.57,811.85z"/>
		<path class="st10" d="M735.72,778.97c0.01,0.16,0.03,0.31,0.04,0.46C735.75,779.28,735.74,779.13,735.72,778.97z"/>
		<path class="st10" d="M734.95,815.9c-0.13,0.21-0.27,0.42-0.41,0.62C734.68,816.31,734.82,816.11,734.95,815.9z"/>
		<path class="st10" d="M737.37,802.16c0,0.32,0.01,0.64,0.01,0.96C737.37,802.8,737.37,802.48,737.37,802.16z"/>
		<path class="st10" d="M736.69,790.31c0.03,0.36,0.06,0.72,0.09,1.07C736.75,791.03,736.72,790.67,736.69,790.31z"/>
		<path class="st10" d="M737,794.4c0.03,0.38,0.05,0.74,0.07,1.11C737.05,795.15,737.03,794.78,737,794.4z"/>
		<path class="st10" d="M736.85,792.39c0.03,0.36,0.05,0.72,0.08,1.08C736.91,793.11,736.88,792.75,736.85,792.39z"/>
		<path class="st10" d="M737.32,800.48c0.01,0.34,0.02,0.68,0.03,1.02C737.35,801.17,737.34,800.83,737.32,800.48z"/>
		<path class="st10" d="M737.25,798.56c0.02,0.43,0.04,0.86,0.06,1.27C737.29,799.42,737.27,798.99,737.25,798.56z"/>
		<path class="st10" d="M737.12,796.32c0.04,0.6,0.07,1.19,0.1,1.77C737.2,797.51,737.16,796.92,737.12,796.32z"/>
		<path class="st10" d="M736.52,788.23c0.03,0.33,0.06,0.66,0.08,0.98C736.57,788.89,736.55,788.56,736.52,788.23z"/>
		<path class="st11" d="M735.76,779.43c0.27,3.16,0.53,6.09,0.76,8.8C736.29,785.52,736.04,782.6,735.76,779.43z"/>
		<path class="st11" d="M736.29,812.87c-0.02,0.07-0.05,0.14-0.07,0.21C736.24,813.01,736.27,812.94,736.29,812.87z"/>
		<path class="st11" d="M735.56,814.74c-0.05,0.11-0.1,0.21-0.15,0.31C735.46,814.95,735.51,814.85,735.56,814.74z"/>
		<path class="st11" d="M737.37,803.11c0,0.2,0,0.41,0,0.6C737.38,803.52,737.38,803.32,737.37,803.11z"/>
		<path class="st11" d="M737.36,804.73c0,0.15,0,0.31-0.01,0.46C737.36,805.04,737.36,804.88,737.36,804.73z"/>
		<path class="st11" d="M737.3,799.83c0.01,0.22,0.01,0.44,0.02,0.65C737.32,800.27,737.31,800.05,737.3,799.83z"/>
		<path class="st11" d="M736.63,811.58c-0.02,0.09-0.04,0.18-0.06,0.27C736.59,811.76,736.61,811.67,736.63,811.58z"/>
		<path class="st11" d="M737.35,801.5c0.01,0.22,0.01,0.44,0.01,0.66C737.36,801.94,737.36,801.72,737.35,801.5z"/>
		<path class="st8" d="M731.07,735.78c0.35,3.16,0.49,5.66,0.49,7.34c0,6.72,1.42,13.48-0.03,18.63c-0.31,1.8-0.78,5.59-1.04,13.03
			c3.24-0.76,4.75-1.62,4.75-1.62s0.16,0.11,0.43,0.04h0.01c0.93-0.26,3.04-2.76,3.04-20.27c0-21.31-11.84-100.99-76.62-134.82
			l-1.26,3.13l0.01,0.01C715.08,657.85,728.56,713.45,731.07,735.78z"/>
		<path class="st11" d="M737.06,809.14c-0.02,0.15-0.04,0.3-0.06,0.45C737.02,809.44,737.04,809.29,737.06,809.14z"/>
		<path class="st11" d="M736.88,810.35c-0.02,0.14-0.05,0.27-0.07,0.41C736.83,810.63,736.86,810.49,736.88,810.35z"/>
		<path class="st11" d="M737.3,806.57c-0.01,0.1-0.01,0.2-0.02,0.3C737.28,806.76,737.29,806.67,737.3,806.57z"/>
		<path class="st11" d="M737.2,807.88c-0.01,0.15-0.03,0.3-0.04,0.45C737.17,808.18,737.19,808.04,737.2,807.88z"/>
		<path class="st11" d="M735.95,813.83c-0.04,0.11-0.09,0.21-0.13,0.31C735.87,814.04,735.91,813.94,735.95,813.83z"/>
		<path class="st11" d="M735.11,815.62c-0.05,0.09-0.1,0.19-0.16,0.28C735,815.8,735.05,815.71,735.11,815.62z"/>
		<path class="st11" d="M736.6,789.21c0.03,0.37,0.06,0.73,0.09,1.1C736.66,789.94,736.63,789.58,736.6,789.21z"/>
		<path class="st11" d="M729.67,820.54c-0.1,0.05-0.2,0.09-0.3,0.14C729.47,820.64,729.57,820.59,729.67,820.54z"/>
		<path class="st11" d="M736.77,791.38c0.03,0.34,0.05,0.68,0.08,1.01C736.83,792.05,736.8,791.72,736.77,791.38z"/>
		<path class="st11" d="M728.67,821c-0.13,0.06-0.27,0.11-0.41,0.17C728.4,821.12,728.54,821.06,728.67,821z"/>
		<path class="st11" d="M727.35,821.53c0.08-0.03,0.15-0.06,0.23-0.09C727.51,821.47,727.43,821.5,727.35,821.53L727.35,821.53z"/>
		<path class="st11" d="M735.53,776.72c0.06,0.76,0.13,1.51,0.19,2.25C735.66,778.24,735.6,777.48,735.53,776.72z"/>
		<path class="st11" d="M735.24,773.16c0.08,0.99,0.16,1.95,0.24,2.9C735.4,775.11,735.32,774.15,735.24,773.16z"/>
		<path class="st11" d="M730.76,819.95c-0.06,0.03-0.11,0.07-0.17,0.1C730.65,820.02,730.7,819.98,730.76,819.95z"/>
		<path class="st11" d="M734.54,816.52c-0.04,0.05-0.07,0.11-0.11,0.16C734.47,816.62,734.5,816.57,734.54,816.52z"/>
		<path class="st11" d="M733.86,817.4c-0.05,0.06-0.1,0.11-0.16,0.17C733.76,817.51,733.81,817.46,733.86,817.4z"/>
		<path class="st11" d="M737.07,795.52c0.02,0.27,0.04,0.54,0.05,0.8C737.11,796.06,737.09,795.78,737.07,795.52z"/>
		<path class="st11" d="M737.22,798.09c0.01,0.16,0.01,0.31,0.02,0.47C737.24,798.4,737.23,798.25,737.22,798.09z"/>
		<path class="st11" d="M736.93,793.46c0.02,0.32,0.05,0.63,0.07,0.94C736.98,794.1,736.95,793.78,736.93,793.46z"/>
		<path class="st11" d="M733.22,818.07c-0.08,0.08-0.16,0.15-0.24,0.22C733.06,818.22,733.14,818.15,733.22,818.07z"/>
		<path class="st11" d="M731.72,819.32c-0.09,0.07-0.18,0.13-0.28,0.19C731.54,819.45,731.63,819.38,731.72,819.32z"/>
		<path class="st11" d="M732.51,818.71c-0.09,0.08-0.18,0.15-0.27,0.22C732.33,818.86,732.42,818.79,732.51,818.71z"/>
		<path class="st5" d="M731.86,760.25c0.86-4.93-0.3-11.05-0.3-17.13c0-1.68-0.14-4.18-0.49-7.34c-2.52-22.33-16-77.93-70.24-114.53
			c-0.67-0.45-1.35-0.91-2.03-1.36l-5,4.04l-61.21,49.5c0,0-0.72,37.9,40.04,70.7c-0.52-0.24-13.65-6.27-20.01-11.44
			c0,0-13.9,17.57-13.9,46.18c0,18.97,13.21,38.98,25.47,52.35c13.88,0.34,31.23-0.53,52.91-2.79c26.37-3.13,41.67-3.79,50.25-6.91
			l-3.04-5.65c0,0,11.88-0.62,7.42-27.64c-0.86-5.22-1.36-9.95-1.24-13.45c-8.99,2.12-31.29,3.5-71.54-16.3
			c1.74,0.72,30.17,12.23,53.96,12.23c12.51,0,17.12-3.61,18.62-8.96c0.13-0.46,0.23-0.95,0.32-1.44c0.01-0.02,0.01-0.04,0.01-0.04
			L731.86,760.25z"/>
		<path d="M667.77,849.81c-0.22,0-0.4-0.01-0.55-0.02c-0.6,0-1.2-0.02-1.78-0.05c-17.03-0.74-29.42-11.42-29.42-25.39
			c0-12.34,6.89-17.19,11-18.98c2.66-1.17,5.7-1.77,9.02-1.77c10.31,0,25.64,6.99,25.64,26.26
			C681.69,849.25,669.2,849.81,667.77,849.81z"/>
		<path class="st4" d="M677.4,829.87c0,16.76-10.01,15.64-10.01,15.64c-0.59,0-1.17-0.01-1.73-0.04
			c-15.09-0.66-25.34-9.98-25.34-21.11c0-8.05,3.42-12.86,8.43-15.04c2.18-0.96,4.67-1.41,7.31-1.41
			C664.73,807.91,677.4,813.83,677.4,829.87z"/>
		<path class="st3" d="M665.66,845.46c-15.09-0.66-25.34-9.98-25.34-21.11c0-8.05,3.42-12.86,8.43-15.04
			c3.85,1.88,9.44,6.14,12.11,15.55C663.55,834.38,666.17,841.46,665.66,845.46z"/>
		<path class="st7" d="M731.07,735.78c-3.79,11.23-11.62,21.09-27.46,21.09c-36.79,0-63.61-26.35-63.61-75.56
			c0-27.39,7.31-46.14,13.8-57.37l5-4.04C714.74,656.47,728.53,713.18,731.07,735.78z"/>
		<path class="st12" d="M677.44,570.51c-14.03,76.3-49.01,128.88-93.68,162c-2.55,0.49-5.16,0.97-7.82,1.42
			C394.78,764.78,369.7,639,369.7,597.64c0-41.36,25.08-88.3,74.74-88.3s54.87,11.64,108.82,11.64c50.58,0,50.58-10.42,81.23-10.42
			c45.37,0,42.41,59.01,42.41,59.01S677.09,569.89,677.44,570.51z"/>
		<path d="M553.5,751.32c-6.47,3.33-13.07,6.34-19.78,9.02C374.03,785.7,274.62,619.89,274.62,619.89l5.35-3.88
			C384.81,771.37,515.95,758.77,553.5,751.32z"/>
		<path d="M650.54,652.38c-3.35,6.6-6.92,12.92-10.69,18.95c-23.35,12.45-49.64,20.08-79.03,20.08
			c-159.84,0-228.18-126.28-228.18-126.28l6.72-7.98c0,0,68.29,126.3,224.62,126.3C597.88,683.45,626.5,671.34,650.54,652.38z"/>
		<path d="M682.06,537.19c0,0.01,0,0.04-0.01,0.07c-0.23,2.47-0.49,4.91-0.77,7.34c-0.04,0.3-0.07,0.61-0.11,0.92
			c-0.13,1.12-0.26,2.24-0.4,3.35c-25.26,14.59-62.94,27.7-116.79,27.7c-121.39,0-185.97-70.92-185.97-70.92l2.86-8.78
			c0,0,68.14,72.7,183.1,72.7C615.05,569.57,654.25,554.23,682.06,537.19z"/>
		<path d="M212.98,439.63c0,0,14.66-35.12,29.37-50.45l2.61,10.73L212.98,439.63z"/>
		<path class="st13" d="M214.12,669.35c0,0-63.34-142.4,26.47-268.53c0,0-11.65,18.09-10.06,89.15c0.23,10.21,1.02,20.4,2.35,30.52
			c9.09,69.3,21.57,76.52,36.83,96.54"/>
		<path class="st14" d="M248.05,394.28c0,0-15.02,32.66-8.58,111.37s25.17,95.43,38.17,104.84l51.33-64.99l3.68-18.56l-51.9-94.65
			l-21.26-38.01H248.05z"/>
		<path class="st13" d="M265.83,424.12l-27.47-45.55c-3.44-5.7-5.1-12.29-4.79-18.94c0.84-17.89,5.96-53.13,32.26-70.55
			c14.6-9.67,26.66-17.04,35.85-22.4c12.66-7.38,26.6-12.26,41.09-14.42l14.76-2.2c5.55-0.83,11.21,0.49,15.83,3.68l27.14,18.74
			l41.69,44.55l-9.4,44.24c0,0-47.62,43.49-48.74,44.17c-1.12,0.69-76.21,20.51-76.21,20.51L265.83,424.12z"/>
		<path class="st14" d="M279.96,410.63l-25.2-45.47c-4.2-7.58-5.57-16.41-3.86-24.92l6.55-32.61l78.06-33.72l26.22-1.94
			c2.74-0.2,5.46,0.53,7.73,2.07l28.99,19.69l-4.9,67.54l-70.2,41.99L279.96,410.63z"/>
		<path d="M283.01,404.95l-23.45-41.88c-4.13-7.37-5.42-16-3.62-24.26l4.41-20.29l82.66-41.66l16.32-0.99
			c2.64-0.16,5.26,0.54,7.46,2.01l26.83,17.8l-6.21,60.77L283.01,404.95z"/>
		<path class="st15" d="M387.42,369.56l-45.98,28.2l-26.77-13.49l-19.41-31.06c0,0-22.28,4.29-31.47-9.4
			c-4.11-6.13-16.38-26.72-28.67-47.61c-11.75-19.98-23.54-40.23-28.25-48.33c-1.42-2.44-1.67-5.39-0.69-8.03
			c5.21-13.88,25.78-56.05,82.62-53.59c2.99,0.13,5.75,1.68,7.42,4.17l2.05,3.05c0,0,0,0,0,0.01l7.02,10.44c0,0,0,0,0,0.01
			l54.55,81.28c0,0,4.6,20.59-5.21,29.94l23.75,23.14L387.42,369.56z"/>
		<path class="st16" d="M298.17,224.07l49.4,75.91c0,0,2.3-7.97,0-14.87c-1.94-5.83-34.87-55-45.05-70.13
			c2.44-6.46,2.75-10.84,2.76-11.05c0-0.01,0-0.01,0-0.01l-7.02-10.44c-0.08,0.63-3.68,29.75-27.02,47.34
			c-23.6,17.78-51.19,16.24-51.19,16.24l15.06,39.14c12.3,20.89,24.56,41.48,28.67,47.61c9.19,13.69,31.47,9.4,31.47,9.4
			c27.79-13.07,40.25-33.72,40.25-33.72l-49.45-80.11C291.48,234.14,295.37,228.88,298.17,224.07z"/>
		<path class="st17" d="M296.25,354.79c0,0,21.69-1.07,58.38-39.65l23.76,23.14l4.77,16.5l-30.68-34.08l-8.99,8.58l28,35.76
			l-30.04,32.7l-26.77-13.49L296.25,354.79z"/>
		<path class="st18" d="M264.34,235.53c-17.63,11.64-35.83,15.65-42.52,9.76c-0.5-0.44-0.94-0.94-1.31-1.49
			c-5.24-7.95,5.87-24.54,24.83-37.05c18.96-12.52,38.58-16.21,43.83-8.27c0.59,0.89,0.97,1.9,1.15,3
			C291.82,210.11,281.17,224.42,264.34,235.53z"/>
		<path d="M264.34,235.53c-17.63,11.64-35.83,15.65-42.52,9.76c3.93-9.21,14.18-20.38,28.18-29.62
			c14.96-9.87,30.27-14.96,40.33-14.2C291.82,210.11,281.17,224.42,264.34,235.53z"/>
		<path class="st3" d="M178.98,513.63c0,0-15.63,6.9-15.63,21.92c0,5.67,9.81,6.28,15.63,1.53V513.63z"/>
		<path class="st8" d="M843.8,576.21c-0.21,0-0.43,0-0.65-0.01c-3.57-0.07-8.47-0.8-12.73-3.73c-0.06-0.04-0.14-0.09-0.2-0.14
			l0.92-24.22c0.43,0,15.1,5.32,16.85,23.54C848.22,574.1,846.26,576.2,843.8,576.21z"/>
		<path class="st4" d="M843.15,576.2c-3.57-0.07-8.47-0.8-12.73-3.73l1.69-19.19C832.1,553.28,845,562.16,843.15,576.2z"/>
		<path class="st7" d="M830.62,576.83c-0.06,0.23-0.11,0.45-0.17,0.68l-2.95,11.27l-2.95,11.29c0,0-26.98,13.18-63.46-5.21
			c-36.48-18.4-74.24-40.09-80.49-44.62c-3.5-2.53-2.22-29.73-0.41-53.18c1.42-18.42,3.15-34.53,3.15-34.53l17.98-40.33l1.26-2.83
			c0,0,26.33,3.35,41.05,25.42c0,0,17.49-1.58,44.3,24.32c26.81,25.91,31.93,26.93,29.07,40.21c0,0,5.3,7.19,10.19,18.95
			C833.55,543.66,834.68,560.7,830.62,576.83z"/>
		<path class="st8" d="M830.62,576.83l-2.19-0.26c0,0,1.63-12.67,0.72-22.48c-4.29-44.75-25.24-43.73-25.24-43.73
			c6.54-6.74,0-17.37-9.81-28c-11.85-14.1-35.3-30.5-49.87-30.5c-14.1,0-19.29,2.59-19.61,2.75c7.97-6.28,12.56-7.5,12.56-7.5
			c-19.24-13.18-56.95,9.5-56.95,9.5l21.08-34.4l1.26-2.83c0,0,26.33,3.35,41.05,25.42c0,0,17.49-1.58,44.3,24.32
			c26.81,25.91,31.93,26.93,29.07,40.21c0,0,5.3,7.19,10.19,18.95C833.55,543.66,835.14,560.83,830.62,576.83z"/>
		<path class="st5" d="M827.5,588.78l-2.95,11.29c0,0-26.98,13.18-63.46-5.21c-36.48-18.4-74.24-40.09-80.49-44.62
			c-3.5-2.53-2.22-29.73-0.41-53.18c8.99-10.91,27.87-32.47,44.45-42.45c-0.77,0.6-28.52,24.15-28.52,48.59
			c0,24.83,25.85,35.76,51.81,35.76c20.23,0,19.61-19.62,55.99-28.61c0,0-37.91,16.14-37.91,40.05
			C765.99,573.25,788.99,592.46,827.5,588.78z"/>
		<path d="M830.22,617.44c-1.06,0-2.19-0.19-3.38-0.57h-0.05l-0.74-0.28c-0.67-0.25-1.39-0.57-2.13-0.95
			c-0.39-0.2-0.77-0.41-1.14-0.62c-7.19-4.15-11.75-11.99-11.88-20.47c-0.06-3.23,0.08-6.28,0.43-9.03c0.08-0.63,0.18-1.32,0.31-2.1
			c0-0.03,0.03-0.17,0.08-0.42c2.41-13.07,9.83-15.02,14.04-15.02c11.41,0,18.47,15.41,18.47,29.68c0,5.13-0.99,9.61-2.85,12.95
			C838.93,615.02,834.96,617.44,830.22,617.44z"/>
		<path class="st4" d="M830.22,613.15c-0.8,0-1.7-0.21-2.65-0.57h-0.01c-0.55-0.21-1.12-0.46-1.7-0.76
			c-0.31-0.16-0.62-0.32-0.91-0.49c-5.97-3.44-9.65-9.89-9.76-16.83c-0.05-2.67,0.04-5.6,0.4-8.43c0.08-0.64,0.18-1.29,0.29-1.92
			c0,0,0.02-0.12,0.06-0.33c1.15-6.28,3.9-11.54,9.83-11.54C840.48,572.28,846.51,613.15,830.22,613.15z"/>
		<path class="st8" d="M830.21,613.15c-0.8,0-1.7-0.21-2.65-0.57c14-1.72,7.36-36.01-1.59-36.01c-7.83,0-9.69,5.81-10.03,7.25
			c1.15-6.28,3.9-11.54,9.83-11.54C840.48,572.28,846.51,613.15,830.21,613.15z"/>
		<path d="M787.72,627.56c-1.39,0-2.77-0.35-4.01-1c-10.28-5.43-13.93-16.1-13.93-23.58c0-9.06,6.36-18.75,15.84-18.75
			c8.35,0,14.51,4.17,16.07,10.9c0.81,3.46,0.25,7.39-1.61,11.34c-2.28,4.87-3.37,10.17-3.88,13.76c-0.04,0.34-0.12,0.73-0.24,1.1
			C794.94,625,791.56,627.56,787.72,627.56z"/>
		<path class="st3" d="M796.19,604.65c-2.48,5.29-3.68,10.99-4.24,14.98c-0.02,0.17-0.06,0.34-0.11,0.5
			c-0.69,2.6-3.68,3.93-6.13,2.64c-9.1-4.81-11.64-14.36-11.64-19.78c0-6.44,4.29-14.46,11.54-14.46c6.27,0,10.8,2.89,11.89,7.57
			C798.06,598.52,797.71,601.42,796.19,604.65z"/>
		<path class="st4" d="M796.19,604.65c-2.48,5.29-3.68,10.99-4.24,14.98c-0.02,0.17-0.06,0.34-0.11,0.5
			c-12.26-5.92-7.12-24.6-0.41-25.48c3.42-0.44,5.18,0.49,6.07,1.44C798.06,598.52,797.71,601.42,796.19,604.65z"/>
		<path class="st3" d="M831.77,598.69c-0.55,5.51-1.02,10.65-6.82,12.63c-5.97-3.44-9.65-9.89-9.76-16.83
			c-0.05-2.67,0.04-5.6,0.4-8.43c1.83-2.55,4.85-5.77,8.36-5.77C829.77,580.3,832.38,592.56,831.77,598.69z"/>
		<path class="st19" d="M403.67,454.77c0,53.64-40.77,69.48-40.77,69.48c-5.31,21.66-31.88,72.45-88.59,106.47
			s-59.29,93.41-59.29,93.41s0-0.01-0.01-0.04c-0.46-1.89-18.93-79.35,41.63-118.51c61.3-39.65,65.8-77.25,65.8-77.25
			c-43.74,0-59.67-107.9-59.67-107.9c13.9-35.96,39.23-43.73,62.53-43.73C348.6,376.71,403.67,401.13,403.67,454.77z"/>
		<path class="st5" d="M384.05,456.3c0,16.91-4.82,27.59-12.5,35.53c-0.01,0-0.01,0.01-0.01,0.01c-5.16,5.34-11.61,9.46-18.76,13.4
			c-13.43,7.4-32.39,17.07-32.39,17.07c-16.14,6.23-22.79,17.98-66.62,36.69c-9.7,4.13-18.55,7.17-26.51,8.93
			c-28,6.22-44.96-3.18-49.1-34.68c-5.31-40.47,21.05-65.3,21.05-65.3c0.31-5.21,0.31-10.42,19.31-27.59
			c27.29-27.89,52.11-29.43,52.11-29.43s15.33-21.77,41.69-21.77C349.1,389.18,384.05,410.23,384.05,456.3z"/>
		<path class="st7" d="M197.75,479.68c2.26-2.58,5.96-3.35,9.08-1.93c11.56,5.25,39.27,19.64,39.27,37.11
			c0,37.07-36.27,38.71-46.08,38.71c-9.81,0-20.74-12.03-17.22-38.97C185.17,496.57,192.89,485.22,197.75,479.68z"/>
		<path class="st7" d="M307.84,394.28c-13.19,0-29.44,12.67-32.4,18.19c0,0,9.1,2.93,12.33,9.97c-4.54-2.9-9.84-4.46-15.29-4.46h0
			c-34.95,0-84.91,52.42-58.35,59.06c19.47,4.87,32.6,28.61,50.69,28.61c18.09,0,51.5-7.36,51.5-36.17
			c0-18.79-14.47-34.98-24.54-43.96c4.49,0.36,13.03,2.61,19.23,13.71c5.31,8.38,7.36,19.82,22.89,19.82
			c15.53,0,19.41-13.08,19.41-26.57C353.29,419.01,336.3,394.28,307.84,394.28z"/>
		<path class="st8" d="M681.17,545.52c-14.86,127.69-84.29,195.84-164.69,220.93C650.66,715.04,676.64,580.38,681.17,545.52z"/>
		<path class="st15" d="M770.9,360.05l43.22-21.78c0,0,11.04-61.7-38.01-85.82l-47.74,20.03L770.9,360.05z"/>
		<path class="st16" d="M760.58,351.69l44.96-21.58c0,0-0.12-47.57-28.81-69.26l-49.45,21.65L760.58,351.69z"/>
		<polygon class="st17" points="768.97,336.57 791.03,325.01 790.01,311.31 763.64,325.41 		"/>
		<path class="st17" d="M756.08,307.43l30.45-16.55c0,0-7.26-17.32-12.23-22.06l-31.3,14.5L756.08,307.43z"/>
		<path class="st5" d="M377.61,856.74c-1.89,0.53-3.79,1.02-5.7,1.48c-8.69,2.1-17.56,3.53-26.39,4.42
			c-49.32,4.96-97.17-6.96-103.71-12.75c-7.97-7.05-17.17-54.26-17.17-54.26c-3.42-4.13-6.52-12.65-8.52-23.72
			c-0.53-2.93-0.98-6.05-1.34-9.31v-0.06l-0.01-0.01c-1.47-13.3-1.42-29,1.14-44.78c6.5-40.21,29.23-80.95,84.34-83.81
			c2.03-0.11,4.11-0.16,6.24-0.16c14.61,0,27.14,1.89,37.84,5.32c0.01,0.01,0.01,0.01,0.02,0.01c0.01,0,0.01,0,0.01,0
			c15.33,4.92,26.91,13.01,35.51,23.24c7.06,8.42,12.11,18.3,15.56,29.05C416.65,757.46,377.61,856.74,377.61,856.74z"/>
		<path class="st7" d="M338.72,709.57c-4.92,39.62-36.5,68.32-70.52,64.09c-27.08-3.37-47.55-26.59-52.28-55.9
			c6.5-40.21,29.23-80.95,84.34-83.81C326.36,644.89,342.92,675.74,338.72,709.57z"/>
		<path class="st6" d="M377.61,856.74c-10.49,2.93-21.32,4.81-32.09,5.9c6.71-10.79,22.54-41.31,27.79-95.82
			c0,0,24.62-28.85,22.12-75.42C416.65,757.46,377.61,856.74,377.61,856.74z"/>
		<path d="M300.82,876.12c-5.33,0-10-3.42-11.63-8.52c-0.29-0.89-0.47-1.83-0.55-2.77c-0.95-12.38,2.45-22.63,9.58-28.88
			c4.41-3.86,10.02-5.99,15.81-5.99c10.42,0,20.96,7.06,20.96,20.56c0,15.55-12.32,24.88-33.79,25.6
			C301.08,876.11,300.95,876.12,300.82,876.12z"/>
		<path class="st4" d="M330.71,850.51c0,17.82-18.94,20.95-29.64,21.31c-3.6,0.11-6.74-2.22-7.79-5.52
			c-0.19-0.58-0.31-1.18-0.36-1.81c-0.94-12.32,2.74-20.58,8.13-25.31C312.22,829.38,330.71,834.71,330.71,850.51z"/>
		<path class="st3" d="M315.38,847.37c0,4.36-2.16,8.36-4.69,11.55c-3.73,4.69-9.43,7.38-15.42,7.38h-1.99
			c-0.19-0.58-0.31-1.18-0.36-1.81c-0.94-12.32,2.74-20.58,8.13-25.31C308.24,835.96,315.38,839.9,315.38,847.37z"/>
		<path class="st8" d="M377.61,856.74c-1.89,0.53-3.79,1.02-5.7,1.48c4.21-8.15,27.96-58.49,23.19-149.05c0,0-2.25,32.1-21.77,57.63
			c0.76-1.47,34.81-67.71,6.52-104.45h0.01c7.06,8.42,12.11,18.3,15.56,29.05C416.65,757.46,377.61,856.74,377.61,856.74z"/>
		<path class="st6" d="M360.85,784.61c-0.51,0.65-33.31,42.09-80.92,42.09c-31.06,0-57.62-29.69-63.8-54.79
			c-0.79-3.2-1.25-6.33-1.34-9.31v-0.06l-0.01-0.01c-5.34-48.42,9.48-128.75,91.72-128.75c14.61,0,27.14,1.89,37.84,5.32
			c-2.03-0.36-122.84-21.46-122.84,99.71C221.49,834.46,301.59,838.15,360.85,784.61z"/>
		<path class="st20" d="M362.9,524.25c-5.31,21.66-31.88,72.45-88.59,106.47s-59.29,93.41-59.29,93.41s0-0.01-0.01-0.04
			c-0.13-1.67-4.61-61.48,31.1-90.31C282.33,604.56,330.79,587.19,362.9,524.25z"/>
		<path class="st8" d="M737.71,802.16c-0.31-7.74-1.94-30.43-1.94-30.43l-1.81-1.3l-0.49,3.49c-0.75,0.27-1.73,0.57-2.97,0.87
			c-0.2,1.94-0.64,10.82,0.11,16.06c3.87,27.02-6.29,25.03-6.29,25.03l3.04,5.65c0.08-0.03,0.16-0.06,0.24-0.09
			C737.39,819.04,738.01,809.89,737.71,802.16z"/>
		<path d="M181.52,581.57c-0.92,0-1.82-0.15-2.68-0.44c-1.34-0.46-2.55-1.25-3.5-2.3c-9.92-11.03-9.56-23.68-5.92-31.85
			c3.55-7.97,10.55-13.12,17.83-13.12c5.92,0,10.59,3.61,12.81,9.9c3.3,9.34,1.09,23.83-4.29,28.18c-3.24,2.62-6.8,5.8-8.63,7.47
			C185.58,580.81,183.59,581.57,181.52,581.57z"/>
		<path class="st4" d="M193.08,568.6c-3.08,2.49-6.49,5.51-8.82,7.63c-1.14,1.02-2.69,1.29-4.04,0.84c-0.63-0.21-1.22-0.59-1.7-1.12
			c-14.83-16.49-4.09-37.79,8.74-37.79C200.84,538.15,198.39,564.31,193.08,568.6z"/>
		<path class="st3" d="M180.22,577.07c-0.63-0.21-1.22-0.59-1.7-1.12c-14.83-16.49-4.09-37.79,8.74-37.79
			c8.9,3.55-2.3,8.89-7.05,19.56C176.61,565.79,178.89,573.7,180.22,577.07z"/>
		<polygon class="st19" points="353.99,384.1 371.48,365.06 377.68,395.15 370.33,400.82 		"/>
		<path class="st8" d="M371.54,491.84c-5.16,5.34-11.61,9.46-18.76,13.4c-13.43,7.4-32.39,17.07-32.39,17.07
			c-16.14,6.23-22.79,17.98-66.62,36.69c-9.7,4.13-18.55,7.17-26.51,8.93v-5.41c0,0,33.26-1.07,48.99-25.8c0,0,4.7,4.5,35.76-15.33
			c27.59-16.24,26.06-15.53,28.1-20.94C340.11,500.45,360.17,499.88,371.54,491.84z"/>
		<path d="M256.83,870.59c-6.72,0-12.4-0.42-16.88-1.24c-2.48-0.46-4.6-1.87-5.99-3.98c-1.38-2.11-1.84-4.73-1.27-7.19
			c0.08-0.36,0.18-0.75,0.27-1.14c6.06-23.98,24.15-32.89,34.14-32.89c1.19,0,2.35,0.12,3.46,0.36
			c11.05,2.26,17.69,14.76,17.69,25.54C288.26,862.53,275.92,870.59,256.83,870.59z"/>
		<path class="st4" d="M283.96,850.05c0-9.22-5.74-19.59-14.3-21.34c-0.83-0.18-1.68-0.26-2.56-0.26c-9.16,0-24.67,8.64-29.96,29.58
			c-0.09,0.37-0.19,0.74-0.27,1.12c-0.64,2.74,1.09,5.47,3.86,5.98c3.23,0.59,8.35,1.17,16.11,1.17
			C272.93,866.3,283.96,860.17,283.96,850.05z"/>
		<path class="st3" d="M272.32,839.17c0,19.25-25.71,19.44-35.18,18.85c5.29-20.94,20.81-29.58,29.96-29.58
			c0.88,0,1.73,0.09,2.56,0.26C271.33,831.26,272.32,834.78,272.32,839.17z"/>
		<path d="M207.62,588.06c-1.5,0-2.9-0.14-4.15-0.42c-2.76-0.6-4.92-2.68-5.64-5.42l-0.12-0.51l-0.02-0.11
			c-0.33-1.87,0.06-3.79,1.08-5.38c1.35-2.08,3.65-6.45,3.92-12.51c0.39-8.82,8.71-14.36,16.2-14.43h0.12
			c1.58,0,3.09,0.23,4.51,0.68l2.98,1.39c3.18,1.97,6.94,6.11,6.94,14.7C233.44,581.06,218.03,588.06,207.62,588.06z"/>
		<path class="st4" d="M229.15,566.04c0,13.98-16.96,19.12-24.76,17.41c-1.24-0.27-2.12-1.22-2.41-2.32
			c-0.02-0.09-0.04-0.18-0.06-0.27c-0.14-0.77,0-1.59,0.46-2.32c1.77-2.73,4.29-7.76,4.6-14.64c0.26-6.01,6.27-10.28,11.95-10.34
			c1.12-0.01,2.23,0.14,3.28,0.48v0.01C226.07,555.27,229.15,558.96,229.15,566.04z"/>
		<path class="st3" d="M220.36,566.2c-3.02,12.21-13.95,14.31-18.45,14.66c-0.14-0.77,0-1.59,0.46-2.32
			c1.77-2.73,4.29-7.76,4.6-14.64c0.26-6.01,6.27-10.28,11.95-10.34C220.84,555.31,222.17,558.9,220.36,566.2z"/>
		<path d="M719.09,843.46c-0.83,0-1.65-0.01-2.46-0.04c-14.63-0.37-23.67-4.12-28.66-7.21c-3.66-2.26-5.83-6.18-5.81-10.49
			c0.03-4.9,0.7-11.98,3.77-17.84c0.88-1.68,1.93-3.19,3.12-4.48c3.5-3.87,8.39-5.93,14.1-5.93c10.9,0,20.31,5.53,27.2,15.98
			c5.15,7.81,7.54,16.42,7.54,19.78c0,3.66-1.79,8.3-10.32,9.68C725.36,843.28,722.58,843.46,719.09,843.46z"/>
		<path class="st4" d="M733.61,833.24c0,3.08-2.2,4.71-6.71,5.44c-2.1,0.34-4.69,0.49-7.8,0.49c-0.78,0-1.54-0.01-2.3-0.04
			c-14.01-0.35-22.32-3.95-26.57-6.57c-2.36-1.46-3.79-4.03-3.78-6.82c0.02-4.13,0.55-10.66,3.28-15.86
			c0.67-1.29,1.49-2.5,2.47-3.57c2.46-2.72,5.97-4.54,10.94-4.54C725.53,801.77,733.61,828.75,733.61,833.24z"/>
		<path class="st3" d="M716.8,839.13c-14.01-0.35-22.32-3.95-26.57-6.57c-2.36-1.46-3.79-4.03-3.78-6.82
			c0.02-4.13,0.55-10.66,3.28-15.86C696.31,814.06,710.95,824.64,716.8,839.13z"/>
		<path class="st8" d="M733.61,833.24c0,3.08-2.2,4.71-6.71,5.44c-0.11-6.28-1.39-14.33-5.97-21.79
			c-9.4-15.33-28.72-10.59-28.72-10.59c2.46-2.72,5.97-4.54,10.94-4.54C725.53,801.77,733.61,828.75,733.61,833.24z"/>
		<path class="st19" d="M694.74,454.31c-5.31,14.74-10.1,37.4-11.51,68.01c-0.31,5.04-0.7,10-1.17,14.87c0,0,0,0,0,0.01
			c0,0.01,0,0.04-0.01,0.07c-0.23,2.47-0.49,4.91-0.77,7.34c-0.04,0.3-0.07,0.61-0.11,0.92c-0.13,1.12-0.26,2.24-0.4,3.35
			c-0.89,7.1-1.95,14-3.17,20.71l-1.15-10.16c-0.58-5.11-0.74-10.26-0.49-15.39l0.94-19.43c0-7.85,0.44-15.7,1.31-23.5l5.14-46.12
			L694.74,454.31z"/>
		<path class="st19" d="M683.41,513.02c0,0,3.98-28.11,26.4-45.97c21.89-17.44-16.4-22.49-16.4-22.49l-10.63,29.84L683.41,513.02z"
			/>
		<path d="M764.84,178.9c0,0,23.3,7.15,24.16,22.96l-9.26-2.24L764.84,178.9z"/>
		<g>
			<path d="M562.14,477.14c-19.97,0-37.34-0.54-53.08-1.66c-29.22-2.08-52.6-6.21-71.47-12.64c-4.48-1.52-8.79-3.21-12.82-5
				c-13.31-5.93-24.06-13.28-32.87-22.48c-5.23-5.46-9.81-11.67-13.59-18.43c-4.27-7.64-7.73-16.38-10.29-25.99
				c-0.72-2.7-1.39-5.54-1.98-8.44l-0.02-0.09c-0.12-0.59-0.23-1.18-0.34-1.78l-0.13-0.7c-1.13-5.96-2-12.39-2.59-19.11
				c-0.37-4.21-0.64-8.45-0.8-12.6c-0.56-14.5,0.14-28.41,2.06-41.34c0.04-0.28,0.21-1.34,0.21-1.34l0.07-0.47
				c0.08-0.51,0.16-1.03,0.24-1.53c4.18-24.99,13.03-46.75,26.31-64.68c10.87-14.66,22.45-23.7,30.43-28.76
				c0.28-1.39,0.6-2.82,0.95-4.37l0.1-0.49c0.05-0.21,0.09-0.43,0.14-0.64c0.53-2.34,1.11-4.73,1.73-7.1
				c1.44-5.56,2.97-10.64,4.69-15.53c1.9-5.39,3.86-10.28,5.97-14.97c1.08-2.41,2.13-4.6,3.21-6.7c3.65-7.12,7.85-13.83,12.47-19.94
				c3.43-4.47,7.15-8.67,11.07-12.5c1.71-1.67,3.34-3.17,4.98-4.59c4.02-3.41,8.41-6.54,13.05-9.32c8.68-5.19,18.05-9.03,27.87-11.4
				c5.24-1.27,10.78-2.18,16.47-2.7c2-0.19,4.01-0.33,5.98-0.42c1.94-0.09,3.87-0.13,5.75-0.13c5.86,0,11.54,0.43,16.88,1.29
				l0.36,0.06c7.77,1.26,15.03,3.37,21.58,6.25c1.22,0.49,2.42,1.1,3.59,1.69c0.33,0.17,1.19,0.6,1.19,0.6
				c0.12,0.06,0.24,0.12,0.36,0.18c0.25,0.12,0.48,0.24,0.71,0.37c0.33,0.18,0.65,0.37,0.98,0.56c0.29,0.17,0.58,0.34,0.87,0.5
				c0.33,0.19,0.61,0.36,0.9,0.52l0.46,0.27c0.4,0.23,0.79,0.46,1.17,0.71c0.35,0.23,1.16,0.76,1.16,0.76
				c1.23,0.79,2.47,1.6,3.65,2.51c0.23,0.17,0.47,0.35,0.72,0.53c0.52,0.38,1.06,0.77,1.59,1.2l2.21,1.82
				c0.07,0.06,0.13,0.11,0.18,0.16l0.08,0.07c1.35,1.15,2.69,2.39,4.07,3.76c8.2-9.51,26.75-24.29,63.54-25.87
				c1.2-0.05,2.39-0.08,3.56-0.08c4.02,0,7.94,0.3,11.65,0.9c8.89,1.43,16.95,4.61,23.96,9.44c3.65,2.52,7.08,5.54,10.2,8.97
				c0.7,0.77,1.27,1.42,1.8,2.06c10.35,12.42,14.89,27.56,16.73,36.02c1.98,0.52,3.94,1.1,5.84,1.73
				c19.32,6.37,28.1,16.41,31.72,22.1c6.56,2.53,20.71,9.35,22.59,21.67c1.33,1.32,2.42,2.7,3.51,4.12l0.07,0.08
				c0.25,0.33,0.49,0.65,0.71,0.98l0.07,0.1c0.22,0.32,0.39,0.59,0.56,0.86l0.16,0.26c0.14,0.24,0.28,0.47,0.41,0.71l0.16,0.3
				c0.12,0.23,0.24,0.46,0.35,0.69l0.15,0.3c0.11,0.23,0.22,0.47,0.32,0.71l0.11,0.25c0.12,0.29,0.23,0.57,0.34,0.85l0.05,0.13
				c0.12,0.31,0.23,0.64,0.33,0.96l0.03,0.11c0.09,0.3,0.17,0.56,0.25,0.83l0.08,0.31c0.06,0.21,0.11,0.42,0.16,0.62l0.08,0.35
				c0.04,0.19,0.08,0.37,0.12,0.55l0.07,0.38c0.03,0.18,0.06,0.35,0.09,0.52l0.06,0.38c0.03,0.17,0.12,0.86,0.12,0.86l0.05,0.5
				c0.02,0.21,0.06,0.7,0.06,0.7l0.03,0.39l0.03,0.77l0.02,0.91l0,0.45l-0.01,0.59l-0.01,0.27c-0.09,2.03-0.38,3.46-0.48,3.9
				c-0.43,4.15-2.15,12.1-8.76,20.08c-0.01,0.13-0.02,0.28-0.03,0.44l-0.11,1.32c-0.1,0.8-0.21,1.51-0.32,2.22l-0.06,0.4
				c-0.17,0.88-0.33,1.69-0.52,2.5l-0.03,0.15c-0.16,0.7-0.35,1.41-0.55,2.11c0,0-0.07,0.27-0.09,0.34
				c-0.93,3.26-2.19,6.47-3.75,9.53c-1.03,2.03-2.26,4.08-3.64,6.1c0,0-0.29,0.43-0.38,0.56c-0.44,0.63-0.89,1.26-1.36,1.87
				c-1.67,2.17-3.62,4.33-5.97,6.61l-0.27,0.26c-0.15,0.15-0.3,0.3-0.45,0.44c-4.57,4.18-9.96,7.8-16.04,10.77
				c-0.26,0.13-0.52,0.24-0.77,0.36c0,0-0.64,0.3-0.82,0.38c9.77,8.62,16.71,22.76,20.66,42.07c0.85,4.13,1.56,8.53,2.12,13.09
				c1.76,0.21,3.37,0.7,4.82,1.45c1.99,1.03,3.64,2.55,4.9,4.52c1.68,2.62,2.6,5.97,2.76,9.98c0.54,14.24-12.29,23.48-19.2,27.4
				c3.05,4.94,3.95,11.24,2.15,15.81c-1.07,2.75-2.89,5.11-5.56,7.23c-3.27,2.59-7.78,4.81-13.76,6.76
				c-1.33,2.33-2.83,4.65-4.46,6.9l-0.08,0.11c-2.6,3.58-5.59,7.06-8.88,10.34c-2.61,2.59-5.48,5.12-8.55,7.51
				c-16.59,12.93-48.19,28.84-104.5,31.27C602.49,476.64,581.36,477.14,562.14,477.14C562.15,477.14,562.15,477.14,562.14,477.14z"
				/>
			<path class="st7" d="M796.88,224.45L796.88,224.45c-0.4,3.98-2.06,11.88-8.76,19.81c-0.01,0.31-0.03,0.58-0.05,0.89
				c-0.03,0.44-0.07,0.88-0.12,1.3c-0.1,0.86-0.23,1.7-0.37,2.53c-0.31,1.67-0.68,3.31-1.15,4.92c-0.92,3.22-2.15,6.34-3.65,9.28
				c-1.5,2.95-3.27,5.72-5.24,8.32c-1.98,2.58-4.21,4.94-6.54,7.13c-4.74,4.33-10.09,7.78-15.69,10.52
				c-1.2,0.59-2.42,1.13-3.66,1.66c9.67,7.62,20.3,23.56,24.19,56.86c2.02,0.1,3.85,0.57,5.45,1.39c2.96,1.53,6.56,5.08,6.88,13.28
				c0.55,14.3-17.84,23.45-24.49,26.97c3.37,4.55,6.87,10.85,5.03,15.54c-1.62,4.15-4.35,8.34-17.6,12.57
				c-2.99,5.32-7.43,11.57-13.6,17.72c-16.08,15.99-47.09,34.76-110.64,37.49c-104.82,4.49-162.96-2.31-201.16-19.32
				c-20.84-9.29-34.61-20.79-44.57-38.63c-9.66-17.29-15.02-38.25-16.12-66.78c-3.39-88.18,40.07-121.87,59.15-133.81
				c0.41-2.03-0.55-7.16-0.08-9.18c1.73-7.6,3.79-15.13,6.39-22.47c2.58-7.35,5.55-14.57,9.1-21.5c3.55-6.92,7.67-13.55,12.34-19.73
				c4.72-6.15,10.01-11.84,15.85-16.86c11.74-9.96,25.71-16.89,40.32-20.42c7.3-1.77,14.74-2.74,22.19-3.07
				c7.45-0.34,14.94-0.04,22.34,1.13c7.38,1.17,14.68,3.17,21.59,6.21c1.75,0.7,3.41,1.63,5.11,2.45c0.85,0.41,1.65,0.93,2.48,1.38
				c0.81,0.48,1.65,0.92,2.44,1.45c1.59,1.05,3.21,2.03,4.71,3.2c0.76,0.57,1.55,1.1,2.28,1.7l2.21,1.81
				c1.85,1.58,3.62,3.26,5.32,5.02c7.84-9.69,26.04-24.96,63.51-26.56c20.95-0.9,37.78,6.09,50.01,20.78
				c10.37,12.44,14.8,27.54,16.62,36.27c25.77,6.49,35.41,19.9,38.44,25.75c3.15,1.35,6.18,2.97,9,5c1.29,0.96,2.56,1.95,3.71,3.1
				c1.17,1.12,2.27,2.33,3.2,3.68c1.15,1.65,2.13,3.5,2.69,5.46c2.68,1.91,4.95,4.04,6.77,6.42
				C799.35,213.8,796.96,224.1,796.88,224.45z"/>
			<path class="st6" d="M727.12,158.08l-39.58-3.76l-31.2,4.35l-19.17,4.56l-17.96,7.45l-18.42-13.27l-21.36-7.94l-21.94-2.1
				l-18.89,0.98l-13.71,2.6l-12.44,3.87l-9.54,4.35l-8.77,4.78l-3.28,2.22l-2.66,1.73l-2.48,1.87l-1.2,0.92
				c-0.43,0.36-0.88,0.7-1.31,1.07v0.02c-0.32,0.26-0.61,0.49-0.91,0.75c0.02-0.02,0.04-0.02,0.06-0.06
				c1.51-1.69,26.45-28.81,75.94-28.81c39,0,56.07,15.73,61.47,20.82c0,0,40.42-22.87,103.06-12.37c0.37,0.04,0.75,0.12,1.12,0.18
				L727.12,158.08z"/>
			<path class="st6" d="M618.16,158.23c-0.8-2.3-1.75-4.52-2.79-6.71l-0.06-0.9l-3.86-7.37l-6.74-9.16l-4.45-6.74l2.14-4.92
				c0.97,1.06,1.88,2.18,2.74,3.36C614.41,138.41,617.93,156.98,618.16,158.23z"/>
			<path class="st6" d="M749.94,295.15c-0.34,0.12-0.65,0.22-0.99,0.33c-50.66,17.01-80.89-5.39-82.23-6.41
				c2.74,1.28,5.57,2.34,8.42,3.36c2.87,1,5.76,1.89,8.7,2.63c5.85,1.53,11.83,2.52,17.83,2.71c3,0.14,5.98-0.08,9-0.33
				c1.49-0.14,3-0.22,4.49-0.39l4.49-0.57c5.94-0.88,11.88-1.95,17.64-3.68c2.91-0.85,5.77-1.83,8.59-2.95L749.94,295.15z"/>
			<path class="st6" d="M636.06,275.39c-0.28,0.65-0.56,1.28-0.86,1.91c-22.44,48.27-98.4,34.76-98.4,34.76
				c8.49-0.06,17.01-0.49,25.44-1.47c8.42-1,16.8-2.5,24.88-4.97c4.08-1.18,8.03-2.69,11.86-4.4c3.86-1.73,7.56-3.76,10.99-6.15
				c3.45-2.38,6.63-5.15,9.33-8.3c1.36-1.57,2.55-3.26,3.59-5.03c0.35-0.59,0.67-1.22,0.97-1.83c-0.48,0.08-0.95,0.18-1.45,0.26
				L636.06,275.39z"/>
			<path class="st13" d="M763.94,388.36c0,0,22.35-9.18,21.7-25.91c-0.66-17.23-17.29-14.77-35.54-1.03
				c-12.2,9.19-54.53,13.81-85.87,15.15c-119.81,5.14-107.51-43.19-161.31-40.88c-35.44,1.52-79.52,92.65,182.21,88.69
				c55.17-2.36,79.52-9.64,83.75-20.43C770.64,399.47,768.67,391.98,763.94,388.36z"/>
			<path class="st4" d="M794.88,221.97c0.37,9.66-7.76,39.84-68.16,42.43c-3.44,0.15-6.75,0.18-9.92,0.12
				c-52.41-1.01-67.97-28.9-67.97-28.9s29.62-31.69,67.79-35.42c0.01,0,0.02,0,0.02,0c1.36-0.14,2.73-0.23,4.1-0.29
				C779.92,197.37,794.51,212.29,794.88,221.97z"/>
			<path class="st4" d="M660.21,227.86c0.37,9.67-7.76,39.85-68.15,42.44c-3.43,0.15-6.72,0.18-9.88,0.12c0,0,0,0-0.01,0
				c-52.44-1-68.01-28.9-68.01-28.9s19.9-21.29,48.11-31.02c7.43-2.57,15.44-4.33,23.81-4.69
				C645.26,203.27,659.84,218.2,660.21,227.86z"/>
			<path class="st21" d="M582.16,270.42c-52.44-1-68.01-28.9-68.01-28.9s19.9-21.29,48.11-31.02c2.69,0.54,4.3,0.96,4.3,0.96
				s-26.52,15.58-36.98,30.93C529.58,242.39,554.11,269.04,582.16,270.42z"/>
			<path class="st21" d="M701.51,261.11c4.71,1.72,9.83,2.95,15.29,3.41c-36.08-0.69-54.7-14.13-62.8-22.44
				c0.41-0.68,0.78-1.35,1.13-2.01c1.83-3.58,2.72-7.05,2.93-10.04c0.06-0.72,0.06-1.41,0.04-2.07c-0.01-0.22-0.03-0.48-0.07-0.77
				c11.63-9.68,33.22-24.51,58.59-26.99c-1.59,0.36-7.96,1.94-16,5.55c-11.07,4.98-25.33,13.84-34.6,28.75
				C666.02,234.49,679.44,253.08,701.51,261.11z"/>
			<path d="M771.2,278.7c2.32-2.2,4.56-4.56,6.54-7.14c1.97-2.6,3.74-5.37,5.24-8.32c1.51-2.95,3.03-5.57,3.93-8.79
				c0.49-1.62,0.83-3.15,1.15-4.83c0.13-0.84,0.42-1.51,0.54-2.38c0.04-0.41-0.27-1.17-0.23-1.61c0.02-0.31,1.52-1.07,0.64-1.38
				c6.71-7.92,7.97-15.4,8.36-19.39c0.04-0.14,0.43-1.92,0.43-4.75c0-3.86-0.45-9.74-4.29-14.73c-1.82-2.38-3.3-4.66-5.98-6.57
				c-0.56-1.97-0.46-3.34-1.61-4.97c-0.94-1.36-2.3-3.76-3.47-4.89c-1.16-1.14-3.28-2.71-4.57-3.67c-2.81-2.02-7.17-4.05-10.32-5.41
				c-3.04-5.84-12.28-18.26-38.04-24.74c-1.82-8.73-6.35-23.42-16.71-35.86c-12.23-14.69-29.49-22.04-50.43-21.15
				c-37.47,1.61-55.92,16.22-63.76,25.9c-1.7-1.75-2.12-1.95-3.98-3.53l-2.22-1.92c-0.74-0.61-1.61-1.19-2.38-1.76
				c-1.51-1.16-2.08-1.78-3.68-2.84c-0.78-0.51-2.02-1.6-2.84-2.07c-0.82-0.45-2.28-1.04-3.14-1.46c-1.7-0.81-4-2.36-5.75-3.07
				c-6.89-3.05-13.93-4.57-21.3-5.75c-7.4-1.18-15.38-1.56-22.84-1.23c-7.45,0.35-14.84,1.3-22.15,3.07
				c-14.61,3.54-28.35,9.67-40.08,19.62c-5.83,5.01-11.86,11.31-16.59,17.47c-4.68,6.17-8.72,12.49-12.27,19.41
				c-3.56,6.95-6.63,14.53-9.22,21.86c-2.59,7.35-4.73,14.51-6.44,22.1c-0.47,2.03-1.66,4.95-2.07,6.97
				c-19.08,11.94-61.47,49.05-58.08,137.24c1.1,28.51,6.32,50.77,15.99,68.06c9.96,17.85,24.94,31.03,45.78,40.31
				c38.2,17.01,96.52,22.12,201.35,17.64c63.53-2.73,96.51-21.12,112.58-37.12c6.17-6.14,10.38-13.08,13.36-18.4
				c13.26-4.23,17.47-9.22,19.08-13.37c1.85-4.7,0.76-11.33-2.61-15.89c6.64-3.52,20.47-12.78,19.92-27.08
				c-0.31-8.2-4.8-11.7-7.75-13.24c-1.6-0.82-3.43-1.29-5.46-1.39c-3.88-33.31-14.28-49.23-23.94-56.84
				c1.23-0.54,2.39-1.06,3.6-1.65C761.1,286.45,766.47,283.02,771.2,278.7z M792.55,220.47c0.09,0.39,0.15,0.74,0.19,1.06
				c0.02,0.2,0.02,0.38,0.04,0.54c0.49,12.6-12.16,36.79-62.88,39.93c10.39-4.54,17.82-14.94,18.73-27.15
				c-7.04-2.09-12.29-8.75-12.61-16.85c-0.14-3.6,0.73-7.02,2.33-9.93c-2.9-2.68-6.28-4.78-9.99-6.15
				c22.24-0.44,39.28,1.75,50.72,6.52C789.05,212.59,791.85,217.52,792.55,220.47z M725.24,232.21c-3.86,0.18-7.12-3-7.29-7.08
				c-0.14-4.07,2.85-7.51,6.72-7.67c3.86-0.17,7.12,2.99,7.29,7.08C732.11,228.61,729.11,232.05,725.24,232.21z M788.64,208.35
				c0.11,0.16,0.24,0.31,0.36,0.47c-9.06-6.74-28.18-12.87-68.34-11.14c-25.07,1.08-46.7,14.21-59.87,24.42
				c-1.17-2.34-3.18-4.97-6.67-7.51c11.27-8.45,33.08-20.65,66.33-22.07C765.08,190.62,782.16,200.08,788.64,208.35z M662.32,227.77
				c-0.02-0.34-0.04-0.71-0.11-1.12c9.02-7.1,22.52-15.99,38.41-20.9c0.21-0.06,0.39-0.12,0.59-0.18
				c-8.48,6.04-13.88,16.44-13.43,28c0.48,12.58,7.77,23.2,17.95,28.04c-1.44-0.14-2.85-0.31-4.23-0.49
				c-22.29-3.1-35.82-11.52-43.25-18.07C662.47,235.08,662.34,228.43,662.32,227.77z M704.81,234.75c-2.85,0.11-5.27-2.22-5.39-5.25
				c-0.11-3.03,2.1-5.56,4.98-5.7c2.87-0.12,5.26,2.24,5.4,5.26C709.91,232.07,707.68,234.62,704.81,234.75z M706.42,213.76
				c-0.11-3,2.11-5.56,4.98-5.68c2.87-0.12,5.27,2.22,5.4,5.25c0.11,3.01-2.12,5.56-4.99,5.68
				C708.96,219.15,706.54,216.79,706.42,213.76z M553.12,239.47c0.48,12.6,7.76,23.2,17.97,28.06
				c-35.56-3.68-50.48-20.67-54.17-25.72c5.01-4.94,24.38-22.72,49.62-30.32C558.07,217.52,552.67,227.9,553.12,239.47z
				 M570.14,240.65c-2.85,0.11-5.27-2.22-5.39-5.25c-0.13-3.03,2.1-5.56,4.97-5.71c2.88-0.11,5.27,2.25,5.39,5.27
				C575.24,237.97,573.01,240.53,570.14,240.65z M571.76,219.68c-0.13-3.03,2.11-5.59,4.96-5.7c2.87-0.12,5.29,2.22,5.4,5.25
				c0.13,3-2.1,5.56-4.97,5.68C574.27,225.05,571.87,222.69,571.76,219.68z M521.19,232.01c-6.11,5.17-13.8,7.8-21.62,7.3
				c-3.84-0.24-8-0.85-11.9-2.09c8.64-2.91,24.85-9.63,48.11-24.62c31.87-20.56,84.59-22.08,117.59-3.95
				c-1.49,1.04-2.83,2.05-4.04,3c-10.51-5.39-29.43-9.53-63.33-8.08C557.45,204.8,533.39,221.65,521.19,232.01z M590.01,223.36
				c3.86-0.18,7.12,2.99,7.27,7.08c0.16,4.07-2.83,7.51-6.7,7.67c-3.86,0.18-7.12-3.01-7.29-7.08
				C583.14,226.96,586.14,223.52,590.01,223.36z M613.96,240.74c-7.04-2.08-12.31-8.75-12.61-16.85c-0.15-3.6,0.71-7.02,2.31-9.93
				c-2.88-2.68-6.26-4.78-9.96-6.16c22.24-0.41,39.28,1.75,50.72,6.53c8.4,3.5,11.7,7.55,12.95,10.52c0.37,0.89,0.58,1.67,0.67,2.32
				c0.04,0.3,0.06,0.55,0.07,0.79c0.02,0.65,0,1.36-0.06,2.07c-0.2,2.99-1.08,6.45-2.92,10.05c-0.34,0.65-0.71,1.32-1.12,2
				c-0.39,0.63-0.8,1.28-1.24,1.91c-7.62,10.89-24.51,21.87-57.56,23.93C605.6,263.38,613.03,252.97,613.96,240.74z M761.95,181.73
				c0.89,0.26,1.79,0.53,2.67,0.83c3.83,1.25,7.54,2.89,11.01,5.03c2.6,1.67,5.06,3.64,7.06,6.1c1.14,1.41,2.14,3,2.83,4.73
				c-12.67-8.79-34.53-12.57-65.27-11.24c-28.56,1.22-49.07,10.14-61.97,18.2c-1.87-1.12-3.78-2.14-5.78-3.13l1.62-2.32l0.16-0.26
				c0.09-0.11,0.17-0.24,0.28-0.37c0.23-0.26,0.43-0.53,0.66-0.77c0.5-0.51,0.94-1.04,1.52-1.54c0.54-0.47,1.07-0.98,1.66-1.42
				c0.59-0.43,1.15-0.92,1.77-1.32l1.88-1.24c0.62-0.44,1.31-0.75,1.96-1.12c0.65-0.37,1.3-0.74,1.97-1.1l2.05-0.97
				c0.69-0.31,1.36-0.67,2.07-0.94l2.11-0.85l2.12-0.87c0.71-0.25,1.44-0.49,2.16-0.72c1.46-0.47,2.89-1.02,4.36-1.42l4.43-1.2
				c1.47-0.44,3-0.69,4.48-1.02c1.51-0.31,3-0.65,4.51-0.94c3.04-0.47,6.06-1.02,9.11-1.44c3.05-0.35,6.11-0.79,9.18-1.08l9.22-0.73
				c6.14-0.37,12.31-0.49,18.44-0.19c3.08,0.14,6.13,0.43,9.18,0.81c3.03,0.41,6.07,0.92,9.07,1.59
				C759.64,181.12,760.8,181.42,761.95,181.73z M760.18,178.86c-0.37-0.12-0.77-0.22-1.15-0.34c-3.04-0.87-6.13-1.53-9.23-2.08
				c-3.1-0.51-6.24-0.94-9.36-1.2c-6.26-0.59-12.54-0.73-18.8-0.51c-12.5,0.41-25.03,1.52-37.39,4.43l-4.6,1.16
				c-1.55,0.39-3.05,0.92-4.58,1.39c-0.77,0.24-1.53,0.46-2.27,0.73l-2.25,0.84l-2.25,0.87c-0.77,0.29-1.47,0.67-2.22,1l-2.22,1.02
				c-0.73,0.38-1.44,0.79-2.15,1.18c-0.71,0.41-1.45,0.75-2.14,1.22l-2.09,1.35c-0.71,0.46-1.36,1.01-2.05,1.49
				c-0.67,0.49-1.3,1.09-1.96,1.65c-0.28,0.24-0.54,0.49-0.8,0.77c-1.45-2.74-3.4-5.11-5.56-7.08c-3.19-2.91-6.82-5.01-10.54-6.63
				c-2.93-1.27-5.91-2.28-8.93-3.08c-0.91-1.3-1.84-2.54-2.83-3.74c-0.3-0.37-0.61-0.72-0.94-1.08c7.86-5.25,25.82-13,64.17-14.65
				C729.08,155.83,751.65,166.83,760.18,178.86z M776.4,353.08c0.99,0.12,1.88,0.38,2.67,0.79c2.51,1.3,3.87,4.23,4.04,8.69
				c0.26,6.9-4.18,12.49-8.94,16.44c-1.83,1.51-3.78,2.83-5.85,3.97c-2.35,1.26-4.82,2.28-7.4,3.03c-1.32,0.39-2.68,0.71-4.04,0.97
				c-91.02,16.56-154.69,8.42-192.35-1.49c-34.22-9.01-53.62-21-59.6-25.13c-1.03-0.71-2.4-0.63-3.26,0.25
				c-1.17,1.24-0.95,3.23,0.37,4.17c6.26,4.37,25.78,16.52,60.87,25.8c26.1,6.9,64.49,12.98,115.58,10.8
				c23.62-1.02,49.95-3.82,79.05-9.09c0.04-0.01,0.09-0.01,0.13-0.01c1.88-0.31,3.73,0.09,5.27,1.02c2.61,1.55,4.34,4.54,3.99,7.96
				c-0.06,0.63-0.19,1.18-0.37,1.69c-1.07,2.72-4.1,5.69-10.9,8.48c-1.94,0.81-4.19,1.6-6.79,2.36c-12.18,3.58-32,6.59-63.76,7.95
				c-151.18,2.28-205.84-27.96-206.61-57.03c-0.37-14.21,12.89-25.81,24.53-26.33c20.81-0.89,31.13,5.92,44.2,14.56
				c19.87,13.11,44.59,29.45,117.12,26.34c11.75-0.51,71.26-3.63,87.22-15.65c7.37-5.56,14.31-9.08,19.76-10.21
				C773.22,352.98,774.93,352.88,776.4,353.08z M745.86,289.86c-2.81,1.12-5.68,2.1-8.58,2.95c-5.76,1.73-11.7,2.79-17.64,3.68
				l-4.49,0.57c-1.49,0.18-3,0.26-4.48,0.39c-3.02,0.26-6,0.47-9,0.34c-6-0.2-11.98-1.18-17.82-2.72c-2.95-0.74-5.84-1.63-8.7-2.63
				c-2.85-1.02-5.68-2.09-8.42-3.36c2.7,1.37,5.5,2.55,8.31,3.68c2.83,1.12,5.71,2.1,8.64,2.97c5.83,1.75,11.84,2.97,17.94,3.38
				c3.03,0.26,6.13,0.18,9.15,0.02c1.5-0.08,3.03-0.1,4.54-0.24l4.54-0.41c6.06-0.65,12.11-1.52,18.05-3.09
				c2.65-0.64,5.29-1.43,7.87-2.32c1.04,0.69,2.11,1.47,3.19,2.42c8.62,7.24,18.16,22.32,21.81,52.56
				c-6.32,1.22-13.93,5.01-22.13,11.19c-11.47,8.65-52.69,13.29-84.49,14.67c-70.97,3.03-94.96-12.8-114.23-25.55
				c-13.27-8.75-24.72-16.3-47.09-15.33c-14.25,0.61-29.84,14.33-29.39,31.8c0.26,9.98,6.41,28.88,44.65,43.26
				c36.49,13.7,92.73,20.09,167.17,18.98c28.13-1.2,47-3.68,59.72-6.73c-2.55,3.78-5.81,7.83-9.94,11.92
				c-15.48,15.22-46.86,33.92-108.52,36.58c-198.45,8.5-253.88-17.48-257.84-120.87c-3.08-79.68,33.08-116,52.79-129.76
				c-1.88,10.89-3.08,21.91-3.73,32.94c-0.43,7.75-0.62,15.54-0.5,23.28c0.11,7.77,0.48,15.51,1.28,23.22
				c-0.46-15.5,0.17-30.96,1.68-46.29c1.49-15.36,3.96-30.58,7.71-45.4c3.82-14.78,8.83-29.25,15.87-42.55
				c3.53-6.62,7.47-13.02,11.99-18.9c4.54-5.86,9.61-11.24,15.16-15.96c11.12-9.52,24.31-16.12,38.26-19.65
				c6.97-1.82,14.12-2.87,21.33-3.34c7.19-0.41,14.42-0.31,21.55,0.59c7.15,0.9,14.18,2.69,20.9,5.33c1.72,0.61,3.33,1.45,4.99,2.18
				c0.84,0.33,1.62,0.82,2.42,1.24c0.82,0.41,1.65,0.81,2.42,1.28c1.54,0.96,3.15,1.82,4.63,2.9c0.77,0.51,1.53,1.01,2.27,1.56
				l2.2,1.67c5.81,4.51,11.01,9.93,15.48,15.99c2.24,3.03,4.27,6.24,6.07,9.58c0.67,1.2,1.31,2.44,1.92,3.68
				c1.04,2.19,1.99,4.41,2.79,6.71c-2.07-7.43-5.49-14.41-9.66-20.83c-1.88-2.9-3.99-5.68-6.22-8.31c0.82-1.04,1.77-2.15,2.87-3.3
				c8.4-8.83,25.35-20.41,57.31-21.79c41.11-1.75,55.45,29.35,60.37,48.09c0.22,0.83,0.41,1.63,0.59,2.4
				c-9.72-1.9-21.44-2.87-35.58-2.26c-40.92,1.75-59.69,10.54-67.59,16.13c-0.99-0.97-2-1.91-3.04-2.81
				c-2.72-2.36-5.6-4.51-8.58-6.43c-3.02-1.89-6.14-3.56-9.33-5.04c-12.83-5.87-26.79-8.16-40.49-8.28c-3.45-0.04-6.9,0.1-10.3,0.3
				c-3.45,0.21-6.87,0.63-10.26,1.14c-3.39,0.57-6.76,1.2-10.11,2.05c-3.33,0.84-6.63,1.81-9.89,2.93
				c-6.5,2.26-12.83,5.05-18.89,8.41c-5.18,2.93-10.19,6.19-14.83,10.05l-0.54,0.41l-0.77,0.64c-0.15,0.12-0.28,0.24-0.43,0.36
				c0.14-0.1,0.28-0.21,0.43-0.34c5.09-4.13,10.69-7.53,16.41-10.52c6.12-3.16,12.48-5.72,18.98-7.75c3.26-1,6.56-1.85,9.87-2.57
				c3.32-0.71,6.65-1.26,10.01-1.69c3.37-0.39,6.74-0.69,10.11-0.79c3.39-0.08,6.76-0.12,10.13,0.04
				c13.47,0.55,26.94,3.27,39.01,9.26c3,1.52,5.92,3.18,8.71,5.07c2.78,1.91,5.42,4.01,7.9,6.29c0.34,0.31,0.67,0.63,1.01,0.97
				c1.77,1.69,3.45,3.5,4.99,5.41c-2.29-0.39-4.58-0.71-6.87-0.94c-3.93-0.36-7.84-0.57-11.75-0.53c-3.91,0.04-7.82,0.19-11.72,0.59
				c-7.77,0.69-15.48,2.07-23.06,4.05c-3.76,1.02-7.52,2.15-11.22,3.53c-3.68,1.32-7.32,2.85-10.88,4.54l-2.66,1.32l-2.59,1.37
				c-1.72,0.91-3.43,1.83-5.14,2.78c-3.43,1.87-6.84,3.78-10.22,5.68c-13.55,7.75-26.91,15.81-40.03,24.3
				c13.71-7.37,27.42-14.73,41.24-21.8c3.45-1.77,6.91-3.53,10.39-5.24c1.73-0.87,3.46-1.71,5.21-2.55
				c1.73-0.84,3.48-1.65,5.21-2.44c3.48-1.53,7.05-2.93,10.67-4.09c3.6-1.22,7.29-2.2,10.97-3.08c14.01-3.33,28.52-4.61,42.76-3.46
				c0.79,0.06,1.55,0.11,2.33,0.19c3.73,0.41,7.43,1.02,11.08,1.85c0.21,0.06,0.43,0.09,0.64,0.17c1.79,0.44,3.54,0.93,5.27,1.52
				c1.58,0.53,3.13,1.14,4.66,1.81c3.35,1.52,6.54,3.36,9.18,5.76c2.66,2.38,4.73,5.31,5.77,8.63l0.52,1.7
				c-34.57-15.85-85.52-13.39-116.99,6.92c-34.6,22.3-53.46,25.92-53.64,25.94l-6.87,1.22l6.02,3.73c1.56,0.97,3.22,1.77,4.94,2.44
				l0.31,0.14c8.23,3.2,17.71,3.52,23.93,3.24h0.08c3.33-0.14,6.55,1.2,8.88,3.73c8.42,9.26,30.06,25.98,75.36,24.05
				c33.1-1.44,50.59-10.89,59.84-20.75c0.49,0.91,0.84,1.83,1.1,2.75c0.46,1.77,0.54,3.56,0,5.25c-0.5,1.67-1.51,3.27-2.83,4.68
				c-0.72,0.67-1.39,1.37-2.22,1.95c-0.41,0.29-0.78,0.63-1.21,0.9l-1.29,0.83c-3.48,2.14-7.41,3.68-11.42,4.95
				c-2.01,0.69-4.06,1.18-6.11,1.72c-2.07,0.49-4.13,0.96-6.22,1.37c-8.36,1.61-16.86,2.57-25.38,3.25
				c-8.55,0.69-17.07,1-25.59,0.53c-8.52-0.44-17.01-1.57-25.36-3.48c-6.69-1.52-13.31-3.05-19.71-5.64l-14.46-6.34
				c3.03,1.8,6.13,3.45,9.27,4.99c7.86,3.76,16.06,6.79,24.48,8.95c8.4,2.15,16.99,3.52,25.61,4.19c8.64,0.69,17.34,0.59,25.95,0.14
				c8.62-0.47,17.24-1.22,25.83-2.63c0.5-0.08,0.97-0.18,1.45-0.26c-0.3,0.61-0.62,1.24-0.97,1.83c-1.04,1.77-2.23,3.45-3.59,5.03
				c-2.7,3.15-5.89,5.92-9.33,8.3c-3.43,2.4-7.13,4.42-10.99,6.15c-3.84,1.71-7.79,3.23-11.87,4.41
				c-8.08,2.47-16.47,3.97-24.88,4.97c-8.44,0.99-16.95,1.42-25.45,1.48c8.5,0.37,17.03,0.41,25.56-0.14
				c8.51-0.57,17.04-1.63,25.41-3.71c4.21-0.99,8.35-2.32,12.41-3.9c4.06-1.57,8.05-3.5,11.82-5.84c3.78-2.36,7.38-5.15,10.54-8.52
				c1.59-1.67,3.05-3.5,4.34-5.49c0.65-1,1.24-2.04,1.81-3.14c0.28-0.55,0.54-1.1,0.78-1.7c0.11-0.29,0.22-0.59,0.34-0.9
				c0,0,0.01-0.02,0.01-0.04c1.81-0.43,3.6-0.84,5.39-1.39c0.02,0,0.04-0.02,0.06-0.02c4.23-1.22,8.45-2.73,12.46-5.05l1.51-0.91
				c0.49-0.29,0.95-0.69,1.45-1.02c0.97-0.64,1.87-1.53,2.76-2.34c1.75-1.77,3.29-3.97,4.15-6.59c0.92-2.63,0.86-5.56,0.24-8.18
				c-0.34-1.3-0.78-2.54-1.36-3.72c-0.28-0.57-0.59-1.14-0.93-1.69c-0.04-0.06-0.08-0.12-0.11-0.18c0.15-0.21,0.31-0.44,0.47-0.65
				c10.66,9.3,32.09,21.34,70.91,19.66c28.63-1.22,45.6-8.45,55.64-16.77c-0.17,0.91-0.36,1.81-0.58,2.68
				c-0.72,2.93-1.75,5.78-3.02,8.51c-1.28,2.74-2.81,5.33-4.54,7.79c-1.75,2.44-3.73,4.7-5.83,6.82c-4.31,4.21-9.24,7.67-14.53,10.5
				C751.31,287.54,748.62,288.78,745.86,289.86z"/>
		</g>
	</g>
</g>
</svg>
