<?xml version="1.0" standalone="no"?>
<!DOCTYPE svg PUBLIC "-//W3C//DTD SVG 20010904//EN"
 "http://www.w3.org/TR/2001/REC-SVG-20010904/DTD/svg10.dtd">
<svg version="1.0" xmlns="http://www.w3.org/2000/svg"
 width="358.000000pt" height="358.000000pt" viewBox="0 0 358.000000 358.000000"
 preserveAspectRatio="xMidYMid meet">

<g transform="translate(0.000000,358.000000) scale(0.100000,-0.100000)"
fill="#000000" stroke="none">
<path d="M1590 3569 c-358 -41 -717 -201 -990 -443 -258 -229 -455 -549 -540
-880 -25 -98 -33 -144 -55 -310 l-6 -39 283 6 c319 8 393 18 505 71 93 45 154
101 186 174 14 31 76 259 137 506 61 247 117 464 125 482 22 53 98 59 129 11
13 -19 63 -296 166 -910 33 -197 48 -229 131 -271 113 -56 251 -16 300 87 12
27 44 187 85 432 119 705 109 657 134 677 12 10 35 18 50 18 62 0 63 0 191
-515 66 -264 129 -500 141 -525 32 -65 96 -123 179 -163 127 -61 194 -70 536
-71 l301 -2 -4 31 c-44 364 -125 592 -303 856 -134 200 -283 348 -486 484
-351 236 -779 341 -1195 294z"/>
<path d="M4 1654 c23 -175 31 -222 56 -320 86 -332 288 -661 545 -885 616
-539 1505 -597 2180 -144 203 136 352 284 486 484 119 177 199 352 249 545 25
97 33 146 56 319 l4 39 -312 -5 c-348 -6 -402 -13 -524 -71 -90 -42 -146 -93
-179 -159 -14 -30 -76 -258 -144 -530 -66 -263 -125 -485 -131 -492 -31 -37
-110 -23 -129 23 -6 15 -40 203 -76 417 -120 710 -110 667 -158 712 -39 38
-62 50 -118 62 -92 21 -201 -30 -239 -112 -11 -23 -28 -98 -39 -167 -57 -366
-154 -908 -167 -927 -32 -49 -115 -36 -133 21 -6 17 -62 236 -124 486 -63 250
-124 476 -137 503 -28 60 -104 128 -185 167 -108 52 -172 60 -493 67 l-293 6
5 -39z"/>
</g>
</svg>
