<svg width="16" height="16" viewBox="0 0 16 16" fill="none" xmlns="http://www.w3.org/2000/svg">
<g clip-path="url(#clip0_13659_1492)">
<rect x="0.15" y="0.15" width="15.7" height="15.7" rx="7.85" fill="url(#paint0_linear_13659_1492)"/>
<rect x="0.15" y="0.15" width="15.7" height="15.7" rx="7.85" stroke="url(#paint1_linear_13659_1492)" stroke-width="0.3"/>
<path fill-rule="evenodd" clip-rule="evenodd" d="M11.7682 4.66757L11.2969 11.5989C11.2934 11.6024 11.2899 11.6059 11.2863 11.6093C11.2648 11.7737 11.2053 11.9091 11.105 12.0094C10.651 12.4633 9.47997 12.0801 8.14549 11.138L8.47891 10.8046C8.81715 11.0395 9.14096 11.2343 9.43974 11.3846C9.84283 11.5873 10.1763 11.6966 10.4238 11.7269C10.6784 11.758 10.759 11.6986 10.7766 11.681C10.7943 11.6634 10.8537 11.5828 10.8225 11.3282C10.7922 11.0807 10.6829 10.7472 10.4802 10.3441C10.1004 9.58863 9.43534 8.67318 8.55891 7.76915L4.53026 11.798L4.60739 11.0641L8.23055 7.44077C7.32657 6.56434 6.41119 5.89932 5.6558 5.51943C5.25271 5.31671 4.9192 5.20742 4.6717 5.17714C4.4171 5.146 4.33653 5.2054 4.31891 5.22302C4.30128 5.24064 4.24189 5.32122 4.27303 5.57583C4.30331 5.82334 4.41259 6.15686 4.6153 6.55997C4.76556 6.85876 4.96042 7.18259 5.19532 7.52084L4.8619 7.85427C3.91988 6.51974 3.5366 5.34861 3.99055 4.89465C4.09096 4.79423 4.22645 4.73478 4.39105 4.71328C4.39433 4.70985 4.39764 4.70645 4.40099 4.7031L11.3324 4.23175L11.8 4.19995L11.7682 4.66757ZM8.80461 4.86911L10.9479 4.72336L9.93805 5.73321C9.53055 5.34539 9.13266 5.06506 8.80461 4.86911ZM7.90124 4.93054L5.80147 5.07333C6.62326 5.47497 7.60392 6.18558 8.55895 7.11236L9.6096 6.06167C9.16964 5.64429 8.74312 5.36113 8.41732 5.17916C8.23653 5.07818 8.08705 5.00853 7.98395 4.96451C7.95166 4.95072 7.92393 4.93946 7.90124 4.93054ZM9.9352 6.39281L8.88731 7.44074C9.81433 8.39607 10.5251 9.37706 10.9266 10.199L11.074 8.03199C11.064 8.01055 11.0516 7.98459 11.0367 7.95445C10.9875 7.85526 10.9111 7.71106 10.8035 7.53507C10.6155 7.22741 10.3328 6.82329 9.9352 6.39281ZM10.2638 6.06422C10.6479 6.47846 10.9317 6.87093 11.1315 7.18625L11.2767 5.05129L10.2638 6.06422ZM6.47611 7.33457L4.92444 8.8863L4.84731 9.62018L6.91841 7.549L6.47611 7.33457ZM8.45075 9.0814L6.38222 11.15L7.11606 11.0729L8.69537 9.49352L8.45075 9.0814Z" fill="url(#paint2_linear_13659_1492)"/>
</g>
<defs>
<linearGradient id="paint0_linear_13659_1492" x1="8" y1="0" x2="8" y2="16" gradientUnits="userSpaceOnUse">
<stop stop-color="#373535"/>
<stop offset="1" stop-color="#131212"/>
</linearGradient>
<linearGradient id="paint1_linear_13659_1492" x1="0" y1="0" x2="16" y2="16" gradientUnits="userSpaceOnUse">
<stop stop-color="#FFB0AB"/>
<stop offset="0.463542" stop-color="#FF6D63"/>
<stop offset="1" stop-color="#FF4337"/>
</linearGradient>
<linearGradient id="paint2_linear_13659_1492" x1="3.79999" y1="4.19995" x2="11.8" y2="12.2" gradientUnits="userSpaceOnUse">
<stop stop-color="#FFB0AB"/>
<stop offset="0.463542" stop-color="#FF6D63"/>
<stop offset="1" stop-color="#FF4337"/>
</linearGradient>
<clipPath id="clip0_13659_1492">
<rect width="16" height="16" rx="8" fill="white"/>
</clipPath>
</defs>
</svg>
