<svg xmlns="http://www.w3.org/2000/svg" xmlns:xlink="http://www.w3.org/1999/xlink" viewBox="0 0 40.7 44.93"><defs><style>.cls-1{fill:url(#未命名的渐变);}.cls-2{fill:url(#未命名的渐变_2);}.cls-3{fill:#fff;}.cls-4{fill:#0021db;}.cls-10,.cls-100,.cls-101,.cls-102,.cls-103,.cls-104,.cls-105,.cls-106,.cls-107,.cls-108,.cls-109,.cls-11,.cls-110,.cls-111,.cls-112,.cls-113,.cls-114,.cls-115,.cls-116,.cls-117,.cls-12,.cls-13,.cls-14,.cls-15,.cls-16,.cls-17,.cls-18,.cls-19,.cls-20,.cls-21,.cls-22,.cls-23,.cls-24,.cls-25,.cls-26,.cls-27,.cls-28,.cls-29,.cls-30,.cls-31,.cls-32,.cls-33,.cls-34,.cls-35,.cls-36,.cls-37,.cls-38,.cls-39,.cls-4,.cls-40,.cls-41,.cls-42,.cls-43,.cls-44,.cls-45,.cls-46,.cls-47,.cls-48,.cls-49,.cls-5,.cls-50,.cls-51,.cls-52,.cls-53,.cls-54,.cls-55,.cls-56,.cls-57,.cls-58,.cls-59,.cls-6,.cls-60,.cls-61,.cls-62,.cls-63,.cls-64,.cls-65,.cls-66,.cls-67,.cls-68,.cls-69,.cls-7,.cls-70,.cls-71,.cls-72,.cls-73,.cls-74,.cls-75,.cls-76,.cls-77,.cls-78,.cls-79,.cls-8,.cls-80,.cls-81,.cls-82,.cls-83,.cls-84,.cls-85,.cls-86,.cls-87,.cls-88,.cls-89,.cls-9,.cls-90,.cls-91,.cls-92,.cls-93,.cls-94,.cls-95,.cls-96,.cls-97,.cls-98,.cls-99{opacity:0.8;isolation:isolate;}.cls-5{fill:#0022db;}.cls-6{fill:#0023db;}.cls-7{fill:#0023dc;}.cls-8{fill:#0024dc;}.cls-9{fill:#0025dc;}.cls-10{fill:#0026dc;}.cls-11{fill:#0027dc;}.cls-12{fill:#0027dd;}.cls-13{fill:#0028dd;}.cls-14{fill:#0029dd;}.cls-15{fill:#002add;}.cls-16{fill:#002bde;}.cls-17{fill:#002cde;}.cls-18{fill:#002dde;}.cls-19{fill:#002ede;}.cls-20{fill:#002fde;}.cls-21{fill:#0030df;}.cls-22{fill:#0031df;}.cls-23{fill:#0032df;}.cls-24{fill:#0033df;}.cls-25{fill:#0034e0;}.cls-26{fill:#0035e0;}.cls-27{fill:#0036e0;}.cls-28{fill:#0037e1;}.cls-29{fill:#0039e1;}.cls-30{fill:#003ae1;}.cls-31{fill:#003be1;}.cls-32{fill:#003ce2;}.cls-33{fill:#003ee2;}.cls-34{fill:#003fe2;}.cls-35{fill:#0040e3;}.cls-36{fill:#0042e3;}.cls-37{fill:#0043e3;}.cls-38{fill:#0045e4;}.cls-39{fill:#0046e4;}.cls-40{fill:#0047e5;}.cls-41{fill:#0049e5;}.cls-42{fill:#004ae5;}.cls-43{fill:#004ce6;}.cls-44{fill:#004de6;}.cls-45{fill:#004fe6;}.cls-46{fill:#0051e7;}.cls-47{fill:#0052e7;}.cls-48{fill:#0054e8;}.cls-49{fill:#0055e8;}.cls-50{fill:#0057e8;}.cls-51{fill:#0058e9;}.cls-52{fill:#005ae9;}.cls-53{fill:#005cea;}.cls-54{fill:#005dea;}.cls-55{fill:#005fea;}.cls-56{fill:#0061eb;}.cls-57{fill:#0062eb;}.cls-58{fill:#0064ec;}.cls-59{fill:#0066ec;}.cls-60{fill:#0067ec;}.cls-61{fill:#0069ed;}.cls-62{fill:#006bed;}.cls-63{fill:#006cee;}.cls-64{fill:#006eee;}.cls-65{fill:#0070ee;}.cls-66{fill:#0071ef;}.cls-67{fill:#0073ef;}.cls-68{fill:#0074f0;}.cls-69{fill:#0076f0;}.cls-70{fill:#0078f1;}.cls-71{fill:#0079f1;}.cls-72{fill:#007bf1;}.cls-73{fill:#007df2;}.cls-74{fill:#007ef2;}.cls-75{fill:#0080f3;}.cls-76{fill:#0081f3;}.cls-77{fill:#0083f3;}.cls-78{fill:#0084f4;}.cls-79{fill:#0086f4;}.cls-80{fill:#0087f4;}.cls-81{fill:#0089f5;}.cls-82{fill:#008af5;}.cls-83{fill:#008cf6;}.cls-84{fill:#008df6;}.cls-85{fill:#008ff6;}.cls-86{fill:#0090f7;}.cls-87{fill:#0092f7;}.cls-88{fill:#0093f7;}.cls-89{fill:#0094f8;}.cls-90{fill:#0096f8;}.cls-91{fill:#0097f8;}.cls-92{fill:#0098f9;}.cls-93{fill:#0099f9;}.cls-94{fill:#009bf9;}.cls-95{fill:#009cfa;}.cls-96{fill:#009dfa;}.cls-97{fill:#009efa;}.cls-98{fill:#009ffa;}.cls-99{fill:#00a0fb;}.cls-100{fill:#00a2fb;}.cls-101{fill:#00a3fb;}.cls-102{fill:#00a4fb;}.cls-103{fill:#00a5fc;}.cls-104{fill:#00a6fc;}.cls-105{fill:#00a7fc;}.cls-106{fill:#00a8fd;}.cls-107{fill:#00a9fd;}.cls-108{fill:#00aafd;}.cls-109{fill:#00abfd;}.cls-110{fill:#00acfd;}.cls-111{fill:#00adfe;}.cls-112{fill:#00aefe;}.cls-113{fill:#00affe;}.cls-114{fill:#00b0fe;}.cls-115{fill:#00b0ff;}.cls-116{fill:#00b1ff;}.cls-117{fill:#00b2ff;}</style><linearGradient id="未命名的渐变" x1="27.03" y1="9.18" x2="19.01" y2="20.68" gradientTransform="matrix(1, 0, 0, -1, 0, 43.97)" gradientUnits="userSpaceOnUse"><stop offset="0.12" stop-color="#b52cad"/><stop offset="0.93" stop-color="#ec35c1"/></linearGradient><linearGradient id="未命名的渐变_2" x1="10.24" y1="34.79" x2="22.92" y2="24.13" gradientTransform="matrix(1, 0, 0, -1, 0, 43.97)" gradientUnits="userSpaceOnUse"><stop offset="0" stop-color="#461483"/><stop offset="0.41" stop-color="#711d93"/></linearGradient></defs><title>资源 1</title><g id="图层_2" data-name="图层 2"><g id="图层_1-2" data-name="图层 1"><g id="图层_2-2" data-name="图层 2"><g id="Layer_1" data-name="Layer 1"><path class="cls-1" d="M28.27,11.77c-2.77,0-5.22,1.09-7.07,4.33a.29.29,0,0,0,.11.4.35.35,0,0,0,.14,0H26.5a.38.38,0,0,1,.37.37h0v3.69a.37.37,0,0,1-.37.36H19.69a.75.75,0,0,0-.64.43c-3,6.85-8.3,8.33-11.35,8.59A15.31,15.31,0,0,1,3,29.56a.2.2,0,0,0-.24.13.19.19,0,0,0,0,.18c3.63,4.79,8.41,7.62,15.87,7.62,8.79,0,16.84-8.11,16.84-16.76C35.45,14.72,32.05,11.77,28.27,11.77Z"/><path class="cls-2" d="M32.65,7.54C29,2.8,24.26,0,16.84,0,8,0,0,8.11,0,16.76c0,6,3.42,8.94,7.19,8.94a7.6,7.6,0,0,0,7.06-4.27.29.29,0,0,0-.12-.4A.23.23,0,0,0,14,21H9a.36.36,0,0,1-.38-.36h0V16.9a.38.38,0,0,1,.37-.37h6.83a.74.74,0,0,0,.64-.42c3-6.85,8.29-8.33,11.34-8.58a14.85,14.85,0,0,1,4.65.37.22.22,0,0,0,.29-.16A.21.21,0,0,0,32.65,7.54Z"/></g></g><circle class="cls-3" cx="29.5" cy="33.73" r="11.2"/><rect class="cls-4" x="23.46" y="27.46" width="0.04" height="7.04" transform="translate(-14.11 40.85) rotate(-67.56)"/><rect class="cls-4" x="23.46" y="27.46" width="0.04" height="7.04" transform="translate(-14.11 40.85) rotate(-67.56)"/><rect class="cls-4" x="26.81" y="41.25" width="6.94" height="0.05" transform="matrix(0.02, -1, 1, 0.02, -11.55, 70.8)"/><rect class="cls-4" x="25.51" y="25.07" width="0.07" height="6.75" transform="translate(-12.48 24.42) rotate(-42.04)"/><rect class="cls-4" x="23.86" y="40.33" width="6.67" height="0.07" transform="translate(-21.06 46.78) rotate(-63.6)"/><polygon class="cls-4" points="27.39 23.88 27.47 23.86 29.35 30.12 29.26 30.15 27.39 23.88"/><polygon class="cls-4" points="22.3 40.32 22.24 40.25 27.33 36.25 27.39 36.32 22.3 40.32"/><rect class="cls-4" x="28.32" y="26.84" width="6.35" height="0.1" transform="translate(0.17 53.97) rotate(-81.34)"/><polygon class="cls-4" points="20.5 36.19 20.48 36.09 26.62 34.69 26.64 34.79 20.5 36.19"/><polygon class="cls-4" points="36.19 42.21 36.1 42.27 32.57 37.11 32.66 37.05 36.19 42.21"/><polygon class="cls-4" points="36.02 25.5 36.11 25.56 32.65 30.69 32.55 30.63 36.02 25.5"/><polygon class="cls-4" points="20.63 31.76 20.65 31.64 26.65 32.98 26.63 33.09 20.63 31.76"/><rect class="cls-4" x="31.45" y="37.66" width="0.12" height="6.1" transform="translate(-6.04 5.49) rotate(-9.09)"/><polygon class="cls-4" points="22.59 27.87 22.67 27.76 27.41 31.45 27.33 31.55 22.59 27.87"/><polygon class="cls-4" points="27.73 43.32 27.6 43.28 29.27 37.56 29.4 37.6 27.73 43.32"/><polygon class="cls-4" points="25.98 25.22 26.1 25.16 28.75 30.4 28.62 30.46 25.98 25.22"/><polygon class="cls-4" points="24.04 41.15 23.93 41.06 27.81 36.71 27.91 36.8 24.04 41.15"/><polygon class="cls-4" points="30.11 24.29 30.26 24.28 30.4 30.03 30.25 30.03 30.11 24.29"/><polygon class="cls-4" points="21.66 37.67 21.6 37.53 26.85 35.31 26.91 35.45 21.66 37.67"/><polygon class="cls-4" points="34.19 25.19 34.34 25.26 32.05 30.4 31.91 30.33 34.19 25.19"/><polygon class="cls-4" points="21 33.56 21.01 33.4 26.59 33.63 26.59 33.8 21 33.56"/><polygon class="cls-4" points="33.58 42.71 33.42 42.77 31.6 37.52 31.76 37.47 33.58 42.71"/><polygon class="cls-4" points="22.15 29.62 22.23 29.47 27.07 32.02 26.99 32.17 22.15 29.62"/><polygon class="cls-4" points="29.51 43.09 29.34 43.08 29.92 37.67 30.1 37.69 29.51 43.09"/><polygon class="cls-4" points="24.83 26.59 24.98 26.48 28.2 30.76 28.05 30.87 24.83 26.59"/><polygon class="cls-4" points="25.71 41.72 25.56 41.62 28.34 37.08 28.5 37.18 25.71 41.72"/><polygon class="cls-4" points="28.51 25 28.7 24.96 29.75 30.12 29.57 30.16 28.51 25"/><polygon class="cls-4" points="22.91 38.89 22.8 38.73 27.18 35.88 27.28 36.04 22.91 38.89"/><polygon class="cls-4" points="32.47 25.15 32.66 25.19 31.43 30.2 31.23 30.15 32.47 25.15"/><polygon class="cls-4" points="21.59 35.18 21.56 34.98 26.64 34.29 26.67 34.49 21.59 35.18"/><polygon class="cls-4" points="34.86 41.58 34.69 41.68 32.2 37.24 32.38 37.14 34.86 41.58"/><polygon class="cls-4" points="35.94 26.94 36.1 27.07 32.91 31 32.74 30.86 35.94 26.94"/><polygon class="cls-4" points="21.98 31.31 22.05 31.11 26.84 32.63 26.77 32.83 21.98 31.31"/><polygon class="cls-4" points="31.14 42.64 30.92 42.65 30.58 37.67 30.79 37.66 31.14 42.64"/><polygon class="cls-5" points="23.97 28.01 24.12 27.85 27.72 31.21 27.57 31.37 23.97 28.01"/><polygon class="cls-5" points="27.36 42 27.15 41.92 28.94 37.36 29.14 37.44 27.36 42"/><polygon class="cls-5" points="27.13 25.91 27.34 25.82 29.13 30.32 28.92 30.4 27.13 25.91"/><polygon class="cls-5" points="24.25 39.84 24.09 39.67 27.59 36.38 27.75 36.55 24.25 39.84"/><polygon class="cls-6" points="30.85 25.36 31.09 25.38 30.78 30.11 30.55 30.1 30.85 25.36"/><polygon class="cls-7" points="22.38 36.59 22.31 36.37 26.79 34.92 26.87 35.15 22.38 36.59"/><polygon class="cls-7" points="35.89 40.33 35.7 40.48 32.73 36.87 32.91 36.71 35.89 40.33"/><polygon class="cls-8" points="34.4 26.45 34.62 26.57 32.36 30.64 32.15 30.52 34.4 26.45"/><polygon class="cls-8" points="22.09 32.91 22.12 32.66 26.7 33.26 26.67 33.51 22.09 32.91"/><polygon class="cls-9" points="32.58 41.95 32.34 42.02 31.22 37.56 31.46 37.5 32.58 41.95"/><polygon class="cls-9" points="23.38 29.48 23.52 29.27 27.33 31.73 27.19 31.94 23.38 29.48"/><polygon class="cls-10" points="28.93 42.01 28.68 41.96 29.56 37.54 29.81 37.59 28.93 42.01"/><polygon class="cls-11" points="25.99 26.97 26.21 26.83 28.55 30.61 28.33 30.75 25.99 26.97"/><polygon class="cls-12" points="25.65 40.51 25.44 40.36 28.08 36.81 28.29 36.97 25.65 40.51"/><polygon class="cls-13" points="29.38 25.83 29.64 25.8 30.13 30.13 29.87 30.16 29.38 25.83"/><polygon class="cls-14" points="23.35 37.79 23.22 37.55 27.05 35.52 27.18 35.76 23.35 37.79"/><polygon class="cls-14" points="32.89 26.24 33.15 26.33 31.77 30.38 31.5 30.29 32.89 26.24"/><polygon class="cls-15" points="22.44 34.38 22.43 34.11 26.68 33.91 26.69 34.19 22.44 34.38"/><polygon class="cls-16" points="33.82 41.08 33.56 41.2 31.83 37.34 32.09 37.23 33.82 41.08"/><polygon class="cls-17" points="23.07 30.96 23.18 30.69 27.03 32.3 26.92 32.56 23.07 30.96"/><polygon class="cls-18" points="30.41 41.76 30.12 41.75 30.2 37.61 30.49 37.61 30.41 41.76"/><polygon class="cls-19" points="25.09 28.16 25.3 27.96 28.04 31 27.82 31.2 25.09 28.16"/><polygon class="cls-20" points="27.08 40.91 26.82 40.78 28.63 37.15 28.89 37.28 27.08 40.91"/><polygon class="cls-21" points="28.07 26.5 28.36 26.42 29.5 30.26 29.22 30.35 28.07 26.5"/><polygon class="cls-22" points="24.45 38.75 24.27 38.52 27.4 36.06 27.59 36.29 24.45 38.75"/><polygon class="cls-23" points="31.44 26.29 31.74 26.34 31.14 30.22 30.84 30.18 31.44 26.29"/><polygon class="cls-24" points="23.02 35.71 22.95 35.41 26.76 34.55 26.83 34.85 23.02 35.71"/><polygon class="cls-25" points="34.84 40.06 34.58 40.23 32.39 37.03 32.65 36.86 34.84 40.06"/><polygon class="cls-26" points="34.54 27.52 34.8 27.7 32.64 30.89 32.38 30.71 34.54 27.52"/><polygon class="cls-27" points="23.03 32.39 23.1 32.08 26.83 32.92 26.77 33.22 23.03 32.39"/><polygon class="cls-28" points="31.75 41.27 31.44 41.32 30.85 37.57 31.16 37.52 31.75 41.27"/><polygon class="cls-29" points="24.44 29.42 24.64 29.16 27.6 31.47 27.4 31.72 24.44 29.42"/><polygon class="cls-30" points="28.48 41.05 28.17 40.96 29.23 37.39 29.53 37.48 28.48 41.05"/><polygon class="cls-31" points="26.96 27.36 27.25 27.21 28.9 30.5 28.61 30.64 26.96 27.36"/><polygon class="cls-32" points="25.65 39.47 25.41 39.26 27.84 36.53 28.08 36.75 25.65 39.47"/><polygon class="cls-33" points="30.08 26.58 30.41 26.57 30.5 30.18 30.17 30.18 30.08 26.58"/><polygon class="cls-34" points="23.79 36.86 23.66 36.56 26.95 35.16 27.08 35.47 23.79 36.86"/><polygon class="cls-35" points="33.2 27.21 33.51 27.35 32.08 30.57 31.77 30.43 33.2 27.21"/><polygon class="cls-36" points="23.23 33.74 23.24 33.4 26.74 33.55 26.73 33.89 23.23 33.74"/><polygon class="cls-37" points="32.93 40.59 32.61 40.7 31.47 37.42 31.79 37.3 32.93 40.59"/><polygon class="cls-38" points="24.05 30.71 24.21 30.41 27.24 32.01 27.08 32.31 24.05 30.71"/><polygon class="cls-39" points="29.82 40.95 29.48 40.91 29.85 37.52 30.2 37.55 29.82 40.95"/><polygon class="cls-40" points="26.06 28.35 26.34 28.14 28.36 30.83 28.07 31.04 26.06 28.35"/><polygon class="cls-41" points="26.9 39.94 26.6 39.76 28.34 36.91 28.65 37.1 26.9 39.94"/><polygon class="cls-42" points="28.86 27.09 29.21 27.01 29.87 30.24 29.52 30.31 28.86 27.09"/><polygon class="cls-43" points="24.7 37.81 24.51 37.51 27.25 35.73 27.44 36.03 24.7 37.81"/><polygon class="cls-44" points="31.9 27.14 32.25 27.23 31.48 30.36 31.13 30.27 31.9 27.14"/><polygon class="cls-45" points="23.64 34.98 23.59 34.61 26.76 34.19 26.81 34.55 23.64 34.98"/><polygon class="cls-46" points="33.93 39.76 33.6 39.94 32.05 37.16 32.38 36.98 33.93 39.76"/><polygon class="cls-47" points="34.59 28.48 34.88 28.71 32.88 31.15 32.6 30.92 34.59 28.48"/><polygon class="cls-48" points="23.9 31.99 24.01 31.64 26.99 32.59 26.88 32.94 23.9 31.99"/><polygon class="cls-49" points="31.07 40.61 30.7 40.64 30.49 37.54 30.86 37.52 31.07 40.61"/><polygon class="cls-50" points="25.38 29.43 25.64 29.15 27.88 31.24 27.62 31.52 25.38 29.43"/><polygon class="cls-51" points="28.15 40.17 27.8 40.04 28.91 37.21 29.26 37.35 28.15 40.17"/><polygon class="cls-52" points="27.8 27.77 28.15 27.63 29.25 30.41 28.9 30.55 27.8 27.77"/><polygon class="cls-53" points="25.73 38.55 25.46 38.27 27.63 36.23 27.89 36.52 25.73 38.55"/><polygon class="cls-54" points="30.66 27.3 31.04 27.33 30.85 30.25 30.47 30.22 30.66 27.3"/><polygon class="cls-55" points="24.25 36.07 24.13 35.7 26.89 34.81 27.01 35.18 24.25 36.07"/><polygon class="cls-56" points="34.72 38.8 34.41 39.05 32.59 36.82 32.89 36.57 34.72 38.8"/><polygon class="cls-57" points="33.41 28.09 33.76 28.29 32.37 30.79 32.02 30.59 33.41 28.09"/><polygon class="cls-58" points="23.97 33.22 24.02 32.83 26.84 33.2 26.79 33.59 23.97 33.22"/><polygon class="cls-59" points="32.18 40.09 31.8 40.19 31.11 37.46 31.5 37.36 32.18 40.09"/><polygon class="cls-60" points="24.93 30.57 25.15 30.23 27.48 31.73 27.26 32.07 24.93 30.57"/><polygon class="cls-61" points="29.37 40.18 28.97 40.1 29.51 37.4 29.91 37.48 29.37 40.18"/><polygon class="cls-62" points="26.91 28.59 27.26 28.38 28.68 30.68 28.34 30.89 26.91 28.59"/><polygon class="cls-63" points="26.81 39.06 26.48 38.82 28.09 36.67 28.42 36.91 26.81 39.06"/><polygon class="cls-64" points="29.52 27.67 29.93 27.62 30.22 30.25 29.81 30.29 29.52 27.67"/><polygon class="cls-65" points="25 36.99 24.81 36.62 27.12 35.4 27.32 35.76 25 36.99"/><polygon class="cls-66" points="32.24 27.94 32.63 28.07 31.8 30.52 31.4 30.38 32.24 27.94"/><polygon class="cls-67" points="24.26 34.37 24.24 33.95 26.79 33.83 26.81 34.25 24.26 34.37"/><polygon class="cls-68" points="33.14 39.41 32.75 39.58 31.71 37.27 32.1 37.09 33.14 39.41"/><polygon class="cls-69" points="24.7 31.71 24.86 31.32 27.17 32.28 27 32.67 24.7 31.71"/><polygon class="cls-70" points="30.51 39.97 30.08 39.96 30.14 37.49 30.56 37.49 30.51 39.97"/><polygon class="cls-71" points="26.23 29.52 26.54 29.23 28.17 31.04 27.85 31.33 26.23 29.52"/><polygon class="cls-72" points="27.92 39.36 27.54 39.17 28.62 37.01 29 37.2 27.92 39.36"/><polygon class="cls-73" points="28.51 28.2 28.93 28.08 29.6 30.35 29.19 30.48 28.51 28.2"/><polygon class="cls-74" points="25.87 37.72 25.6 37.38 27.45 35.93 27.72 36.27 25.87 37.72"/><polygon class="cls-75" points="31.11 28 31.55 28.06 31.19 30.35 30.76 30.28 31.11 28"/><polygon class="cls-76" points="24.72 35.39 24.62 34.96 26.86 34.46 26.96 34.89 24.72 35.39"/><polygon class="cls-77" points="33.92 38.6 33.55 38.85 32.27 36.98 32.64 36.73 33.92 38.6"/><polygon class="cls-78" points="33.52 28.91 33.89 29.16 32.63 31.02 32.26 30.77 33.52 28.91"/><polygon class="cls-79" points="24.68 32.82 24.78 32.38 26.96 32.87 26.86 33.31 24.68 32.82"/><polygon class="cls-80" points="31.55 39.58 31.11 39.65 30.76 37.46 31.2 37.39 31.55 39.58"/><polygon class="cls-81" points="25.74 30.51 26.01 30.15 27.73 31.49 27.45 31.84 25.74 30.51"/><polygon class="cls-82" points="29.02 39.45 28.58 39.33 29.19 37.26 29.63 37.39 29.02 39.45"/><polygon class="cls-83" points="27.66 28.88 28.07 28.67 29.01 30.57 28.61 30.77 27.66 28.88"/><polygon class="cls-84" points="26.81 38.27 26.47 37.96 27.86 36.4 28.2 36.7 26.81 38.27"/><polygon class="cls-85" points="30.06 28.24 30.52 28.23 30.57 30.28 30.11 30.3 30.06 28.24"/><polygon class="cls-86" points="25.33 36.27 25.15 35.85 27.03 35.06 27.21 35.48 25.33 36.27"/><polygon class="cls-87" points="32.48 28.68 32.91 28.87 32.1 30.7 31.67 30.51 32.48 28.68"/><polygon class="cls-88" points="24.86 33.87 24.88 33.4 26.86 33.49 26.84 33.95 24.86 33.87"/><polygon class="cls-89" points="32.45 39.03 32.01 39.19 31.37 37.34 31.82 37.18 32.45 39.03"/><polygon class="cls-90" points="25.45 31.52 25.67 31.1 27.37 32 27.15 32.41 25.45 31.52"/><polygon class="cls-91" points="30.06 39.35 29.59 39.3 29.8 37.4 30.27 37.46 30.06 39.35"/><polygon class="cls-92" points="26.97 29.66 27.36 29.38 28.47 30.87 28.09 31.16 26.97 29.66"/><polygon class="cls-93" points="27.79 38.62 27.38 38.36 28.34 36.79 28.75 37.04 27.79 38.62"/><polygon class="cls-94" points="29.12 28.65 29.59 28.55 29.95 30.33 29.48 30.43 29.12 28.65"/><polygon class="cls-95" points="26.06 37 25.8 36.59 27.3 35.62 27.56 36.02 26.06 37"/><polygon class="cls-96" points="31.46 28.65 31.94 28.77 31.52 30.47 31.04 30.36 31.46 28.65"/><polygon class="cls-97" points="25.2 34.82 25.14 34.34 26.86 34.11 26.92 34.59 25.2 34.82"/><polygon class="cls-98" points="33.21 38.37 32.79 38.61 31.95 37.1 32.38 36.87 33.21 38.37"/><polygon class="cls-99" points="33.56 29.64 33.94 29.95 32.87 31.27 32.49 30.96 33.56 29.64"/><polygon class="cls-100" points="25.35 32.52 25.5 32.05 27.11 32.56 26.96 33.03 25.35 32.52"/><polygon class="cls-101" points="31.02 39.07 30.53 39.11 30.42 37.44 30.91 37.41 31.02 39.07"/><polygon class="cls-102" points="26.46 30.52 26.8 30.15 28 31.27 27.66 31.63 26.46 30.52"/><polygon class="cls-103" points="28.76 38.77 28.3 38.59 28.89 37.09 29.35 37.27 28.76 38.77"/><polygon class="cls-104" points="28.3 29.2 28.77 29.01 29.35 30.48 28.88 30.66 28.3 29.2"/><polygon class="cls-104" points="26.87 37.55 26.52 37.19 27.66 36.12 28 36.49 26.87 37.55"/><polygon class="cls-105" points="30.5 28.8 31.01 28.83 30.91 30.35 30.4 30.32 30.5 28.8"/><polygon class="cls-106" points="25.69 35.66 25.53 35.18 26.97 34.72 27.12 35.2 25.69 35.66"/><polygon class="cls-107" points="33.81 37.61 33.42 37.93 32.47 36.78 32.87 36.46 33.81 37.61"/><polygon class="cls-108" points="32.64 29.37 33.09 29.61 32.37 30.9 31.93 30.66 32.64 29.37"/><polygon class="cls-109" points="25.43 33.47 25.5 32.96 26.94 33.16 26.88 33.66 25.43 33.47"/><polygon class="cls-109" points="31.88 38.65 31.38 38.77 31.03 37.38 31.53 37.25 31.88 38.65"/><polygon class="cls-110" points="26.13 31.4 26.41 30.97 27.59 31.73 27.31 32.17 26.13 31.4"/><polygon class="cls-111" points="29.71 38.76 29.2 38.66 29.47 37.29 29.98 37.4 29.71 38.76"/><polygon class="cls-111" points="27.63 29.85 28.07 29.58 28.78 30.73 28.34 31 27.63 29.85"/><polygon class="cls-112" points="27.72 37.94 27.3 37.63 28.1 36.55 28.52 36.87 27.72 37.94"/><polygon class="cls-112" points="29.63 29.09 30.15 29.03 30.29 30.34 29.77 30.39 29.63 29.09"/><polygon class="cls-113" points="26.28 36.37 26.04 35.9 27.18 35.3 27.43 35.76 26.28 36.37"/><polygon class="cls-113" points="31.73 29.26 32.23 29.43 31.82 30.62 31.32 30.45 31.73 29.26"/><polygon class="cls-114" points="25.67 34.35 25.64 33.82 26.89 33.77 26.91 34.3 25.67 34.35"/><polygon class="cls-115" points="32.61 38.11 32.13 38.33 31.62 37.2 32.11 36.99 32.61 38.11"/><polygon class="cls-115" points="25.97 32.29 26.17 31.8 27.28 32.27 27.07 32.76 25.97 32.29"/><polygon class="cls-116" points="30.59 38.59 30.05 38.58 30.08 37.39 30.61 37.4 30.59 38.59"/><polygon class="cls-116" points="27.11 30.57 27.5 30.21 28.27 31.07 27.87 31.43 27.11 30.57"/><polygon class="cls-116" points="28.58 38.16 28.1 37.92 28.61 36.9 29.09 37.14 28.58 38.16"/><polygon class="cls-117" points="28.85 29.52 29.37 29.36 29.68 30.42 29.16 30.58 28.85 29.52"/><polygon class="cls-117" points="26.96 36.93 26.63 36.5 27.49 35.83 27.82 36.26 26.96 36.93"/><polygon class="cls-117" points="30.86 29.31 31.4 29.39 31.23 30.44 30.7 30.36 30.86 29.31"/><polygon class="cls-117" points="26.03 35.14 25.91 34.61 26.93 34.38 27.06 34.91 26.03 35.14"/><polygon class="cls-117" points="33.21 37.48 32.76 37.79 32.18 36.94 32.63 36.63 33.21 37.48"/><polygon class="cls-117" points="32.74 29.97 33.2 30.28 32.63 31.12 32.17 30.82 32.74 29.97"/><polygon class="cls-117" points="25.95 33.15 26.07 32.62 27.06 32.84 26.94 33.37 25.95 33.15"/><polygon class="cls-117" points="31.39 38.28 30.85 38.37 30.69 37.39 31.24 37.3 31.39 38.28"/><polygon class="cls-117" points="26.73 31.34 27.07 30.9 27.83 31.5 27.49 31.93 26.73 31.34"/><polygon class="cls-117" points="29.43 38.23 28.89 38.07 29.16 37.16 29.7 37.32 29.43 38.23"/><polygon class="cls-117" points="28.19 30.04 28.68 29.79 29.1 30.62 28.61 30.87 28.19 30.04"/><polygon class="cls-117" points="27.69 37.35 27.27 36.98 27.88 36.3 28.3 36.67 27.69 37.35"/><polygon class="cls-117" points="30.05 29.49 30.61 29.48 30.63 30.37 30.07 30.38 30.05 29.49"/><polygon class="cls-117" points="26.5 35.83 26.28 35.32 27.09 34.98 27.3 35.49 26.5 35.83"/><polygon class="cls-117" points="31.94 29.79 32.45 30.02 32.11 30.79 31.59 30.57 31.94 29.79"/><polygon class="cls-117" points="26.08 33.97 26.1 33.4 26.94 33.44 26.91 34 26.08 33.97"/><polygon class="cls-117" points="32.1 37.87 31.57 38.06 31.3 37.28 31.83 37.09 32.1 37.87"/><polygon class="cls-117" points="26.49 32.11 26.75 31.61 27.46 31.99 27.2 32.49 26.49 32.11"/><polygon class="cls-117" points="30.23 38.17 29.67 38.11 29.75 37.32 30.32 37.38 30.23 38.17"/><polygon class="cls-117" points="27.64 30.63 28.09 30.29 28.56 30.9 28.11 31.25 27.64 30.63"/><polygon class="cls-117" points="28.43 37.65 27.95 37.35 28.34 36.7 28.83 37 28.43 37.65"/><polygon class="cls-117" points="29.31 29.78 29.86 29.66 30.01 30.39 29.45 30.51 29.31 29.78"/><polygon class="cls-117" points="27.03 36.41 26.72 35.94 27.34 35.54 27.65 36.02 27.03 36.41"/><polygon class="cls-117" points="31.16 29.72 31.71 29.86 31.54 30.55 30.99 30.42 31.16 29.72"/><polygon class="cls-117" points="26.3 34.72 26.22 34.15 26.92 34.05 27 34.62 26.3 34.72"/><polygon class="cls-117" points="32.72 37.4 32.22 37.68 31.88 37.07 32.38 36.78 32.72 37.4"/><rect class="cls-117" x="32.51" y="30.62" width="0.69" height="0.58" transform="translate(-11.86 36.79) rotate(-50.75)"/><rect class="cls-117" x="26.48" y="32.36" width="0.58" height="0.68" transform="translate(-12.53 48.25) rotate(-72.28)"/><rect class="cls-117" x="30.39" y="37.36" width="0.58" height="0.68" transform="translate(-2.44 2.13) rotate(-3.82)"/><rect class="cls-117" x="27.34" y="30.93" width="0.58" height="0.67" transform="translate(-14.07 30.08) rotate(-46.91)"/><rect class="cls-117" x="28.69" y="37.14" width="0.66" height="0.58" transform="translate(-16.46 50.67) rotate(-68.45)"/></g></g></svg>