<svg width="33" height="33" viewBox="0 0 33 33" fill="none" xmlns="http://www.w3.org/2000/svg">
<g clip-path="url(#clip0_373_11867)">
<path d="M18.1773 0.148591C17.4838 0.0495302 16.8399 0 16.1465 0C15.5026 0 14.8587 0.0495302 14.2148 0.0990604V31.947C14.8587 32.046 15.5026 32.046 16.1465 32.046C16.8399 32.046 17.5334 31.9965 18.1773 31.8974V0.148591Z" fill="#EFF501"/>
<path d="M16.0488 13.9177C16.0488 13.9177 19.9122 14.0663 22.9335 11.144C25.9549 8.22172 27.1931 4.70508 27.1931 4.70508C27.1931 4.70508 31.9975 8.86561 32.2947 15.255C32.2947 15.4036 32.3443 15.5522 32.3443 15.7008C32.5919 22.7836 27.1436 27.4394 27.1436 27.4394C27.1436 27.4394 25.9053 23.9228 22.9335 21.0005C19.9617 18.0782 16.0984 18.1773 16.0984 18.1773L16.0488 13.9177Z" fill="#EFF501"/>
<path fill-rule="evenodd" clip-rule="evenodd" d="M26.3887 25.7601C28.7612 23.2346 30.2145 19.8356 30.2145 16.0971C30.2145 12.3651 28.7663 8.97146 26.4012 6.44735C26.9452 5.4084 27.1929 4.70508 27.1929 4.70508C27.1929 4.70508 31.9973 8.86561 32.2945 15.255C32.2945 15.3293 32.3069 15.4036 32.3193 15.4779C32.3316 15.5522 32.344 15.6265 32.344 15.7008C32.5917 22.7836 27.1434 27.4394 27.1434 27.4394C27.1434 27.4394 26.9057 26.7644 26.3887 25.7601Z" fill="#FFFAA4"/>
<path d="M16.3047 13.9177C16.3047 13.9177 12.4413 14.0663 9.41999 11.144C6.39865 8.22172 5.1604 4.70508 5.1604 4.70508C5.1604 4.70508 0.355971 8.86561 0.0587902 15.255C0.0587902 15.4036 0.00925636 15.5522 0.00925636 15.7008C-0.238394 22.7836 5.20993 27.4394 5.20993 27.4394C5.20993 27.4394 6.44818 23.9228 9.41999 21.0005C12.3918 18.0782 16.2552 18.1773 16.2552 18.1773L16.3047 13.9177Z" fill="#EFF501"/>
<path fill-rule="evenodd" clip-rule="evenodd" d="M5.96289 25.7601C3.59041 23.2346 2.1371 19.8356 2.1371 16.0971C2.1371 12.3651 3.58529 8.97146 5.95035 6.44735C5.40633 5.4084 5.15868 4.70508 5.15868 4.70508C5.15868 4.70508 0.354252 8.86561 0.0570707 15.255C0.0570707 15.3293 0.0446873 15.4036 0.0323038 15.4779C0.0199208 15.5522 0.00753784 15.6265 0.00753784 15.7008C-0.240113 22.7836 5.20821 27.4394 5.20821 27.4394C5.20821 27.4394 5.44589 26.7644 5.96289 25.7601Z" fill="#FFFAA4"/>
</g>
<defs>
<clipPath id="clip0_373_11867">
<rect width="32.3432" height="32.0956" fill="white"/>
</clipPath>
</defs>
</svg>
