<?xml version="1.0" encoding="utf-8"?>
<!-- Generator: Adobe Illustrator 28.0.0, SVG Export Plug-In . SVG Version: 6.00 Build 0)  -->
<svg version="1.0" id="Layer_4" xmlns="http://www.w3.org/2000/svg" xmlns:xlink="http://www.w3.org/1999/xlink" x="0px" y="0px"
	 viewBox="0 0 400 400" enable-background="new 0 0 400 400" xml:space="preserve">
<rect x="1" y="1" rx="256" fill="#36BA9D" width="399" height="401"/>
<g id="Layer_5">
</g>
<g>
	<path fill="none" d="M264.4,378.4c-0.1,0.2-0.3,0.3-0.4,0.5C264.2,378.7,264.3,378.5,264.4,378.4L264.4,378.4z"/>
	<path fill="#F4DA0D" d="M305.5,181.3c0.4,0.2,0.9,0.2,1.5,0.4c2-12.1,6.7-23.2,11.9-34.7c-1.1-0.2-2-0.5-3-0.6
		c-7.8-0.9-15.2,1.2-22.4,3.8c-4.8,1.7-9.7,2.5-14.8,2c-0.6-0.1-1.6,0.1-2,0.6c-2.1,2.7-4.2,5.3-6.2,8.2c-1.1,1.7-0.6,3.5,0.9,4.6
		c2.4,1.8,4.9,3.8,7.6,4.9C287.9,174.4,296.7,177.8,305.5,181.3z"/>
	<path fill="#F4DA0D" d="M319.8,172c0.6,0.3,1.9-0.4,3.6-0.9c-1.1-1.4-1.5-2.7-2.3-2.9c-0.7-0.2-2.3,0.6-2.4,1.2
		C318.6,170.1,319.1,171.6,319.8,172z"/>
	<path fill="#F4DA0D" d="M292.2,132.7c0.2,0.1,0.4,0.3,0.6,0.4v0C292.6,132.9,292.4,132.8,292.2,132.7z"/>
	<path fill="#F4DA0D" d="M271.8,201.1c0.4,1.1,1.1,2,1.9,2.3C272.9,203.1,272.2,202.2,271.8,201.1
		C271.8,201.1,271.8,201.1,271.8,201.1z"/>
	<path fill="#F4DA0D" d="M300.6,252.4c-1.7-0.8-2.9-0.2-3.9,1.4c-3.7,6.3-8.4,11.6-15.7,13.9c-0.5,0.1-1,0.6-1.2,1.1
		c-1.1,2.4-1,2.4-3.8,3c0-0.7-0.1-1.4-0.1-2.4c-0.5,1.5-1,2.8-1.4,4c-0.3-0.1-0.6-0.1-0.9-0.2c-0.1-1.3-0.2-2.6-0.4-4.2
		c-13-0.5-24.3-5-33.2-14.6c-1.1,0.9-1.9,1.5-2.7,2.1c-0.2-0.1-0.3-0.3-0.5-0.4c0.4-0.9,0.7-1.8,1.2-3c-1.1,0.8-1.9,1.4-2.7,1.9
		c-0.1-0.1-0.3-0.2-0.4-0.4c0.4-1.1,0.7-2.3,1.1-3.4c-0.2-0.1-0.4-0.2-0.6-0.4c-1.2,1.4-2.3,2.9-3.5,4.4c2.6,1.9,5.2,3.4,7.4,5.3
		c9.9,8.8,21,14.2,34.5,14.5c8.3,0.2,15.7-1.7,22-7.2c3.5-3.1,5.9-6.8,6.5-11.6C302.7,254.7,302.4,253.2,300.6,252.4z"/>
	<path fill="#F4DA0D" d="M221.7,251.6c3.1,0.7,5.9,2.3,9,3.5c0.4-1.1,0.6-1.8,0.8-2.4c1.8-3.7,1.8-3.8-2-5.5
		c-0.5-0.2-0.9-0.4-1.4-0.6c-7.5-3.2-15.5-3.7-23.4-4.9c-11.6-1.9-22.2-6.2-31.1-14.1c-5.9-5.3-8.4-11.8-6.3-19.6
		c1.8-6.6,6.1-11.4,12.2-14.5c7.9-4,16.3-5.3,25-3.9c14.2,2.2,26.3,8,33.5,21.3c0.2,0.5,0.7,0.8,1.1,1.2c0.9-0.8,1.6-1.4,2.4-2
		c0.2,0.1,0.3,0.3,0.5,0.4c-0.7,1.2-1.4,2.4-2.1,3.6c0.1,0.1,0.2,0.2,0.3,0.3c0.9-0.9,1.8-1.8,2.6-2.7c0.2,0.1,0.4,0.3,0.5,0.4
		c-0.9,1.7-1.8,3.3-2.7,5c0.1,0.1,0.3,0.1,0.4,0.2c0.7-0.7,1.5-1.5,2.2-2.2c0.2,0.1,0.3,0.3,0.5,0.4c-0.4,0.8-0.9,1.5-1.1,2.3
		c-0.3,0.9-0.2,1.9-0.3,2.9c1.1-0.1,2.3,0.2,3.1-0.3c1.9-1,3.6-2.4,5.4-3.4c4.4-2.5,8.5-1.8,11.7,2.1c1.1,1.3,1.8,3.1,3,5.1
		c1.1-0.6,2.5-1.1,3.7-1.9c2.1-1.4,4.2-1.6,6.6-0.8c3.7,1.3,5.5,4.2,7.1,7.5c1.3,2.6,2.9,3.3,5.6,2.3c0.8-0.3,1.6-0.8,2.4-1.2
		c2.6-1.7,5.4-1.9,8.3-1.1c4.3,1.1,7,4.1,9.4,7.6c0.7,1.1,1.5,2.1,2.2,3.1c1.1-1,2-1.8,2.9-2.6c0.2,0.1,0.4,0.2,0.5,0.4
		c-0.3,1.2-0.6,2.4-1,3.7c1.4-0.6,1.4-3.7,3.8-2.1c0.9-0.7,1.8-1.5,2.7-2.2c0.2,0.1,0.3,0.3,0.5,0.4c-0.7,1.5-1.4,3-2.1,4.6
		c2.4,0.2,4.3-0.4,5-2.3c0.3-0.9-0.5-2.4-1.3-3.3c-0.5-0.6-1.8-0.8-2.7-0.8c-5.7-0.1-9.8-2.5-12.6-7.6c-2.5-4.5-8.1-7.7-13.7-4.5
		c-0.8,0.5-1.9,0.7-2.8,0.9c-4.6,0.9-6.4-0.1-8.6-4.2c-1-1.8-2.1-3.6-3.6-4.9c-1.6-1.5-3.5-2.2-5.9-0.9c-4.4,2.6-7.4,1.8-10.6-2.3
		c-2-2.5-4.2-3.3-6.6-2.4c-5.4,2-9.9,0.7-13.3-3.9c-1.7-2.3-3.2-4.8-5.2-6.9c-8.5-9.1-19.5-13.2-31.5-15c-9.1-1.3-18.2-1.2-27.1,2
		c-2.4,0.9-4.9,1.5-4.6,4.9c0,0-0.3,0.1-0.5,0.2c-0.2-0.6-0.5-1.3-0.8-2.3c-0.5,2-0.9,3.5-1.3,5.1c-0.3,0-0.5,0-0.8-0.1
		c-0.2-0.9-0.4-1.9-0.8-3.4c-0.5,3.2-0.9,5.8-1.3,8.3c-0.3,0-0.7,0-1-0.1c-0.1-1.8-0.2-3.6-0.2-5.5c-0.1,0-0.2,0-0.4,0
		c-0.5,3.5-1.1,7-1.6,10.5c-0.4,0-0.7-0.1-1.1-0.1c0.1-2.5,0.2-5,0.3-7.5c-0.2,0-0.4,0-0.6,0c-0.3,4.4-0.6,8.9-0.9,13.3
		c-0.4,0-0.8,0-1.2,0c-0.1-3.3-0.2-6.5-0.2-9.8c-1.4,2.5-2.8,5-3.4,7.7c-1.9,8.8,0.8,16.4,6.9,22.9c9.9,10.7,22.6,15.6,36.4,18.3
		C207.9,249.4,214.9,250.2,221.7,251.6z"/>
	<path fill="#F4DA0D" d="M324.3,164c0.7-1.5-0.2-2.9-1.7-3.2c-0.9-0.2-2.8,0.7-2.9,1.3c-0.2,1.1,0.7,2.3,1.4,4.3
		C322.7,165.3,324,164.9,324.3,164z"/>
	<path fill="#F4DA0D" d="M203.5,239.5c5.5,1,11,1.8,16.6,2.6c0.7,0.1,1.5-0.2,2.3-0.4c-0.9-0.8-1.9-1.6-2.8-2.5
		c-3.1-3-5.8-6.7-9.4-8.9c-10.2-6.4-21.7-8.4-33.6-7.7c-1.2,0.1-2.3,0.4-3.6,0.6c0.5,1.8,1.4,2.1,2.9,1.9c2.6-0.3,5.1-0.4,7.7-0.6
		c0,0.3,0.1,0.6,0.1,0.9c-2.6,0.3-5.2,0.5-7.8,0.8c0,0.3,0,0.5,0,0.8c3,0,6,0,9,0c0,0.2,0,0.5,0,0.7c-2.1,0.2-4.3,0.4-6.4,0.6
		c0,0.3,0,0.6-0.1,0.8c1.6,0.3,3.1,0.5,4.8,0.8c-0.5,0.4-0.9,0.8-1.7,1.6c1.8,0.1,3.1,0.1,4.4,0.1c-0.3,0.5-0.6,0.9-1.1,1.7
		c1.8,0,3.3,0,5,0c-0.5,0.6-0.8,1-1.1,1.3c0,0.3,0.1,0.5,0.1,0.8c3.6-0.1,7.3-0.1,10.9-0.2c0,0.2,0,0.4,0.1,0.6
		c-1.6,0.3-3.2,0.6-5.3,1C197.9,238.1,200.6,239,203.5,239.5z"/>
	<path fill="#F4DA0D" d="M342.3,183.2c2.9-7.1,1.6-14.2-1.5-21c-0.2-0.4-0.6-0.8-0.7-0.9c-4,9.1-8,18.2-12.1,27.4
		C334.3,191.3,339.1,191.2,342.3,183.2z"/>
	<path fill="#F4DA0D" d="M327.4,173.1c1.2,0.4,2.9,0.2,4.1-0.3c0.9-0.4,1.5-1.6,2.2-2.5c1.2-3.6,0.3-6.7-2.2-7.4
		c-2-0.6-4.1,1-5.3,4.1C324.9,169.8,325.3,172.5,327.4,173.1z"/>
	<path fill="#F4DA0D" d="M222.3,241.8c0.9,0.6,1.8,1.3,2.8,1.7c1.6,0.7,3.2,1.2,4.8,1.9c5.9,2.6,10.8,6.5,15.3,11
		c2.9,2.9,6.3,5.1,10.5,6.6c-0.7-6.6-3.3-11.8-7.7-16.2c-7.2-7.2-16.4-10.8-26-13.4c-1.9-0.5-3.9-0.6-5.8-0.9c0,0.3-0.1,0.6-0.1,1
		c1.6,0.1,3.1,0.3,5.2,0.5c-0.8,0.5-1.2,0.8-1.6,1c0.8,0.2,1.5,0.4,2.9,0.7c-1.5,0.4-2.3,0.7-3.2,0.9c0,0.1,0,0.3,0.1,0.4
		c2,0.2,4,0.4,6,0.6c0,0.2,0,0.4,0,0.6c-1.5,0.1-3,0.2-4.5,0.3c0,0.2,0,0.5,0,0.7c1.6,0.2,3.2,0.3,4.8,0.5c0,0.2,0,0.3,0,0.5
		c-1.1,0.2-2.2,0.3-3.3,0.5c0,0.1,0,0.2,0.1,0.3c0.9,0.2,1.9,0.3,2.8,0.5c0,0.2,0,0.4-0.1,0.6C224.4,241.9,223.3,241.9,222.3,241.8z
		"/>
	<path fill="#F4DA0D" d="M257.2,153.5c-2-2.1-3.9-4-5.6-6c-1.6-2.1-3-4.4-4.4-6.5c-2.2,5.3-4.2,10.5-6.3,15.6
		C249.8,160.1,255.7,158.7,257.2,153.5z"/>
	<path fill="#F4DA0D" d="M191.8,109.8c-6.2,2.7-12.2,5.5-16.5,10.9c-3.6,4.6-3.1,7.7,1.7,10.7c0.1,0.1,0.3,0.2,0.4,0.2
		c12.3,5.5,24.6,11,37.2,16.7c0.6-2.2,0.9-3.7,1.4-5.1c3.1-8,6.2-16,9.4-23.9c0.6-1.5,0.3-2.3-1-2.9c-4.3-2.1-8.5-4.4-12.9-6.2
		C205.1,107.4,198.6,106.8,191.8,109.8z"/>
	<path fill="#F4DA0D" d="M231,134.2c0.3-0.5-0.2-1.5-0.4-2.9c-1.2,0.7-2.3,1-2.5,1.6c-0.2,0.6,0.5,1.5,0.7,2.3
		C229.5,134.9,230.6,134.8,231,134.2z"/>
	<path fill="#F4DA0D" d="M240.3,136.2c-1.9-0.7-3.7,0.5-4.7,3.2c-1,2.5-0.4,4.7,1.5,5.5c1.8,0.7,4.2-0.6,5.1-2.8
		C243.2,139.6,242.3,136.9,240.3,136.2z"/>
	<path fill="#F4DA0D" d="M227.8,139.3c-0.5-0.2-1.2,0.3-1.8,0.6c0.2,0.6,0.3,1.5,0.7,1.8c0.4,0.3,1.2-0.2,2.4-0.4
		C228.5,140.3,228.3,139.5,227.8,139.3z"/>
	<path d="M342.1,205.1c2.5-8.7,5.6-17.2,7.7-26c3.9-16.2,3.9-32.6,0-48.9c-3.5-14.8-19.3-29.1-36.8-27.9c-8.4,0.6-15.6,3.7-22.4,8.3
		c-1.2,0.9-2.2,0.9-3.6,0.4c-5.1-1.8-10.2-3.7-15.4-5.1c-1.9-0.5-2.5-1.3-3-3.1c-6.3-24.7-21.8-40.2-46.8-45.4
		c-18.2-3.8-35.8-1.2-52.5,7.2c-15.1,7.6-26.1,19.3-34.1,33.9c-2.2,4-5.3,5.8-9.2,7.1c-5.2,1.6-10.5,2.9-15.6,4.8
		c-10.6,3.8-19.9,9.8-25.4,19.8c-7.9,14.6-8.4,30,0,44.4c5.1,8.6,12,16.2,18.4,24c3.4,4.2,7.4,7.9,11.2,11.8
		c-0.2,0.2-0.3,0.3-0.4,0.4c-0.6,0.1-1.3,0.2-1.9,0.3c-25.1,3.6-49.4,10.1-72,21.9c-14.7,7.7-27.9,17.2-39.2,29.2V402h10.5
		c1.6-3.2,3.1-6.5,4.9-9.6c4.6-7.9,9-16.1,14.8-23C41.6,357.2,53,345.8,64,334.1c1.1-1.2,2.6-2.1,3.9-3.2c0.1,0.1,0.3,0.3,0.4,0.4
		c-19.5,21.5-36.5,44.8-50.1,70.6h276.1c1-3.3,2-6.6,2.9-9.9c2.1-7.1,3.8-14.4,4.4-21.7c1.3-15.8-3.7-30.2-10.8-44
		c-7-13.5-16.1-25.4-26.2-36.7c-1.3-1.5-2.6-3-4.3-4.9c1.1,0.1,1.7,0.1,2.2,0.1c11.6,1.7,23.2,1.6,34.9-0.3
		c14.6-2.5,28.3-7.2,39.6-17.2c7.5-6.7,13.2-14.6,14.3-24.9c1.4-12.4-1.7-23.8-8.5-34.3C342.1,207.3,341.8,206,342.1,205.1z
		 M264.4,378.4L264.4,378.4c-0.1,0.2-0.3,0.3-0.4,0.5C264.2,378.7,264.3,378.5,264.4,378.4z M295.9,267.9c-6.3,5.5-13.7,7.4-22,7.2
		c-13.5-0.4-24.6-5.8-34.5-14.5c-2.2-1.9-4.8-3.4-7.4-5.3c1.2-1.5,2.3-2.9,3.5-4.4c0.2,0.1,0.4,0.2,0.6,0.4
		c-0.4,1.1-0.7,2.3-1.1,3.4c0.1,0.1,0.3,0.2,0.4,0.4c0.8-0.6,1.6-1.1,2.7-1.9c-0.5,1.2-0.8,2.1-1.2,3c0.2,0.1,0.3,0.3,0.5,0.4
		c0.8-0.6,1.6-1.2,2.7-2.1c8.9,9.6,20.2,14.1,33.2,14.6c0.1,1.6,0.2,2.9,0.4,4.2c0.3,0.1,0.6,0.1,0.9,0.2c0.4-1.3,0.9-2.5,1.4-4
		c0,1,0.1,1.7,0.1,2.4c2.7-0.6,2.7-0.6,3.8-3c0.2-0.5,0.7-0.9,1.2-1.1c7.3-2.3,12-7.5,15.7-13.9c1-1.7,2.2-2.2,3.9-1.4
		c1.7,0.8,2,2.2,1.8,3.9C301.8,261.1,299.4,264.8,295.9,267.9z M164.6,229.8c-6.1-6.5-8.8-14.1-6.9-22.9c0.6-2.7,2-5.1,3.4-7.7
		c0.1,3.3,0.2,6.5,0.2,9.8c0.4,0,0.8,0,1.2,0c0.3-4.4,0.6-8.9,0.9-13.3c0.2,0,0.4,0,0.6,0c-0.1,2.5-0.2,5-0.3,7.5
		c0.4,0,0.7,0.1,1.1,0.1c0.5-3.5,1.1-7,1.6-10.5c0.1,0,0.2,0,0.4,0c0.1,1.8,0.2,3.6,0.2,5.5c0.3,0,0.7,0,1,0.1
		c0.4-2.6,0.8-5.1,1.3-8.3c0.4,1.5,0.6,2.5,0.8,3.4c0.3,0,0.5,0,0.8,0.1c0.4-1.6,0.8-3.1,1.3-5.1c0.4,1,0.6,1.6,0.8,2.3
		c0.3-0.1,0.6-0.2,0.5-0.2c-0.3-3.4,2.2-4.1,4.6-4.9c8.9-3.2,18-3.3,27.1-2c12,1.7,23,5.8,31.5,15c1.9,2.1,3.5,4.6,5.2,6.9
		c3.4,4.6,7.9,5.9,13.3,3.9c2.5-0.9,4.7-0.1,6.6,2.4c3.2,4.1,6.2,4.8,10.6,2.3c2.3-1.4,4.3-0.6,5.9,0.9c1.5,1.4,2.7,3.1,3.6,4.9
		c2.2,4.1,4,5.1,8.6,4.2c1-0.2,2-0.4,2.8-0.9c5.6-3.2,11.2,0.1,13.7,4.5c2.8,5.1,6.9,7.5,12.6,7.6c0.9,0,2.2,0.2,2.7,0.8
		c0.8,0.9,1.6,2.5,1.3,3.3c-0.7,1.9-2.6,2.5-5,2.3c0.8-1.7,1.5-3.1,2.1-4.6c-0.2-0.1-0.3-0.3-0.5-0.4c-0.9,0.7-1.8,1.4-2.7,2.2
		c-2.4-1.6-2.4,1.4-3.8,2.1c0.3-1.3,0.7-2.5,1-3.7c-0.2-0.1-0.4-0.2-0.5-0.4c-0.9,0.8-1.8,1.6-2.9,2.6c-0.8-1.1-1.5-2.1-2.2-3.1
		c-2.4-3.5-5.1-6.5-9.4-7.6c-2.9-0.7-5.7-0.5-8.3,1.1c-0.8,0.5-1.6,0.9-2.4,1.2c-2.7,1-4.3,0.3-5.6-2.3c-1.6-3.2-3.4-6.2-7.1-7.5
		c-2.4-0.8-4.5-0.6-6.6,0.8c-1.2,0.8-2.5,1.3-3.7,1.9c-1.2-2.1-1.9-3.8-3-5.1c-3.3-3.9-7.3-4.5-11.7-2.1c-1.9,1-3.5,2.5-5.4,3.4
		c-0.9,0.4-2.1,0.2-3.1,0.3c0.1-1,0.1-2,0.3-2.9c0.2-0.8,0.7-1.5,1.1-2.3c-0.2-0.1-0.3-0.3-0.5-0.4c-0.7,0.7-1.5,1.5-2.2,2.2
		c-0.1-0.1-0.3-0.1-0.4-0.2c0.9-1.7,1.8-3.3,2.7-5c-0.2-0.1-0.4-0.3-0.5-0.4c-0.9,0.9-1.8,1.8-2.6,2.7c-0.1-0.1-0.2-0.2-0.3-0.3
		c0.7-1.2,1.4-2.4,2.1-3.6c-0.2-0.1-0.3-0.3-0.5-0.4c-0.7,0.6-1.5,1.3-2.4,2c-0.4-0.4-0.8-0.8-1.1-1.2
		c-7.2-13.3-19.3-19.1-33.5-21.3c-8.7-1.3-17.1-0.1-25,3.9c-6.1,3.1-10.4,7.9-12.2,14.5c-2.1,7.8,0.4,14.3,6.3,19.6
		c8.9,7.9,19.4,12.2,31.1,14.1c7.9,1.3,15.9,1.7,23.4,4.9c0.5,0.2,0.9,0.4,1.4,0.6c3.8,1.7,3.8,1.8,2,5.5c-0.3,0.6-0.4,1.2-0.8,2.4
		c-3.1-1.2-5.9-2.9-9-3.5c-6.8-1.5-13.8-2.3-20.7-3.6C187.2,245.4,174.5,240.4,164.6,229.8z M271.6,165.7c-1.6-1.1-2.1-2.9-0.9-4.6
		c1.9-2.8,4-5.5,6.2-8.2c0.4-0.4,1.3-0.6,2-0.6c5.1,0.5,10-0.3,14.8-2c7.2-2.6,14.6-4.7,22.4-3.8c0.9,0.1,1.9,0.4,3,0.6
		c-5.2,11.4-9.9,22.5-11.9,34.7c-0.6-0.2-1.1-0.2-1.5-0.4c-8.8-3.5-17.6-7-26.3-10.7C276.5,169.4,274,167.5,271.6,165.7z
		 M273.7,203.4c-0.9-0.3-1.6-1.2-1.9-2.3c0,0,0,0,0,0C272.2,202.2,272.9,203.1,273.7,203.4z M292.2,132.7c0.2,0.1,0.4,0.3,0.6,0.4v0
		C292.6,132.9,292.4,132.8,292.2,132.7z M318.7,169.3c0.1-0.6,1.7-1.4,2.4-1.2c0.8,0.2,1.2,1.5,2.3,2.9c-1.7,0.5-2.9,1.2-3.6,0.9
		C319.1,171.6,318.6,170.1,318.7,169.3z M321.1,166.4c-0.7-2-1.6-3.2-1.4-4.3c0.1-0.6,2-1.4,2.9-1.3c1.5,0.2,2.4,1.7,1.7,3.2
		C324,164.9,322.7,165.3,321.1,166.4z M247.2,141c1.4,2.1,2.7,4.4,4.4,6.5c1.7,2.1,3.6,3.9,5.6,6c-1.5,5.2-7.4,6.5-16.3,3.1
		C243,151.5,245,146.3,247.2,141z M237.1,144.9c-1.9-0.8-2.5-3-1.5-5.5c1.1-2.7,2.8-3.9,4.7-3.2c2,0.7,2.8,3.5,1.9,5.9
		C241.4,144.3,239,145.6,237.1,144.9z M228.8,135.2c-0.3-0.8-0.9-1.7-0.7-2.3c0.2-0.6,1.3-0.8,2.5-1.6c0.2,1.4,0.7,2.4,0.4,2.9
		C230.6,134.8,229.5,134.9,228.8,135.2z M229.1,141.3c-1.1,0.2-2,0.6-2.4,0.4c-0.4-0.3-0.5-1.2-0.7-1.8c0.6-0.2,1.4-0.7,1.8-0.6
		C228.3,139.5,228.5,140.3,229.1,141.3z M225.5,119.4c-3.2,7.9-6.3,15.9-9.4,23.9c-0.5,1.4-0.8,2.8-1.4,5.1
		c-12.6-5.6-24.9-11.2-37.2-16.7c-0.2-0.1-0.3-0.1-0.4-0.2c-4.9-3.1-5.3-6.2-1.7-10.7c4.3-5.5,10.3-8.2,16.5-10.9
		c6.8-3,13.3-2.4,19.8,0.4c4.4,1.9,8.6,4.1,12.9,6.2C225.8,117.1,226.1,117.8,225.5,119.4z M222.6,241c0-0.1,0-0.2-0.1-0.3
		c1.1-0.2,2.2-0.3,3.3-0.5c0-0.2,0-0.3,0-0.5c-1.6-0.2-3.2-0.3-4.8-0.5c0-0.2,0-0.5,0-0.7c1.5-0.1,3-0.2,4.5-0.3c0-0.2,0-0.4,0-0.6
		c-2-0.2-4-0.4-6-0.6c0-0.1,0-0.3-0.1-0.4c0.8-0.2,1.7-0.5,3.2-0.9c-1.4-0.4-2.1-0.5-2.9-0.7c0.4-0.3,0.8-0.5,1.6-1
		c-2.1-0.2-3.6-0.3-5.2-0.5c0-0.3,0.1-0.6,0.1-1c1.9,0.3,3.9,0.4,5.8,0.9c9.6,2.6,18.8,6.2,26,13.4c4.4,4.4,7,9.6,7.7,16.2
		c-4.2-1.5-7.6-3.7-10.5-6.6c-4.5-4.5-9.5-8.4-15.3-11c-1.6-0.7-3.2-1.2-4.8-1.9c-1-0.5-1.9-1.2-2.8-1.7c1,0.1,2,0.1,3.1,0.2
		c0-0.2,0-0.4,0.1-0.6C224.5,241.3,223.6,241.1,222.6,241z M199.7,235.6c-3.6,0.1-7.3,0.1-10.9,0.2c0-0.3-0.1-0.5-0.1-0.8
		c0.3-0.4,0.6-0.7,1.1-1.3c-1.7,0-3.2,0-5,0c0.5-0.8,0.8-1.2,1.1-1.7c-1.3,0-2.6-0.1-4.4-0.1c0.8-0.8,1.2-1.2,1.7-1.6
		c-1.7-0.3-3.2-0.6-4.8-0.8c0-0.3,0-0.6,0.1-0.8c2.1-0.2,4.3-0.4,6.4-0.6c0-0.2,0-0.5,0-0.7c-3,0-6,0-9,0c0-0.3,0-0.5,0-0.8
		c2.6-0.3,5.2-0.5,7.8-0.8c0-0.3-0.1-0.6-0.1-0.9c-2.6,0.2-5.2,0.2-7.7,0.6c-1.5,0.2-2.4-0.1-2.9-1.9c1.2-0.2,2.4-0.5,3.6-0.6
		c12-0.7,23.4,1.3,33.6,7.7c3.6,2.3,6.3,5.9,9.4,8.9c0.9,0.9,1.9,1.7,2.8,2.5c-0.8,0.1-1.6,0.5-2.3,0.4c-5.5-0.8-11.1-1.6-16.6-2.6
		c-2.8-0.5-5.6-1.4-9-2.4c2.1-0.4,3.7-0.7,5.3-1C199.7,236,199.7,235.8,199.7,235.6z M326.1,166.9c1.2-3.1,3.3-4.7,5.3-4.1
		c2.6,0.7,3.4,3.8,2.2,7.4c-0.7,0.9-1.2,2.1-2.2,2.5c-1.2,0.5-2.9,0.7-4.1,0.3C325.3,172.5,324.9,169.8,326.1,166.9z M340.1,161.3
		c0.1,0.1,0.5,0.4,0.7,0.9c3.2,6.8,4.4,13.9,1.5,21c-3.3,8.1-8,8.2-14.4,5.5C332.1,179.4,336.1,170.4,340.1,161.3z"/>
</g>
</svg>
