<svg width="300" height="300" viewBox="0 0 300 300" fill="none" xmlns="http://www.w3.org/2000/svg">
<rect width="300" height="300" rx="150" fill="#12140D"/>
<path d="M215.728 206.8H194.483L150.012 160.981L105.699 206.8H84.3743L139.468 149.962L84.3743 93.1238H105.699L215.728 206.8ZM215.728 93.1238L166.183 144.096L155.64 133.236L194.483 93.1238H215.728Z" fill="#9EFF00"/>
<path fill-rule="evenodd" clip-rule="evenodd" d="M223.096 209.921H193.163L150.016 165.466L107.023 209.921H77L135.121 149.96L77 90H107.022L223.096 209.921ZM139.469 149.96L84.3744 206.798H105.699L150.012 160.979L194.484 206.798H215.729L105.699 93.1221H84.3744L139.469 149.96ZM223.117 90L166.182 148.575L151.291 133.237L193.161 90H223.117ZM215.729 93.1221H194.484L155.64 133.234L166.183 144.094L215.729 93.1221Z" fill="#9EFF00"/>
</svg>
