<svg version="1.2" xmlns="http://www.w3.org/2000/svg" viewBox="0 0 600 600" width="600" height="600">
	<title>Logo Core Color Vertical-svg</title>
	<style>
		.s0 { fill: #fafa01 } 
		.s1 { fill: #ffffff } 
	</style>
	<path id="Layer" fill-rule="evenodd" class="s0" d="m498.7 385.8c-16.2 0-32-4.8-45.4-13.7-13.5-9-23.9-21.8-30.1-36.7-6.2-15-7.8-31.4-4.7-47.3 3.2-15.8 11-30.4 22.4-41.8 11.4-11.5 26-19.3 41.8-22.4 15.9-3.2 32.3-1.5 47.3 4.6 14.9 6.2 27.7 16.7 36.7 30.2 9 13.4 13.7 29.2 13.7 45.4 0 21.7-8.6 42.4-23.9 57.8-15.3 15.3-36.1 23.9-57.8 23.9zm0-152.6c-14 0-27.7 4.2-39.4 12-11.6 7.7-20.7 18.8-26.1 31.8-5.3 12.9-6.7 27.2-4 40.9 2.7 13.7 9.5 26.4 19.4 36.3 9.9 9.9 22.5 16.6 36.3 19.4 13.7 2.7 28 1.3 40.9-4.1 13-5.3 24-14.4 31.8-26.1 7.8-11.6 11.9-25.3 11.9-39.3 0-18.8-7.5-36.8-20.7-50.1-13.3-13.3-31.3-20.7-50.1-20.8z"/>
	<path id="Layer" class="s0" d="m481.5 378.2c-11.8 14.6-27 23.4-43.6 23.4-37.7 0-68.5-45.9-68.5-102.3 0-56.4 30.8-102.4 68.5-102.4 19.7 0 37.4 12.4 49.9 32.3 3.2-2.2 6.8-3.3 10.6-3.4-14.5-24.3-36.3-39.9-60.5-39.9-43.6 0-79.4 50.8-79.4 113.3 0 62.4 35.7 113.2 79.4 113.2 21.8 0 41.6-12.5 56-32.9-4.2 0.7-8.4 0.3-12.4-1.3z"/>
	<path id="Layer" class="s0" d="m531 370.1l-6.2 4.1c-2 1.4-4.3 2.3-6.6 2.7-19 33.9-50.5 56.2-86.1 56.2-57.8 0-104.8-58.7-104.8-130.8 0-72.2 47-130.8 104.8-130.8 36.4 0 68.7 23.4 87.5 58.7 3.2 0.2 6.3 1.3 8.9 3.2 2.6 1.7 4.9 3.6 7 5.1-19.1-46.2-58.2-77.9-103.4-77.9-63.8 0-115.7 63.5-115.7 141.7 0 78.1 51.9 141.7 115.7 141.7 44 0 82.4-30.2 101.9-74.6q-1.5 0.5-3 0.7z"/>
	<path id="Layer" class="s0" d="m517.7 375.3c-12 21.8-29.7 39.9-51 52.6-21.4 12.7-45.8 19.5-70.7 19.7-77.6 0-140.8-65.2-140.8-145.3 0-80.2 63.2-145.4 140.8-145.4 25.7 0.2 50.9 7.4 72.7 20.8 21.9 13.5 39.7 32.7 51.4 55.5 4.1-1.3 8.5-1.1 12.5 0.6-12.1-26.1-31.4-48.2-55.6-63.7-24.1-15.5-52.2-23.9-81-24.1-83.5 0-151.7 70.1-151.7 156.3 0 86.1 68.1 156.2 151.7 156.2 28.9-0.2 57.1-8.7 81.3-24.4 24.3-15.7 43.5-38 55.5-64.3-4.5 3.1-9.7 4.9-15.1 5.5z"/>
	<path id="Layer" class="s0" d="m389.8 452.6c-0.7 0-1.5 0.2-2.3 0.2-3.6 0.1-7.2-1-10.2-3-15 12.4-33.7 19.3-53.2 19.7-62.9 0-114-75.6-114-168.6 0-92.9 51.1-168.5 114-168.5 20.7 0.3 40.5 8.1 56 21.8 3.3-2.6 7.4-4 11.6-4-19.5-18.2-42.7-28.8-67.6-28.8-69 0-124.9 80.5-124.9 179.4 0 98.9 56 179.5 124.9 179.5 24.4 0 47.2-10.2 66.4-27.7z"/>
	<path id="Layer" class="s0" d="m463.2 432.6q-1.2 0.4-2.2 1c-3 1.8-6.3 2.6-9.8 2.6-31.5 50.8-81.1 84-136.8 84-95.1 0-172.5-96.2-172.5-214.4 0-118.2 77.4-214.4 172.5-214.4 52.4 0 99.3 29.1 130.8 75 3.7-1.9 7.8-2.5 11.9-1.9-33.6-51.3-85-84.1-142.7-84.1-101.1 0-183.4 101.1-183.4 225.3 0 124.2 82.3 225.3 183.4 225.3 63.2 0 118.9-39.4 151.9-99.2q-1.6 0.5-3.1 0.8z"/>
	<path id="Layer" class="s0" d="m443.8 444.7h-0.4c-41.9 59.9-110 98.9-186.9 98.9-127.1 0-230.6-106.7-230.6-237.9 0-131.1 103.5-237.8 230.6-237.8 77.7 0 146.5 40 188.3 101 4.3-0.8 8.7-0.5 12.9 0.8l1 0.4c-43.2-68-117.7-113.1-202.2-113.1-133.1 0-241.5 111.6-241.5 248.7 0 137.2 108.4 248.8 241.5 248.8 84 0 158.1-44.5 201.4-111.8-4.6 1.3-9.3 2-14.1 2z"/>
	<path id="Layer" class="s0" d="m493.2 229.6c0 0-14.5-36.3-50.8-36.3-36.4 0-76.3 29-76.3 123.5 0 94.5 79.9 90.8 79.9 90.8 0 0 32.7-14.5 40-29 0 0-21.8 3.6-36.4-10.9-14.5-14.6-65.4-116.3 43.6-138.1z"/>
	<path id="Layer" class="s0" d="m382.5 152.7c0 0-12.8-24.8-70.9-24.8-58.2 0-123.6 109-109 192.5 14.5 83.6 52.9 147.7 113.6 153.8 0 0 41.8-5.3 71.3-21.4 0 0-137.8-16.1-137.8-148.7 0-132.6 132.8-151.4 132.8-151.4z"/>
	<path id="Layer" class="s1" d="m-238 720h169.8l55.7 57h-225.4v169.3h225.4l-56.2 56.1h-169.3l-57-57.5v-168.4z"/>
	<path id="Layer" fill-rule="evenodd" class="s1" d="m72.2 720h169l56.9 57v168.2l-57.2 57.2h-169l-56.4-57.2 0.2-169zm0 56.1v169.1h167.9l0.6-169.1z"/>
	<path id="Layer" class="s1" d="m362.7 720.6h56.4v56.2h-56.4zm56.4 56.2v226.2h-56.4v-169.9zm0 0l56.4-56.1h56.9v56.1z"/>
	<path id="Layer" fill-rule="evenodd" class="s1" d="m615.1 720.3h168.1l57 57v112.8h-169l-56.9-56.4v112.8h225.3l-56.4 56.2h-168.9l-56.5-56.2v-169.2zm-0.8 112.8h169v-55.9h-169z"/>
</svg>