<svg width="32" height="32" viewBox="0 0 32 32" fill="none" xmlns="http://www.w3.org/2000/svg">
<rect width="32" height="32" rx="16" fill="#101828"/>
<path d="M15.3751 11.2207V14.5388C14.5241 15.2982 13.6768 16.0258 12.8164 16.6169V11.2207H15.3751Z" fill="white"/>
<path d="M19.2443 15.6641V20.9985H16.6855V17.7571C17.8396 16.7134 19.2013 15.694 19.2443 15.6641Z" fill="white"/>
<path d="M11.3603 18.7012C11.2668 18.7554 11.1677 18.8078 11.0648 18.8564C10.528 19.1033 9.89768 19.2361 9.17383 19.2492C9.92574 19.2286 10.6515 19.0285 11.3603 18.703V18.7012Z" fill="#FF0000"/>
<path d="M28 15.0177V20.9993H25.4413V15.4703C25.4413 14.6436 25.2411 14.0376 24.8409 13.6504C24.4425 13.2632 23.7897 13.0706 22.8844 13.0706C22.8433 13.0706 22.7984 13.0706 22.7572 13.0706C22.2934 13.0818 21.8613 13.1566 21.461 13.2913C21.461 13.2913 21.4604 13.2913 21.4592 13.2913C20.7054 13.5213 19.9703 13.916 19.2464 14.4135C19.1978 14.4472 17.8156 15.4871 16.6877 16.5065C16.2519 16.9012 15.8142 17.3033 15.3747 17.6998C14.5498 18.4443 13.7175 19.1606 12.8646 19.7517C11.6114 20.6196 10.3115 21.2144 8.92174 21.2144C8.81139 21.2144 8.70664 21.2106 8.60564 21.205C8.48406 21.2106 8.35875 21.2144 8.23156 21.2144C7.26081 21.2144 6.37797 21.0011 5.58679 20.5747C4.79186 20.1482 4.1634 19.5515 3.69766 18.7847C3.23193 18.0178 3 17.1275 3 16.1175C3 15.1074 3.23567 14.1835 3.70702 13.4203C4.17836 12.6609 4.81992 12.068 5.62607 11.6416C6.43034 11.2132 7.34872 11.0019 8.36997 11.0019C9.49783 11.0019 10.4069 11.2301 11.0952 11.6827C11.3084 11.823 11.5048 11.9782 11.6825 12.1503V13.7121C11.4954 13.5756 11.2859 13.4559 11.0559 13.3549C10.4966 13.1117 9.83264 12.992 9.05828 12.992C7.97157 12.992 7.12427 13.2763 6.522 13.8468C5.91785 14.4173 5.61671 15.1748 5.61671 16.1175C5.61671 16.7459 5.76074 17.2958 6.04878 17.7616C6.33683 18.2254 6.74083 18.5902 7.25707 18.8539C7.77518 19.1139 8.37558 19.2467 9.05641 19.2467C9.09569 19.2467 9.13497 19.2467 9.17425 19.2467C9.8981 19.2336 10.5284 19.1026 11.0652 18.8539C11.1681 18.8053 11.2672 18.7529 11.3608 18.6986C11.3626 18.6968 11.3664 18.6949 11.3682 18.693C11.8508 18.4704 12.3278 18.188 12.7991 17.8626C12.8047 17.8607 12.8085 17.857 12.816 17.8513C13.6763 17.2603 14.5236 16.5327 15.3747 15.7733C15.8105 15.3843 16.2482 14.9877 16.6877 14.5987C17.5219 13.858 18.3692 13.1435 19.2464 12.5468C20.5894 11.6341 22.0016 11.0037 23.5447 11.0037C23.6251 11.0019 23.7074 11 23.7897 11C24.3938 11 24.9512 11.0786 25.4618 11.2357C25.9743 11.3928 26.4195 11.6341 26.7992 11.9633C27.1808 12.2925 27.4744 12.7096 27.6839 13.2127C27.8934 13.7177 28 14.3181 28 15.012V15.0177Z" fill="#D0F500"/>
<path opacity="0.57" d="M22.7571 13.0723C22.3176 13.0854 21.8855 13.162 21.4609 13.293C21.8631 13.1583 22.2933 13.0835 22.7571 13.0723Z" fill="#FF0000"/>
</svg>
