<svg xmlns:xlink="http://www.w3.org/1999/xlink" viewBox="0 0 100 100" xmlns="http://www.w3.org/2000/svg" class="grow" width="112"  height="112" ><defs><clipPath id="uausdc-d_svg__a"><path d="M1920 0v11288H0V0h1920z"></path></clipPath><clipPath id="uausdc-d_svg__b"><path d="M50 0c27.708 0 50 22.292 50 50s-22.292 50-50 50S0 77.708 0 50 22.292 0 50 0z"></path></clipPath><clipPath id="uausdc-d_svg__c"><path d="M15.624 0c1.04.208 1.665.832 1.665 1.666v5c4.79.418 8.54 3.958 9.374 8.542v.208c0 .831-.624 1.458-1.458 1.458h-3.334c-.624 0-1.25-.416-1.458-1.042-1.04-3.127-3.124-4.377-6.874-4.377-4.165 0-6.25 1.877-6.25 4.792 0 2.916 1.25 4.582 7.5 5.416 8.748 1.042 13.124 3.542 13.124 10.834l-.001.293c-.143 5.483-4.272 9.723-10.412 10.747v5c-.208 1.04-.832 1.666-1.666 1.666h-3.126c-1.04-.208-1.666-.832-1.666-1.666v-5C4.166 42.495.834 38.745 0 33.537v-.208c0-.832.624-1.458 1.458-1.458H5c.624 0 1.25.416 1.458 1.25.624 3.124 2.5 5.416 7.916 5.416 3.958 0 6.873-2.292 6.873-5.624 0-3.331-1.873-4.581-7.708-5.624C4.79 26.25.624 23.54.624 16.666c0-5.208 3.958-9.374 10.208-10.208V1.666C11.039.624 11.663 0 12.497 0z"></path></clipPath><clipPath id="uausdc-d_svg__d"><path d="M47.184 1.042c.21-.834 1.042-1.25 1.876-.834 11.458 3.75 20.624 12.71 24.374 24.584 6.25 19.792-4.582 40.834-24.374 47.084-.208.208-.626.208-.834.208-.834-.208-1.25-.831-1.25-1.666v-2.915c0-1.042.416-1.669 1.25-2.085 8.542-3.126 15.416-9.792 18.542-18.542 6.042-16.042-2.292-34.165-18.542-40-.624-.418-1.25-1.25-1.25-2.084V1.744c.003-.332.023-.517.208-.702zM26.979 0c.834.208 1.25.832 1.25 1.666v2.916c0 1.042-.416 1.668-1.25 2.084-8.542 3.126-15.416 9.792-18.542 18.542-6.043 16.042 2.292 34.166 18.542 40 .623.416 1.247 1.247 1.247 1.874v2.915c0 .419 0 .627-.208.835-.21.834-1.042 1.25-1.876.834-11.666-3.75-20.624-12.708-24.374-24.374C-4.482 27.5 6.352 6.458 26.144.208 26.352 0 26.771 0 26.98 0z"></path></clipPath><clipPath id="uausdc-d_svg__e"><path d="M15.016 0c8.293 0 15.016 6.723 15.016 15.016s-6.723 15.016-15.016 15.016S0 23.309 0 15.016 6.723 0 15.016 0z"></path></clipPath><clipPath id="uausdc-d_svg__f"><path d="m11.724 0 2.223 2.21-5.86 5.83c-.31.305-.716.457-1.116.457-.4 0-.803-.152-1.11-.458L0 2.211 2.224 0l4.75 4.724L11.724 0z"></path></clipPath><clipPath id="uausdc-d_svg__g"><path d="m6.32 0 2.224 2.21-4.75 4.724 4.75 4.724-2.224 2.21L.46 8.04a1.558 1.558 0 0 1 0-2.21L6.32 0z"></path></clipPath><clipPath id="uausdc-d_svg__h"><path d="M5.86.458a1.58 1.58 0 0 1 2.224 0l5.86 5.829-2.223 2.21-4.749-4.723-4.748 4.723L0 6.287z"></path></clipPath><clipPath id="uausdc-d_svg__i"><path d="m2.224 0 5.86 5.829a1.56 1.56 0 0 1 0 2.21l-5.86 5.83L0 11.657l4.75-4.724L0 2.211 2.224 0z"></path></clipPath></defs><g clip-path="url(#uausdc-d_svg__a)" transform="translate(-1087 -7973)"><g clip-path="url(#uausdc-d_svg__b)" transform="translate(1087 7973)"><path fill="#2675CA" d="M0 0h100v100H0V0z"></path></g><g clip-path="url(#uausdc-d_svg__c)" transform="translate(1122.837 7998.418)"><path fill="#FFFFFF" d="M0 0h27.916v50.203H0V0z"></path></g><g clip-path="url(#uausdc-d_svg__d)" transform="translate(1099.398 7987.584)"><path fill="#FFFFFF" d="M0 0h75.202v72.084H0V0z"></path></g><g clip-path="url(#uausdc-d_svg__e)" transform="translate(1156.963 8042.776)"><path d="M0 0h30.032v30.032H0V0z"></path></g><g clip-path="url(#uausdc-d_svg__f)" transform="translate(1165.008 8048.245)"><path fill="#FFFFFF" d="M0 0h13.947v8.497H0V0z"></path></g><g clip-path="url(#uausdc-d_svg__g)" transform="translate(1173.035 8050.853)"><path fill="#FFFFFF" d="M0 0h8.544v13.868H0V0z"></path></g><g clip-path="url(#uausdc-d_svg__h)" transform="translate(1165.003 8058.842)"><path fill="#FFFFFF" d="M0 0h13.945v8.497H0V0z"></path></g><g clip-path="url(#uausdc-d_svg__i)" transform="translate(1162.379 8050.863)"><path fill="#FFFFFF" d="M0 0h8.545v13.868H0V0z"></path></g></g></svg>