<svg width="24" height="24" viewBox="0 0 24 24" fill="none" xmlns="http://www.w3.org/2000/svg">
<circle cx="12" cy="12" r="12" fill="url(#paint0_linear_944_72833)"/>
<path d="M15.7614 16.9669L14.002 18.7253L13.9881 18.7308L13.9798 18.7086C13.9244 18.548 13.6085 17.5816 13.3342 16.4241C13.2317 15.9894 13.1486 15.5823 13.0821 15.2029C13.0793 15.1918 13.0793 15.1808 13.0765 15.1697C12.8771 13.9983 12.8632 13.1011 13.0322 12.4421C13.2622 11.5311 13.941 10.188 14.5755 9.04715C13.434 9.68128 12.0902 10.3597 11.1786 10.5896C10.4914 10.764 9.54663 10.7419 8.30533 10.5203C8.29425 10.5176 8.28316 10.5176 8.27208 10.5148C7.93404 10.4539 7.57662 10.3791 7.19426 10.2877C6.03331 10.0136 5.06632 9.69512 4.90839 9.64251C4.89731 9.63974 4.889 9.63697 4.88623 9.6342L4.89176 9.61758L6.65119 7.85919C6.66227 7.86196 6.67059 7.86473 6.68167 7.8675C7.95344 8.22471 9.44688 8.53485 10.2975 8.48778C10.3113 8.48778 10.3252 8.48501 10.3391 8.48501C10.4499 8.47671 10.5496 8.46286 10.6328 8.4407C11.838 8.1361 14.5783 6.50786 15.5314 5.90419L15.609 5.85434L15.6949 5.81834C16.1853 5.61343 16.9196 5.64388 17.446 6.17002C17.9752 6.69892 18.0029 7.42997 17.7979 7.92011L17.7619 8.00595L17.712 8.08349C17.1108 9.03607 15.4816 11.7747 15.174 12.9793C15.1657 13.0125 15.1574 13.0458 15.1519 13.0845C15.1491 13.0984 15.1463 13.115 15.1463 13.1316C15.0327 13.9319 15.3652 15.5629 15.7476 16.9309C15.7559 16.9475 15.7586 16.9585 15.7614 16.9669Z" fill="#FFFF3B"/>
<path d="M7.42148 16.197L6.70662 12.1707L10.7353 12.8852L11.4529 16.9142L7.42148 16.197Z" fill="#FFFF3B"/>
<defs>
<linearGradient id="paint0_linear_944_72833" x1="12" y1="0" x2="12" y2="24" gradientUnits="userSpaceOnUse">
<stop stop-color="#3C3F45"/>
<stop offset="1" stop-color="#212225"/>
</linearGradient>
</defs>
</svg>