<?xml version="1.0" encoding="utf-8"?>
<!DOCTYPE svg PUBLIC "-//W3C//DTD SVG 20010904//EN" "http://www.w3.org/TR/2001/REC-SVG-20010904/DTD/svg10.dtd">
<svg version="1.0" width="51pt" height="51pt" viewBox="0 0 51 51" preserveAspectRatio="xMidYMid meet" xmlns="http://www.w3.org/2000/svg">
  <g transform="translate(0,51)scale(.075,.075)" fill="#8E0028">
    <path id="path1" d="M 261 -670 c -20 0 -31 5 -31 14 0 9 8 12 25 8 14 -2 28 -8 31 -13 3 -5 -9 -9 -25 -9 z M 405 -670 c -19 0 -25 5 -25 22 0 19 10 26 50 39 41 13 50 13 50 2 0 -8 -11 -25 -25 -38 -13 -14 -36 -25 -50 -25 z M 339 -658 c -9 -1 -21 3 -27 10 -6 8 -7 19 -3 27 5 7 17 11 27 9 11 -2 19 -12 19 -23 0 -11 -7 -21 -16 -23 z M 268 -628 c -10 -2 -29 8 -43 22 -14 14 -25 31 -25 39 0 7 6 21 13 31 12 17 14 16 24 -7 7 -14 21 -28 33 -32 15 -5 20 -13 18 -28 -2 -12 -11 -23 -20 -25 z M 398 -594 c -15 -3 -30 -2 -33 4 -3 5 2 10 13 10 11 0 31 9 46 21 14 11 26 27 26 35 0 8 4 14 10 14 6 0 10 -14 10 -30 0 -22 -6 -33 -22 -39 -13 -4 -35 -11 -50 -15 z M 338 -558 c -31 0 -64 5 -74 12 -14 11 -16 23 -11 67 3 30 11 67 17 84 12 29 12 30 21 7 7 -18 16 -22 48 -22 26 0 43 6 49 16 7 13 10 13 20 2 6 -8 15 -33 21 -57 5 -24 6 -53 1 -65 -4 -12 -14 -27 -21 -33 -8 -6 -40 -11 -71 -11 z m -49 38 c 5 0 14 7 21 15 10 12 9 16 -5 21 -9 4 -21 2 -27 -4 -6 -6 -7 -15 -4 -21 4 -6 11 -11 15 -11 z m 115 3 c 5 2 12 9 14 15 2 7 -3 15 -12 18 -9 3 -24 3 -34 -1 -16 -6 -16 -7 3 -21 10 -8 24 -13 29 -11 z M 470 -440 c -11 -6 -19 1 -31 29 -14 33 -14 40 -2 57 8 11 12 30 9 46 -3 16 -1 28 4 28 6 0 28 -16 49 -36 27 -24 38 -41 34 -52 -3 -9 -15 -28 -27 -40 -12 -13 -28 -27 -36 -32 z M 222 -440 c -9 0 -22 4 -29 8 -6 4 -16 19 -22 34 -9 24 -6 31 32 69 42 42 42 42 45 8 2 -18 1 -53 -3 -76 -4 -31 -11 -43 -23 -43 z M 347 -390 c -13 0 -27 3 -30 7 -4 3 -7 13 -7 21 0 12 3 12 15 2 12 -10 18 -10 30 0 13 10 15 9 15 -9 0 -15 -6 -21 -23 -21 z M 295 -334 c -25 -16 -25 -16 -25 20 0 34 1 35 32 33 18 -1 40 -1 50 0 9 0 20 13 26 29 9 27 9 27 31 -16 13 -25 19 -51 16 -63 -4 -10 -10 -19 -15 -19 -5 0 -17 11 -26 25 -10 15 -26 25 -40 25 -13 0 -24 -4 -24 -9 0 -5 -11 -16 -25 -25 z M 186 -268 c -6 1 -28 3 -48 5 -25 3 -38 9 -38 19 0 8 6 14 14 14 9 0 15 19 19 59 4 32 4 81 0 110 -6 51 -6 51 40 51 25 0 57 -5 70 -11 14 -6 30 -22 36 -36 6 -13 11 -31 11 -40 0 -9 -9 -27 -21 -39 -17 -19 -19 -26 -9 -44 6 -12 9 -32 6 -45 -4 -14 -18 -27 -37 -34 -18 -6 -37 -10 -43 -9 z m -2 18 c 13 0 32 7 40 16 9 8 16 22 16 30 0 8 -9 23 -21 35 -11 11 -28 19 -37 17 -13 -2 -18 -16 -20 -51 -3 -44 -2 -47 22 -47 z m 16 120 c 9 0 25 9 35 20 17 18 17 21 1 45 -10 16 -26 25 -41 25 -15 0 -25 -6 -25 -14 0 -7 3 -28 6 -45 4 -20 12 -31 24 -31 z M 513 -270 c -15 1 -42 7 -60 15 -17 7 -39 27 -47 44 -9 16 -16 45 -16 64 0 19 3 49 6 67 5 21 17 38 38 51 17 11 49 19 73 19 23 0 48 -3 57 -6 12 -4 16 -20 16 -55 0 -49 0 -49 -34 -49 -19 0 -37 4 -40 9 -3 5 3 11 14 14 12 3 20 14 20 26 0 12 -7 24 -15 27 -8 4 -26 3 -40 0 -15 -4 -30 -18 -36 -34 -6 -15 -12 -49 -13 -75 -1 -40 3 -52 23 -68 14 -11 36 -19 50 -17 17 2 31 13 39 31 7 15 17 25 23 22 5 -4 9 -19 9 -35 0 -19 -7 -33 -19 -40 -11 -5 -32 -10 -48 -10 z M 323 -258 c -17 -2 -34 2 -38 8 -4 7 2 14 15 17 21 5 21 10 19 112 -3 99 -2 106 17 106 18 0 19 -8 19 -120 0 -120 0 -120 -32 -123 z " />
  </g>
</svg>