<svg xmlns="http://www.w3.org/2000/svg" xmlns:xlink="http://www.w3.org/1999/xlink" width="48" height="48" viewBox="0 0 48 48">
  <defs>
    <clipPath id="clip-logo_3">
      <rect width="48" height="48"/>
    </clipPath>
  </defs>
  <g id="logo_3" data-name="logo – 3" clip-path="url(#clip-logo_3)">
    <g id="Group_1527" data-name="Group 1527" transform="translate(3.031 8.5)">
      <g id="Path_1210" data-name="Path 1210" transform="translate(33.409 33.773)" stroke-linecap="round">
        <path d="M-23.583-7.5l4.514.083,1.827,1.394h9.266L-6.63-7.564l3.9-.075L-6.389-2.773H-17.242Z" stroke="none"/>
        <path d="M -2.724954605102539 -7.639007568359375 L -6.388914108276367 -2.772727489471436 L -17.24212455749512 -2.772727489471436 L -23.58331489562988 -7.500527381896973 L -19.06943511962891 -7.417567253112793 L -17.24212455749512 -6.023337364196777 L -7.975635528564453 -6.023337364196777 L -6.629554748535156 -7.564357280731201 L -2.724954605102539 -7.639007568359375 Z" stroke="none" fill="rgba(75,75,75,0.74)"/>
      </g>
      <g id="Path_13" data-name="Path 13" transform="translate(0 0)" stroke-linecap="round">
        <path d="M41.938,27.244H33.066l-.013-.01H8.76v-.017H8.217V26.69H7.538v.527H6.994V26.69H6.315v.527H5.772V26.69H5.092v.527H0l4.7-3.649H6.131l10.014-7.936.1-1.1,4.246-3.316v6.909L13.7,23.43H28.122l-6.667-5.143-.121-7.217,4.423,3.483.132,1.163,9.968,7.833h1.362l4.72,3.694ZM8.859,16.174H0l4.7-3.649H6.131L16.145,4.589l.1-1.1L20.487.176V7.085L8.859,16.174Zm32.944,0H32.93L21.319,7.217,21.2,0l4.423,3.483.132,1.163,9.968,7.833h1.362l4.72,3.694Z" stroke="none"/>
        <path d="M 41.93840789794922 27.24355506896973 L 33.0660285949707 27.24355506896973 L 33.05318832397461 27.23364448547363 L 8.760488510131836 27.23364448547363 L 8.760488510131836 27.21701431274414 L 8.217107772827148 27.21701431274414 L 8.217107772827148 26.69027519226074 L 7.537878036499023 26.69027519226074 L 7.537878036499023 27.21701431274414 L 6.994378089904785 27.21701431274414 L 6.994378089904785 26.69027519226074 L 6.31514835357666 26.69027519226074 L 6.31514835357666 27.21701431274414 L 5.771648406982422 27.21701431274414 L 5.771648406982422 26.69027519226074 L 5.092418193817139 26.69027519226074 L 5.092418193817139 27.21701431274414 L -1.773071289790096e-06 27.21701431274414 L 4.697108268737793 23.56753540039062 L 6.130518436431885 23.56753540039062 L 16.14491844177246 15.63152503967285 L 16.24126815795898 14.53449440002441 L 20.48719787597656 11.21882438659668 L 20.48719787597656 18.12785530090332 L 13.70409870147705 23.42961502075195 L 28.12179756164551 23.42961502075195 L 21.45473861694336 18.28668403625488 L 21.33380889892578 11.07001495361328 L 25.75692749023438 14.55307483673096 L 25.88872909545898 15.71602439880371 L 35.85703659057617 23.5489444732666 L 37.21854782104492 23.5489444732666 L 41.93840789794922 27.24355506896973 Z M 8.858508110046387 16.17421531677246 L 8.858548164367676 16.17417526245117 L -1.773071289790096e-06 16.17417526245117 L 4.697108268737793 12.52469444274902 L 6.130518436431885 12.52469444274902 L 16.14491844177246 4.58869457244873 L 16.24126815795898 3.491544723510742 L 20.48719787597656 0.1759846955537796 L 20.48719787597656 7.085014820098877 L 8.858508110046387 16.17421531677246 Z M 41.80255889892578 16.1734447479248 L 32.9301872253418 16.1734447479248 L 21.31889915466309 7.2165846824646 L 21.19796752929688 3.470062074484304e-05 L 25.62106895446777 3.483104705810547 L 25.75287818908691 4.645914554595947 L 35.7210693359375 12.47884464263916 L 37.08268737792969 12.47884464263916 L 41.80255889892578 16.1734447479248 Z" stroke="none" fill="rgba(75,75,75,0.74)"/>
      </g>
    </g>
  </g>
</svg>
