<svg xmlns="http://www.w3.org/2000/svg" width="250" height="250" xmlns:v="https://vecta.io/nano"><path d="M160 4l2.366.731C178.151 9.757 192.528 16.997 205 28l2.477 2.113C226.791 46.946 240.146 68.311 247 93l.969 3.371c4.688 19.817 4.132 44.212-1.969 63.629l-.731 2.366C240.243 178.151 233.003 192.528 222 205l-2.113 2.477C203.054 226.791 181.689 240.146 157 247l-3.371.969C133.812 252.657 109.417 252.101 90 246l-2.366-.731C71.849 240.243 57.472 233.003 45 222l-2.477-2.113C23.209 203.054 9.854 181.689 3 157l-.969-3.371C-2.657 133.812-2.101 109.417 4 90l.731-2.366C9.757 71.849 16.997 57.472 28 45l2.113-2.477C46.946 23.209 68.311 9.854 93 3l3.371-.969C116.188-2.657 140.583-2.101 160 4z" fill="#12172c"/><path d="M160 4l2.366.731C178.151 9.757 192.528 16.997 205 28l2.477 2.113C226.791 46.946 240.146 68.311 247 93l.969 3.371c4.688 19.817 4.132 44.212-1.969 63.629l-.731 2.366C240.243 178.151 233.003 192.528 222 205l-2.113 2.477C203.054 226.791 181.689 240.146 157 247l-3.371.969C133.812 252.657 109.417 252.101 90 246l-2.366-.731C71.849 240.243 57.472 233.003 45 222l-2.477-2.113C23.209 203.054 9.854 181.689 3 157l-.969-3.371C-2.657 133.812-2.101 109.417 4 90l.731-2.366C9.757 71.849 16.997 57.472 28 45l2.113-2.477C46.946 23.209 68.311 9.854 93 3l3.371-.969C116.188-2.657 140.583-2.101 160 4zM60 50l-2.039 1.602c-17.537 14.184-29.081 38.407-31.68 60.473-2.105 29.377 4.328 55.348 23.406 78.176 16.092 18.43 39.095 31.078 63.582 33.098 2.73.652 2.73.652 3.902 2.48L118 228c1.604 1.918 1.604 1.918 3.438 3.688l1.809 1.824c1.792 1.708 1.792 1.708 4.754 2.488l-2-11 2.895-.367 10.183-1.368 4.806-.632c23.752-3.559 45.8-18.205 60.273-37.071 16.184-22.202 22.925-48.697 19.54-76.021-.836-4.97-2.129-9.755-3.695-14.541l-.633-1.951c-8.437-25.059-26.646-44.997-49.97-57.043C133.232 18.161 90.429 23.842 60 50z"/><path d="M197 82c2 2 2 2 2.23 4.531l-.043 2.969-.02 2.969C199 95 199 95 198 97h3c1.596 3.193 1.433 6.615.375 10-.574 2.146-.574 2.146.563 4.688 1.8 5.612 2.082 10.312-.625 15.625-4.237 4.925-8.365 7.355-14.312 9.688 6.582-1.045 10.854-2.842 16.25-6.758C205 129 205 129 206 129c.125 2.375.125 2.375 0 5l-2 2c-.504 2.278-.929 4.574-1.312 6.875-3.695 20.123-15.301 36.692-31.777 48.641-6.233 4.049-12.951 6.579-19.929 9.037l-2.297.834-2.076.725c-1.972.852-1.972.852-2.607 3.888-3.39 1.13-5.994 1.129-9.566 1.133l-3.908.004-2.032-.006c-2.052-.005-4.104 0-6.156.006l-3.904-.004-3.592-.003C112 207 112 207 110 206l-2 4-1-3-6-1v-2l-2.812-.375C95 203 95 203 92 201l2-1v-2l-2.711-1.469c-16.888-9.29-28.198-20.435-36.719-37.754-1.572-2.78-3.318-4.549-5.57-6.777-.75-3.25-.75-3.25-1-6h3l4 4c3.774 2.202 5.57 3 10 3l-3.625-1.562C55.752 148.636 51.209 143.95 49 138c-.222-2.837-.333-5.54-.312-8.375l.013-2.402c.135-7.142.632-14.532 3.3-21.223 1.711-1.57 1.711-1.57 4-2 2.961 1.195 2.961 1.195 6.375 3.125 16.064 8.612 33.566 10.3 51.563 10.25l2.163-.001c24.627-.072 53.868-4.206 72.614-21.945 3.609-4.015 5.979-8.586 8.285-13.43z" fill="#09041b"/><path d="M185.305 61.797c4.445 4.168 7.32 8.363 8.133 14.516-.861 7.253-3.828 12.977-9.195 17.93-10.63 8.334-21.675 13.075-34.68 16.07l-2.407.558c-5.785 1.253-5.785 1.253-9.156.13l1.965-.607C165.09 103.589 165.09 103.589 184 87v-2l-1.406 1.469C175.617 93.238 167.816 97.164 159 101l-1.984.868c-25.826 10.957-60.487 14.332-87.095 4.352C62.902 103.327 57.441 100.267 53 94c-.777-2.484-.777-2.484-.937-4.75l-.215-2.297C52 85 52 85 54 83l1 3 .551-2.117.762-2.758.738-2.742C58 76 58 76 61 74l1.172 5.762c1.556 4.206 3.891 6.676 7.711 8.969l3.242 1.457 3.195 1.48c10.039 3.634 20.065 3.733 30.617 3.707l2.356-.001c11.951-.032 23.248-.693 34.707-4.374l3.703-1.168c7.882-2.78 16.77-6.396 21.297-13.832-.07-3.658-.07-3.658-1-7l-2-1 1 5-2.437-2.312c-10.564-8.836-27.276-7.492-40.125-6.379-8.89 1.308-18.312 3.76-24.437 10.691-.502 3.711-.502 3.711 0 7-3.762-.522-6.322-1.223-9-4-.378-2.926-.42-4.417 1.328-6.844 10.182-8.774 21.997-11.128 34.922-12.969l4.316-.654L142 56c-19.095-.839-41.395.68-57 13-2.215 2.802-2.215 2.802-2.25 5.875 1.765 4.413 4.513 5.23 8.707 7.145 6.336 2.443 12.439 2.201 19.168 2.23l3.449.063c8.309.038 15.875-.612 22.926-5.312v-4c-3.827-1.747-7.124-2.349-11.312-2.625l-3.238-.227L120 72c2.791-2.791 4.775-2.289 8.588-2.322l2.6.01 2.541-.049c6.378-.005 10.872 1.131 16.271 4.674 1 1.688 1 1.688 1 4.625-1.305 3.997-2.384 4.893-6 7.063-18.759 8.842-43.184 9.75-63 4-11.81-4.543-11.81-4.543-15-10-.9-3.775-.792-7.379.926-10.895C75.416 59.317 88.541 55.066 100 52l3.609-.973c25.183-5.525 60.471-5.778 81.695 10.77z" fill="#12dcf6"/><path d="M133.063 54.875l2.354-.012c4.306.007 8.344.282 12.584 1.137v1l-3.672.297C115.734 58.956 115.734 58.956 92 73c-.75 2.544-.75 2.544 0 5 2.383 1.819 3.958 3 7 3l-.437-2.625c.473-3.646.742-4.14 3.313-6.5C114.469 62.234 131.795 61.871 147 63c7.368 1.205 13.878 3.339 19 9-.506-2.169-1-4-2-6 3.161 1.37 3.993 1.989 6 5 .138 3.595-.181 5.976-2.469 8.836C158.838 87.994 147.359 91.29 136 94l-2.276.546c-7.902 1.68-15.753 1.793-23.793 1.77a555.52 555.52 0 0 0-6.884.046c-14.634.064-28.145-1.909-39.734-11.611C61.32 80.574 61.682 76.546 62 72l5-2 .043 2.012c.236 4.363.422 7.219 2.957 10.863 14.904 10.557 36.244 10.9 53.753 8.249 13.124-2.14 13.124-2.14 24.497-8.562 1.972-2.408 1.972-2.408 1.875-5.187-1.473-3.11-3.056-3.914-6.125-5.375-2.824-.941-4.529-1.117-7.449-1.098l-2.568.01-2.67.025-2.705.014L122 71l2.738.367 3.574.508 3.551.492C135 73 135 73 138 75c0 2.25 0 2.25-1 5-10.718 7.613-26.589 5.95-39 5-5.579-.986-10.926-2.725-14.812-6.988C82 76 82 76 81.938 73.063c2.002-5.77 6.669-8.026 11.875-10.625 12.207-5.308 26.012-7.629 39.25-7.562z" fill="#0c041b"/><path d="M67 127l1.484 1.102c8.039 5.406 16.941 7.79 26.204 10.269 1.994.543 3.968 1.156 5.937 1.782 6.576 1.606 13.52 1.193 20.25 1.16l2.233-.005c17.989-.066 35.139-2.341 51.892-9.308.388 4.501.388 4.501-1.293 6.66-14.856 10.997-34.351 10.646-52.02 10.465l-5.17-.027L104 149c2.191 2.52 3.696 3.493 7 4 15.657 1.017 31.175-.171 46.316-4.316 2.878-.733 5.75-1.231 8.684-1.684-.309 2.857-.492 4.516-2.613 6.535-3.012 1.848-5.916 2.666-9.324 3.59l-3.652 1.008c-5.632 1.432-10.79 2.027-16.605 2.035l-2.388.01-4.998.007-7.544.039c-22.477.079-22.477.079-30.875-5.225l-1-2 10 2v-3l-3.5-.25c-5.641-.711-10.569-2.698-14.5-6.875C78 143 78 143 78 141l2.703.691 3.547.871 3.516.879c2.962.512 4.49.65 7.234-.441l1-1-2.93-.699c-20.6-5.09-20.6-5.09-26.07-12.301v-2z" fill="#df2e7d"/><path d="M197 82c2.517 2.517 2.382 3.565 2.5 7.063-.16 6.437-2.102 10.301-6.5 14.938-24.011 21.344-58.604 23.241-89 22a108.67 108.67 0 0 1-15-2l-3.238-.66C74.003 120.66 63.169 116.156 56 106l1-2 1.59 1.137c5.324 3.517 10.582 5.811 16.66 7.613l1.98.6c12.003 3.37 24.306 4.059 36.707 4.025l2.163-.001c24.627-.072 53.868-4.206 72.614-21.945 3.609-4.015 5.979-8.586 8.285-13.43z" fill="#5c2495"/><path d="M193 73c1.892 2.386 3.024 4.072 4 7-1.031 8.041-4.896 13.845-11 19-4.52 3.009-9.164 5.539-14 8l-2.75 1.469c-7.972 3.986-16.539 5.886-25.25 7.531l-2.868.546c-8.755 1.516-17.397 1.814-26.257 1.766l-2.193-.007c-18.629-.089-37.154-1.634-53.448-11.56L56 105c-3.278.752-3.278.752-5 4v-2l-2-1 1.938-1.625C53.4 101.539 53.524 99.657 54 96l2.055 1.391c23.927 15.775 52.634 15.117 80.016 9.938C155.127 103.302 172.178 95.906 186 82c-.876 5.97-3.543 9.06-8 13-11.227 7.752-23.923 12.389-37 16 18.677-3.715 37.313-8.668 49-25 1.938-4.212 2.449-8.408 3-13z" fill="#06061e"/><path d="M134 53v1l-2.655.471-9.93 1.817-4.265.771C105.747 59.083 94.296 61.661 85 69c-2.215 2.802-2.215 2.802-2.25 5.875 1.765 4.413 4.513 5.23 8.707 7.145 6.336 2.443 12.439 2.201 19.168 2.23l3.449.063c8.309.038 15.875-.612 22.926-5.312v-4c-3.827-1.747-7.124-2.349-11.312-2.625l-3.238-.227L120 72c2.791-2.791 4.775-2.289 8.588-2.322l2.6.01 2.541-.049c6.378-.005 10.872 1.131 16.271 4.674 1 1.688 1 1.688 1 4.625-1.305 3.997-2.384 4.893-6 7.063-18.737 8.831-43.207 9.775-63 4-10.817-4.225-10.817-4.225-14-9l4 1-1-2c-.485-4.199-.36-6.391 1.813-10.062C86.969 55.111 114.64 52.16 134 53z" fill="#f02776"/><path d="M57 78h1l.262 2.047c.829 5.649.829 5.649 3.863 10.328L65 92l3.25 2c14.983 6.994 31.559 6.783 47.75 7v6c21.286-2.517 50.8-6.437 65.063-24.5L183 80h3c-2.979 8.711-10.625 13.153-18.5 17.125-2.809 1.352-5.642 2.631-8.5 3.875l-1.984.868c-25.826 10.957-60.487 14.332-87.095 4.352C62.902 103.327 57.441 100.267 53 94c-.777-2.484-.777-2.484-.937-4.75l-.215-2.297C52 85 52 85 54 83l1 3 2-8z" fill="#0d6bc3"/><path d="M188 113c-.46 4.945-1.609 7.39-5 11-7.429 4.585-15.505 8-24 10l-3.34.805c-26.478 6.037-59.396 7.288-83.344-7.457-4.945-3.605-4.945-3.605-6.316-6.348 5.512 1.788 5.512 1.788 8.109 2.918 29.353 12.199 70.083 8.751 98.949-3.102 4.124-1.819 7.87-3.995 11.445-6.75C186 113 186 113 188 113z" fill="#692293"/><path d="M185.305 61.797c4.549 4.266 7.461 8.48 8.008 14.828-.285 3.074-.672 4.811-2.312 7.375h-2l.105-2.195c.26-7.865.26-7.865-3.105-14.805-2.56-2.474-5.225-4.772-8-7l2 2.313C182 65 182 65 182 68l-1.363-1.391C175.223 61.445 170.172 58.981 163 57l-3.055-.906c-24.456-6.1-56.843-3.805-79.227 8.746C77.063 67.324 74.464 69.304 72 73c-.241 2.286-.241 2.286-.125 4.688l.055 2.449L72 82l-5-2c-.582-4.756-.799-8.712 2.25-12.625C77.534 59.033 88.875 54.977 100 52l3.609-.973c25.183-5.525 60.471-5.778 81.695 10.77z" fill="#eee1d9"/><path d="M157 159l1 4c-10.232 9.342-28.744 8.712-41.754 8.161-7.54-.541-16.124-1.467-22.246-6.161-.634-2.103-.634-2.103-1-4l2.275.424c8.987 1.544 17.818 1.969 26.913 1.951l2.181.004c11.272-.003 21.833-.978 32.631-4.379z" fill="#5b2693"/><path d="M166 147c-.309 2.857-.492 4.516-2.613 6.535-3.012 1.848-5.916 2.666-9.324 3.59l-3.652 1.008c-5.632 1.432-10.79 2.027-16.605 2.035l-2.388.01-4.998.007-7.544.039c-22.477.079-22.477.079-30.875-5.225l-1-2 3.5.875 2.227.547c1.418.361 2.831.742 4.234 1.156 5.39 1.54 10.456 1.628 16.039 1.422l1-3 2.5-.12c16.32-.824 33.883-6.88 49.5-6.88z" fill="#94258f"/><path d="M67 127l1.484 1.102C79.272 135.356 92.52 137.945 105 141l-.527 1.867c-.539 2.431-.179 3.778.527 6.133v2l9 3-1 4c-6.404.236-11.846-.177-18-2l2-1v-3l-3.5-.25c-5.641-.711-10.569-2.698-14.5-6.875C78 143 78 143 78 141l2.703.691 3.547.871 3.516.879c2.962.512 4.49.65 7.234-.441l1-1-2.93-.699c-20.6-5.09-20.6-5.09-26.07-12.301v-2z" fill="#3e309a"/><path d="M173 131l-1 3c-5.513 2.449-11.117 3.87-17 5.125l-2.289.512c-10.191 2.224-20.183 2.672-30.586 2.738l-2.219.017C108.309 142.436 97.86 141.277 87 137l1-3 2.699.656c25.569 5.622 60.866-10.308 82.301-3.656z" fill="#0f041e"/><path d="M121 60l-1 2 3.27-.48c12.844-1.59 30.085-3.233 41.73 3.48 1.626 2.42 2.107 3.356 1.625 6.25L166 73l-1.937-2.312C160.654 67.259 156.594 66.164 152 65l-2.215-.566c-15.323-2.386-34.443-1.331-47.41 7.879-2.739 2.571-2.739 2.571-2.75 6.5L100 82c-3.762-.522-6.322-1.223-9-4-.378-2.926-.42-4.417 1.328-6.844C100.374 64.222 110.245 59.693 121 60z" fill="#383a9f"/><path d="M204 135h2c1.489 13.769-4.858 29.874-13.26 40.61-3.061 3.656-6.347 7.041-9.74 10.39l-2.062 2.059c-8.8 8.232-22.525 16.524-34.848 17.07L144 205c1-3 1-3 2.607-3.888l2.076-.725 2.297-.833 2.457-.866C171.807 191.846 187.091 179.819 196 162c3.304-7.776 5.534-15.393 6.641-23.77C203 136 203 136 204 135z" fill="#e4266b"/><path d="M188 113c-.46 4.945-1.609 7.39-5 11-7.429 4.585-15.505 8-24 10l-3.34.805c-14.288 3.258-28.08 3.327-42.66 3.195v-1l3.488-.113c10.904-.424 21.573-1.443 32.302-3.48 1.558-.287 3.124-.529 4.693-.739 2.323-.37 4.356-.734 6.517-1.667l2-6c2.906-1.862 6.077-2.956 9.313-4.125C176.024 119.107 183.76 113 188 113z" fill="#d8347d"/><path d="M165 145l1 2c-14.833 5.25-28.57 7.052-44.25 7.25l-2.87.065c-5.762.027-9.763-.629-14.88-3.315v-2l3.143-.044 11.787-.218 5.056-.084c12.326-.173 23.756-1.445 35.771-4.311C162 144 162 144 165 145z" fill="#180525"/><path d="M169 69l2 1c.296 5.024.303 8.097-3 12-9.594 7.772-21.044 10.759-32.73 13.949l-1.981.542c-7.788 1.733-15.584 1.762-23.519 1.804l-4.496.062C91.788 98.623 77.141 97.541 66 89c-2.201-2.201-4.158-4.493-6-7l-2 3-.187-4.375-.105-2.461L58 76l3-2 1.172 5.762c1.556 4.206 3.891 6.676 7.711 8.969l3.242 1.457 3.195 1.48c10.039 3.634 20.065 3.733 30.617 3.707l2.356-.001c11.951-.032 23.248-.693 34.707-4.374l3.703-1.168C155.63 87.036 164.402 83.427 169 76c.251-3.667.251-3.667 0-7z" fill="#b8cbc4"/><path d="M183 80h3c-2.979 8.712-10.625 13.152-18.5 17.125-16.642 8.042-33.869 13.256-52.5 12.875v-2c6.095-1.647 12.115-3.083 18.375-3.937C151.514 101.419 171.418 94.945 183 80z" fill="#0c6abc"/><path d="M50 154c4.834 2.29 6.194 4.8 8.313 9.625 2.646 5.765 5.68 10.157 10.184 14.703C70 180 70 180 70 182l1.75.801c2.353 1.254 4.198 2.689 6.25 4.387 4.609 3.678 9.523 6.512 14.691 9.332L95 198v2c-7.423.814-14.272-4.776-20-9-11.295-9.293-19.666-20.349-25-34v-3z" fill="#e0266b"/><path d="M143 142l-1 4c-7.55 2.344-15.011 2.51-22.875 2.75l-4.031.168-3.836.129-3.496.12C105 149 105 149 103 147l1-1v-3c1.93-1.93 5.503-1.277 8.141-1.352l2.179-.07 4.58-.136 6.979-.224 4.449-.133 2.1-.072c3.677-.094 7 .093 10.572.986z" fill="#622593"/><path d="M147 177c-3.924 6.05-9.266 7.511-16 9-3.122.216-6.246.185-9.375.188l-2.539.037c-5.476.013-10.501-.157-14.961-3.725C103 181 103 181 103 179l3.438.5c12.473 1.31 23.442.8 35.465-2.723C145 176 145 176 147 177z" fill="#5b279f"/><path d="M157 159l1 4c-10.97 10.016-30.229 8.278-44 8l-1-2 19-1-1-3c2.437-2.437 8.597-2.28 12.035-2.807 4.789-.759 9.332-1.759 13.965-3.193z" fill="#e61e74"/><path d="M50 107l2 2c-.242 1.969-.242 1.969-.875 4.5-1.759 8.819-3.771 21.273 1.063 29.375 1.349 1.719 1.349 1.719 2.813 3.125l2.25 2.313c3.713 2.279 7.58 3.488 11.75 4.688v1c-6.875.625-11.533-.671-17-5-6.088-7.196-7.44-15.024-7.332-24.234.462-5.238 1.417-13.851 5.332-17.766z" fill="#25c1df"/><path d="M166 147c-.309 2.857-.492 4.516-2.613 6.535-3.012 1.848-5.916 2.666-9.324 3.59l-3.652 1.008c-5.231 1.33-9.823 1.989-15.242 1.965l-3.916-.01-4.064-.025-4.123-.014L113 160v-1l3.77-.184 12.854-.688 6.018-.276 2.922-.164 2.504-.113c2.12-.387 2.12-.387 3.023-2.492L145 153c3.129-2.086 5.37-2.713 9-3.562C164.306 147 164.306 147 166 147z" fill="#e32779"/><path d="M53 83h1l.297 1.793.453 2.395.422 2.355c1.761 5.225 5.162 8.069 9.953 10.52C79.674 106.888 95.169 107.688 111 108v2c-41.426.951-41.426.951-54.48-11.401-2.668-2.991-4.159-5.338-4.395-9.349l-.18-2.297C52 85 52 85 53 83z" fill="#27cbee"/><path d="M141 187c-2.463 3.797-4.904 6.056-9.25 7.496-3.818.7-7.562.831-11.437.879l-2.233.042c-5.789-.051-9.032-1.37-13.079-5.417v-3l3.125 1c9.624 2.363 19.158 1.383 28.547-1.441C139 186 139 186 141 187z" fill="#e32573"/><path d="M188 83l3 1c-2.457 9.009-11.222 13.781-18.758 18.215-7.325 4.033-14.566 6.229-22.68 8.098l-2.407.558c-5.785 1.253-5.785 1.253-9.156.13l1.965-.607C164.818 103.291 164.818 103.291 184 87l4-4z" fill="#17c8d8"/><path d="M139 76c.814 2.278 1.095 3.637.477 6-2.245 3.041-5.201 3.47-8.727 4.25l-2.247.508C115.518 89.384 99.475 90.19 87 85l-2-2 4.25-.062 2.391-.035C94 83 94 83 95.79 83.493c4.822 1.105 9.912.735 14.835.757l3.449.063c8.016.037 16.991-.036 23.051-6L139 76z" fill="#e0bec2"/><path d="M185 114l1 4c-6.466 6.734-13.022 10.414-22 13h-3c-.082-2.738-.082-2.738 1-6 2.89-1.922 6.06-3.013 9.313-4.187l5.176-1.98 2.329-.852c2.349-1.055 4.183-2.368 6.182-3.98z" fill="#bf1d80"/><path d="M107 196l3.375 1c8.412 2.073 16.299.984 24.625-1-3.986 6.548-3.986 6.548-8 8-12.831 1.33-12.831 1.33-17.875-1.75C107 200 107 200 107 196z" fill="#ed1777"/><path d="M100 171l2.289.438c7.736 1.304 15.249 1.781 23.086 1.813l2.807.027c5.628-.024 10.405-.753 15.818-2.277 3-.125 3-.125 5 0-2.384 2.384-3.952 2.71-7.187 3.563l-2.793.754c-6.858 1.553-13.519 1.894-20.52 1.934l-2.762.063c-5.672.033-9.78-.46-14.738-3.312l-1-3z" fill="#932d7f"/><path d="M59 80l1.625 2.188C68.31 91.288 78.485 94.889 90 97c-3.589 2.393-5.865 2.582-10 2-7.895-1.909-16.761-4.712-21.234-12.016-1.014-2.628-.506-4.318.234-6.984z" fill="#0feff7"/><path d="M78 141c17.19 3.082 17.19 3.082 21.063 7.75L101 152c-6.988.527-12.712-.861-19-4-2.687-2.625-2.687-2.625-4-5v-2z" fill="#16bbec"/><path d="M109 205l3 1 4.012.098 2.295-.01 2.381-.025 2.416-.014L129 206c-.706 3.263-1.41 4.824-4 7-3.11 1.555-5.563 1.286-9 1-3.375-1.687-3.375-1.687-6-4-.875-2.75-.875-2.75-1-5z" fill="#e6237c"/><path d="M185 82l1 3c-5.084 9.532-14.454 14.64-24 19h-3v-2l-2-1 3.184-1.504C174.195 92.855 174.195 92.855 185 82z" fill="#050e27"/><path d="M60 74h1l1.172 5.762c1.992 5.385 5.51 8.009 10.578 10.363C85.95 95.85 99.821 96.524 114 97v1c-34.795 1.124-34.795 1.124-48-9-2.201-2.201-4.158-4.493-6-7l-2 3-.125-4.375-.07-2.461C58 76 58 76 60 74z" fill="#d3ecde"/><path d="M164 138h-3v4c-7.902 3.863-16.222 5.39-25 5v-1l6-1v-4l8.75-2.062 2.5-.604 2.422-.557 2.222-.524c2.308-.278 3.906.048 6.106.746z" fill="#ad1c87"/><path d="M198 89h1c.824 5.355-.954 8.487-3.984 12.699C186.461 111.464 171.813 118.9 159 121c-2.277-.434-2.277-.434-4-1l3.008-1.066c21.934-7.269 21.934-7.269 37.43-23.184.996-2.233 1.787-4.424 2.563-6.75z" fill="#d73c6f"/><path d="M157 121c-10.64 6.491-27.657 5.287-39.562 5.313l-3.875.016c-9.175-.07-9.175-.07-12.563-2.329l2.851-.044c22.727-.13 22.727-.13 45.137-3.432 3.053-.531 5.052-.356 8.012.477z" fill="#81268c"/><path d="M56 104l2.746 1.426C65.388 108.834 71.808 111.892 79 114l-2 5c-8.476-1.138-13.782-4.461-19.5-10.75C56 106 56 106 56 104z" fill="#1d84d3"/><path d="M204 135h2c.709 6.552-.369 12.162-2.312 18.375l-.645 2.09c-1.188 3.619-2.322 6.808-5.042 9.535h-3c.92-2.836 1.863-5.65 2.953-8.426 2.347-6.051 3.768-11.807 4.652-18.238C203 136 203 136 204 135z" fill="#552488"/><path d="M128 61c28.491-.906 28.491-.906 37 4 1.626 2.42 2.107 3.356 1.625 6.25L166 73l-1.937-2.312c-3.469-3.45-7.409-4.502-12.062-5.687l-2.312-.59C142.536 62.799 135.305 62.4 128 62v-1z" fill="#0b71c4"/><path d="M150.188 151.375L152 152l-2 5 2 1c-8.386 2.194-16.499 2.236-25.125 2.125l-4.055-.027L113 160v-1l3.77-.184 12.854-.688 6.018-.276 2.922-.164 2.504-.113c2.12-.387 2.12-.387 3.023-2.492L145 153c3-2 3-2 5.188-1.625z" fill="#d63880"/><path d="M147 177c-3.223 4.969-6.533 6.42-12 8l-1.797.574c-3.165.612-6.234.518-9.453.488l-3.828-.027L117 186v-1l2.738-.297 3.574-.453 3.551-.422c3.686-.973 4.004-1.857 6.137-4.828 2.848-1.082 2.848-1.082 6.063-1.812l3.223-.77C145 176 145 176 147 177z" fill="#dd3977"/><path d="M135 192l2 1c-1 3-1 3-3.187 4.125-7.246 2.254-15.444 3.014-22.812.875v-3l3.727-.148 4.898-.227 2.449-.094c4.683-.228 8.473-.956 12.926-2.531z" fill="#1c0a26"/><path d="M93 161c8.531.744 14.099 1.551 20 8v1c-13.66-.502-13.66-.502-19-5-.711-2.137-.711-2.137-1-4z" fill="#2cd5f0"/><path d="M63 161h3l.629 1.609c1.903 4.362 3.639 7.443 8.09 9.648 4.946 1.609 10.13 2.154 15.281 2.742v2c-8.623.428-15.414-.003-22.375-5.437-3.661-3.574-3.661-3.574-4.625-6.562v-4z" fill="#30ccdd"/><path d="M203 118h3c.458 5.612-.345 9.676-4 14-5.162 4.521-10.242 5.828-17 6 2.521-2.101 5.038-3.516 8-4.875 3.694-1.826 5.857-3.498 8-7.125.862-2.662 1.44-5.249 2-8z" fill="#d02968"/><path d="M112 215l1.672.496c2.594.562 4.926.601 7.578.566l2.703-.027L126 216v8c-3.834.365-5.788.11-9.25-1.687-2.828-2.378-3.776-3.804-4.75-7.312z" fill="#ce3f5e"/><path d="M143 164h-3v4l-2.312.375c-2.89.506-2.89.506-5.687 2.625-1.993.227-1.993.227-4.23.195l-2.432-.02-2.525-.051-2.561-.027L114 171l-1-2 19-1-1-3c2.807-2.807 8.5-2.26 12-1z" fill="#bf2a78"/><path d="M66 121l2.516.855 7.281 2.258 3.953 1.199 2.035.568c3.395 1.058 4.931 1.599 6.668 4.787L89 133c-8.226-1.015-16.374-3.541-21.785-10.195L66 121z" fill="#159bde"/><path d="M191 153h3c-.08 2.717-.558 4.486-2.344 6.563-5.371 4.882-10.839 7.586-18.156 7.625L170 167l1-2c2.064-.668 4.152-1.26 6.25-1.812 7.129-2.093 9.668-4.065 13.75-10.187z" fill="#de286d"/><path d="M50 154c4.831 2.262 6.578 5.309 8.688 10 2.402 5.135 2.402 5.135 5.313 10-2.27.355-2.27.355-5 0-1.949-2.449-1.949-2.449-3.687-5.687l-1.762-3.199C50 157.985 50 157.985 50 154z" fill="#612489"/><path d="M198 164c-.54 4.479-2.232 7.196-4.875 10.813l-2.117 2.957L189 180h-3c-2.688 2.438-2.688 2.438-5 5l-2-1 1.504-1.363c4.958-4.695 8.576-9.54 12.051-15.414C194.221 164.66 194.941 164 198 164z" fill="#bf2371"/><path d="M184 67c1.875.188 1.875.188 4 1 2.301 3.912 2.318 7.544 2 12-1 2.938-1 2.938-2 5l-2-1v-4l-3-1 .219-1.863.281-2.449.281-2.426c.267-2.381.267-2.381.219-5.262z" fill="#0eb5ea"/><path d="M67 127l1.484 1.102c8.108 5.452 17.055 7.705 26.384 10.216 2.182.699 4.113 1.607 6.131 2.683-11.569.667-23.642-2.702-32.625-10.187C67 129 67 129 67 127z" fill="#2fbccd"/><path d="M50 107l2 2c-.207 2.109-.207 2.109-.812 4.75-1.382 6.716-1.808 13.414-2.187 20.25h-1l-1-12-1 13h-1c-.525-9.729.387-17.903 4-27l1-1z" fill="#1086be"/><path d="M103 67c.188 2.313.188 2.313 0 5l-1.5 1.375c-1.899 1.709-1.899 1.709-1.687 5.313L100 82l-5-1c-1.558-5.992-1.558-5.992-.023-8.766C99.322 67 99.322 67 103 67z" fill="#1c71c7"/><path d="M75 65l1 3-1.937 2.125C71.221 74.086 71.63 77.279 72 82l-5-2c-.622-7.933-.622-7.933 1.75-12 2.203-1.958 3.359-2.69 6.25-3z" fill="#efedec"/><path d="M133.063 54.875l2.354-.012c4.306.007 8.344.282 12.584 1.137v1l-1.725.168-7.838.77-2.713.264c-4.93.488-9.827 1.053-14.725 1.799l1-3h-5v-1c5.398-.906 10.594-1.152 16.063-1.125z" fill="#121732"/><path d="M114 154h18l-1 4h-18l1-4z" fill="#7f2596"/><path d="M105 141l-.562 1.75c-.478 2.457-.195 3.894.563 6.25-1.687.688-1.687.688-4 1-3.446-1.641-4.857-2.785-7-6 3.344-3.845 6.163-4.555 11-3z" fill="#4a2f8e"/><path d="M90.256 97.865l4.158.159 2.211.076 7 .276 4.742.172L120 99v1c-6.223 1.104-12.316 1.149-18.625 1.125l-3.102.012-3-.004-2.706-.003c-2.611-.132-5.021-.553-7.568-1.129 2-2 2-2 5.256-2.135z" fill="#0feafa"/><path d="M134 53v1c-22.801 4.982-22.801 4.982-32 3v-1c10.805-2.058 20.963-3.479 32-3z" fill="#e73e86"/><path d="M186 168c0 3 0 3-1.469 4.719-9.283 8.14-16.257 8.747-28.531 8.281 3.211-1.849 5.964-2.373 9.625-2.812 7.759-1.205 15.271-3.924 20.375-10.187z" fill="#df2b6e"/><path d="M181 61c3.473.564 4.913 1.609 7.125 4.313l1.508 1.801c3.167 4.37 3.756 7.44 3.367 12.887-1 2.438-1 2.438-2 4h-2l.105-2.195c.259-9.241-2.1-13.988-8.105-20.805z" fill="#dee9db"/><path d="M87 153l11.625 3.031c4.926 1.231 9.818 1.417 14.875 1.594l2.781.117L123 158v1c-25.394 2.067-25.394 2.067-35-4l-1-2z" fill="#852e8f"/><path d="M135 105l-1 3c-6.43 1.324-12.429 2.248-19 2v-2c6.801-1.904 12.919-3.409 20-3z" fill="#0a71c7"/><path d="M183 80h3c-1.988 6.026-5.956 9.345-11 13-2.42 1.078-4.37 1.552-7 2l-1-2 2.23-1.32c6.49-3.84 6.49-3.84 11.77-9.117L183 80z" fill="#0779c6"/><path d="M103 179l5.875.688 3.305.387c2.82.926 2.82.926 4.203 3.508L117 186c-9.117-.348-9.117-.348-12.625-2.937C103 181 103 181 103 179z" fill="#25d0ec"/><path d="M141.063 52.625l3.66-.148C148 53 148 53 152 58h-16v-1l6-1-13-1v-1c4.038-.935 7.921-1.26 12.063-1.375z" fill="#2bbdd0"/><path d="M85 83c4.596-.146 8.722-.196 13.188.938 6.168 1.548 12.484 1.72 18.813 2.063v1l-11.5.188-3.266.076C95.733 87.323 90.918 86.737 85 84v-1z" fill="#f6ded7"/><path d="M59 80l1.625 2.188C63.215 85.254 65.878 87.489 69 90l2 2h-2v2c-5.654-1.315-7.96-3.209-11-8 .188-3.375.188-3.375 1-6z" fill="#29eaf5"/><path d="M100 171l6.688.75 3.762.422c3.84.896 5.709 2.155 8.551 4.828-6.722.328-12.095.466-18-3l-1-3z" fill="#7cdedf"/><path d="M185 114l1 4-4.375 4-2.461 2.25C177 126 177 126 175 126c-.062-2.625-.062-2.625 1-6 2.802-2.347 5.829-4.193 9-6z" fill="#e81b78"/><path d="M105 187c3.433.779 6.754 1.624 10 3 1.625 2.688 1.625 2.688 2 5-7.317-.488-7.317-.488-10.5-2.875C105 190 105 190 105 187z" fill="#30d6ea"/><path d="M69 111l10 3-2 5-4.375-.875-2.461-.492C68 117 68 117 66 115h4l-1-4z" fill="#2f5ebd"/><path d="M132 59l8.25.563 2.258.131L148 60v1l-3.988.184c-13.525.637-13.525.637-27.012 1.816 4.675-3.732 9.108-5.649 15-4z" fill="#16b8e1"/><path d="M157 121c-8.624 4.83-19.417 4.278-29 4v-1l1.88-.26 8.432-1.178 2.959-.408 2.842-.4 2.618-.365c6.961-1.193 6.961-1.193 10.268-.389z" fill="#a82885"/><path d="M53 83h1l.227 1.688C55.33 91.089 57.774 95.123 62 100l-1 2c-4.336-3.276-7.073-5.755-9-11-.4-5.2-.4-5.2 1-8z" fill="#d7d4ce"/><path d="M113 213h14v8h-1v-5l-2 1c-7.467.356-7.467.356-11-2v-2z" fill="#190c24"/><path d="M107 196l9 3 1 5c-4.128-.469-7.053-.94-10-4v-4z" fill="#d4dbd4"/><path d="M187 178l1 3-4.312 4.375-2.426 2.461C179 190 179 190 176 192l-3-1c3.113-4.003 5.55-6.49 10-9 1.37-1.296 2.715-2.62 4-4z" fill="#ed2773"/><path d="M188 83l3 1c-1.453 5.327-5.081 8.364-9 12l-3-1 2.375-2.687c2.215-2.633 3.423-5.076 4.625-8.312l2-1z" fill="#16d9ed"/><path d="M139 76c.825 2.311 1.099 3.641.438 6.031-2.171 2.974-4.523 3.025-8.062 3.719l-3.602.734L125 87l-1-3 2.012-.48c5.761-1.522 9.212-2.862 12.988-7.52z" fill="#e2c7c8"/><path d="M157 159l1 4c-5.852 5.343-15.247 7.308-23 7l-2-2 2.563-.332c11.208-1.147 11.208-1.147 20.438-6.855l1-1.812z" fill="#d94179"/><path d="M132 58h20v3l-21-1 1-2z" fill="#0deaf9"/><path d="M118 226l8 1 2 9c-3.98-2.161-6.973-4.627-10-8v-2z" fill="#d43c6d"/><path d="M201 105h2c2.219 4.622 3.383 7.768 3 13h-3l-1.562-4.25-.879-2.391c-.604-2.55-.406-3.913.441-6.359z" fill="#4f6fb2"/><path d="M78 141h2l.188 1.875c.623 2.347.623 2.347 3.063 3.25L86 147l2.375 1.063c2.758 1.088 2.758 1.088 6.375 1.438l3.25.5 1 2c-7.685-.315-14.525-1.308-20-7.125C78 143 78 143 78 141z" fill="#b8d3ce"/><path d="M115 190h12l-2 4h-9l-1-4z" fill="#6e21a0"/><path d="M152 169l-1 2c-2.145.633-2.145.633-4.812 1.125l-2.645.508C141 173 141 173 137 173c.625-1.937.625-1.937 2-4 4.518-1.366 8.407-.827 13 0z" fill="#1c061f"/><path d="M164 138h-3v4l-8 3 1-5h2v-2c3.053-.981 4.947-.981 8 0z" fill="#c71b7c"/><path d="M60 74h1l.75 3.688C62.966 82.594 65.467 85.467 69 89c-2.379-.176-3.702-.697-5.379-2.402C62.379 85.094 61.186 83.549 60 82l-2 3-.125-4.375-.07-2.461C58 76 58 76 60 74z" fill="#deeae2"/><path d="M125 165h6l1 3c-2.766.922-4.383 1.118-7.23 1.098l-2.432-.01-2.525-.025-2.561-.014L111 169v-1h14v-3z" fill="#872797"/><path d="M55 165c2.704.364 3.744.681 5.484 2.848l1.266 2.215 1.297 2.223L64 174c-2.25.375-2.25.375-5 0-2.575-3.132-4-4.894-4-9z" fill="#832386"/><path d="M173 113l3 1c-3.265 2.785-6.416 3.995-10.5 5.25l-3.406 1.078c-3.048.662-4.219.534-7.094-.328l3.43-1.277 4.445-1.66 2.262-.842c3.991-1.472 3.991-1.472 7.863-3.221z" fill="#d8327c"/><path d="M109 205l7 2 1 6c-3.107-.336-4.604-.59-6.812-2.875C109 208 109 208 109 205z" fill="#88d9e5"/><path d="M141 178c-.125 1.875-.125 1.875-1 4-3.014 1.407-5.06 2.148-8.375 1.625L130 183c1.125-1.937 1.125-1.937 3-4 2.746-.673 5.18-1 8-1z" fill="#e61b77"/><path d="M93 161h2l1.813 1.875c4.422 4.296 10.332 4.926 16.188 6.125v1c-13.66-.502-13.66-.502-19-5-.711-2.137-.711-2.137-1-4z" fill="#cbd3c7"/><path d="M201 154h1c-.758 7.883-.758 7.883-4 11h-3c1.255-4.496 2.848-7.543 6-11z" fill="#722689"/><path d="M114 154h10c-3 4-3 4-5.043 4.391L113 158l1-4z" fill="#5c269b"/><path d="M80 142c3.094.427 6.059.93 9 2 1.563 2.625 1.563 2.625 2 5-4.825-1.113-7.846-2.089-11-6v-1z" fill="#28def4"/><path d="M103 67c.25 2.313.25 2.313 0 5-2 1.813-2 1.813-4 3v-2l-4 1c3.868-7 3.868-7 8-7z" fill="#2b62c9"/><path d="M67 127l2.012 1.242 2.676 1.633 2.637 1.617c2.51 1.414 4.979 2.507 7.676 3.508v2c-5.87-.294-9.856-3.024-14-7l-1-3z" fill="#93ccd0"/><path d="M186 113h2c-.454 4.883-1.573 7.478-5 11-2.562 1.875-2.562 1.875-5 3l-3-1 1.68-1.242 2.195-1.633 2.18-1.617c3.449-2.673 4.271-4.235 4.945-8.508z" fill="#dd496c"/><path d="M192 144l2 1c-5.281 4.527-8.992 6.326-16 6v-2l2.809-.84 3.629-1.098 3.621-1.09c2.8-.682 2.8-.682 3.941-1.973z" fill="#bd2f5c"/><path d="M175 132c.23 2.297.23 2.297 0 5-3.368 3.777-7.874 6.68-13 7v-2l1.645-.77 2.168-1.043 2.145-1.02c2.054-1.174 3.459-2.424 5.043-4.168l-1-2c2-1 2-1 3-1z" fill="#de4f72"/><path d="M89.602 97.805l3.023.07 3.039.055L98 98v3c-4.516.077-8.591.102-13-1 2-2 2-2 4.602-2.195z" fill="#0ae2f4"/><path d="M97 152l7 1 1 2-1 2h-7l-2-2h2v-3z" fill="#241f67"/><path d="M150.188 151.375L152 152c-.562 1.938-.562 1.938-2 4-3.625.75-3.625.75-7 1 1.497-3.455 2.908-6.359 7.188-5.625z" fill="#c41e82"/><path d="M176 59c5.011 1.432 6.945 3.984 10 8h-2l1 7c-2-3-2-3-2.812-5.812-1.46-3.919-3.395-6.101-6.187-9.187z" fill="#3be0f0"/><path d="M127 206h2c-.564 3.271-1.457 4.864-4 7-2.957 1.478-5.742 1.06-9 1l1-2h2l1-3v3c3.814-1.168 3.814-1.168 6.313-4.125L127 206z" fill="#c94d76"/><path d="M60 174c2.709.155 4.466.482 6.445 2.402L70 181c-2.187.375-2.187.375-5 0-2.038-1.834-3.388-3.743-5-6v-1z" fill="#c82877"/><path d="M112 215c3.889 1.261 5.894 2.453 8 6v2c-3.889-1.261-5.894-2.453-8-6v-2z" fill="#a5cbd4"/><path d="M132 196l3 1c-2.416 3.278-4.177 5.525-8 7-2.578.195-2.578.195-5.25.125l-2.703-.055L117 204v-1l2.336-.402 3.039-.535 3.023-.527c2.571-.412 2.571-.412 4.602-1.535 1.134-2.017 1.134-2.017 2-4z" fill="#e04970"/><path d="M115 174l5.313-.187 2.988-.105c2.699.293 2.699.293 4.555 1.805L129 177l-4.75.188-2.672.105c-3.025-.344-4.334-1.295-6.578-3.293z" fill="#4d3095"/><path d="M183 163c-2 3-2 3-5 4l-4.187.063L170 167c1-2 1-2 3.215-2.887l2.723-.801 2.715-.824C181 162 181 162 183 163z" fill="#d42462"/><path d="M189 107l-4.187 2.938-2.355 1.652c-2.537 1.456-4.579 2.006-7.457 2.41 2.152-2.287 4.361-4.05 7-5.75l2.063-1.359C186 106 186 106 189 107z" fill="#e13b78"/><path d="M96 70l-1 10-4-2c-.366-4.517-.366-4.517 1.375-6.812C94 70 94 70 96 70z" fill="#5f2397"/><path d="M164 149l1 3c-4.514 3.819-9.097 5.347-15 5 3.205-2.137 6.404-3.513 9.941-5 2.213-.936 2.213-.936 4.059-3z" fill="#e5537a"/><path d="M203 118h3c.25 6.625.25 6.625-2 10l-2-1 1-9z" fill="#b73d85"/><path d="M132 180c-.711 1.953-.711 1.953-2 4-2.164.609-2.164.609-4.625.75l-2.477.172L121 185c3.707-3.106 6.022-5 11-5z" fill="#73239b"/><path d="M162 64c3 2 3 2 5 5l-1 4-6-7 2-2z" fill="#1f69b6"/><path d="M117 217h6v6h-3l-3-6z" fill="#e1257b"/><path d="M116.625 203.438l3.602.309L123 204v1h-9v2l-1.875-.562c-2.167-.674-2.167-.674-4.125.563v-3c2.944-1.472 5.374-.849 8.625-.562z" fill="#362a3b"/><path d="M110 173c4.191.582 5.375 1.282 9 4h-11l2-4z" fill="#2bafd4"/><path d="M116 199h7l-1 4h-6v-4z" fill="#6d289b"/><path d="M103 179h3l1 3c2.329 1.027 2.329 1.027 5.063 1.688l2.785.762L117 185v1c-9.117-.348-9.117-.348-12.625-2.937C103 181 103 181 103 179z" fill="#cdd8d1"/><path d="M97 141h4l-1 5h-5c0-3 0-3 2-5z" fill="#1f1a5f"/><path d="M83 106c3.563.125 3.563.125 7 1l2 3-12-1 3-3z" fill="#28cfe7"/><path d="M71 74l1 8-5-2v-4c3-2 3-2 4-2z" fill="#f4a7b8"/><path d="M105 187l3 1 1 3c1.865 1.018 1.865 1.018 4.063 1.688l2.223.762L117 194v1c-7.317-.488-7.317-.488-10.5-2.875C105 190 105 190 105 187z" fill="#d3d4ce"/><path d="M63 161h3l2 7-3 1c-1.765-3.088-2-4.233-2-8z" fill="#1ab6df"/><path d="M150 141l-2.375 1.313c-2.842 1.58-2.842 1.58-4.625 4.688-3.625.188-3.625.188-7 0v-1l6-1v-4c3.053-.981 4.947-.981 8 0z" fill="#931e83"/><path d="M174 58c3.297 1.099 4.047 1.946 6.188 4.563l1.605 1.941L183 66l-1 2-3.875-3.375-2.18-1.898L172 59l2-1z" fill="#c8f4ed"/><path d="M81 59l2 1c-3.491 4.004-5.65 5.627-11 6 2.744-2.947 5.383-5.192 9-7z" fill="#dddcdc"/><path d="M109 197l7 2v3c-2.375-.25-2.375-.25-5-1-1.312-2.062-1.312-2.062-2-4z" fill="#29cced"/><path d="M157 159l1 4c-3.692 3.538-7.094 3.591-12 4l1.625-.75c5.537-2.727 5.537-2.727 9.375-7.25z" fill="#e85679"/><path d="M87 153c8.571 1.857 8.571 1.857 12 5-4.749-.466-8.108-1.169-12-4v-1z" fill="#c7bebb"/><path d="M74 113l5 1-2 5-7-1 4-1v-4z" fill="#3f43aa"/><path d="M126 107c-3.833 2.706-6.325 3.326-11 3v-2c7.429-2.429 7.429-2.429 11-1z" fill="#077dd4"/><path d="M198 164c-.75 4.75-.75 4.75-3 7l-3-2c2.258-5 2.258-5 6-5z" fill="#9c267a"/><path d="M144 152l2 1c-1.062 1.938-1.062 1.938-3 4-3.687.75-3.687.75-7 1l3-1 1-2c1-2 1-2 4-3z" fill="#ab218a"/><path d="M66 121c3.403 1.059 6.014 2.009 9 4v2c-3.674-.306-4.781-.758-7.312-3.562L66 121z" fill="#26b8d9"/><path d="M188 83l3 1-2 5-5-1c1.75-3.875 1.75-3.875 4-5z" fill="#3fcadf"/><path d="M115 190h8l-2 3c-3.125.188-3.125.188-6 0v-3z" fill="#5327a3"/><path d="M139 185v2l-6 1v-2l-2-1c3.053-.981 4.947-.981 8 0z" fill="#230621"/><path d="M99 149c2.375.25 2.375.25 5 1 1.313 2.063 1.313 2.063 2 4l-8-1 2-2-1-2z" fill="#3660b2"/><path d="M152 139l4 1-2 1c-.652 2.025-.652 2.025-1 4l-5 1a56.54 56.54 0 0 1 4-7z" fill="#b4197f"/><path d="M47 135h2c1.158 3.473 1.069 6.361 1 10-2.354-2.551-2.983-3.71-3.187-7.25L47 135z" fill="#1fd0eb"/><path d="M163 97c-1.687 2.063-1.687 2.063-4 4-2.75-.25-2.75-.25-5-1 2.592-2.592 5.457-4.772 9-3z" fill="#0a78c9"/><path d="M56 94c4.8 3.446 4.8 3.446 5.813 6.25L62 102c-5.875-3.75-5.875-3.75-7-6l1-2z" fill="#b0d3d5"/><path d="M134 84c-3.188 2.125-5.265 2.502-9 3l-1-3c3.695-.95 6.305-.95 10 0z" fill="#eed6d4"/><path d="M184 67l4 1 1 4-4 1-1-6z" fill="#15cff2"/><path d="M116 207h9v1l-5 1-1 3h-2l-1-5z" fill="#4e2b85"/><path d="M88 134l7 1-2 1v2l-6-1 1-3z" fill="#0c0e29"/><path d="M85 128h2l2 5-10-2c4-1 4-1 6 0v-3z" fill="#2762c5"/><path d="M56 104l8 5-2 2c-2.993-1.098-3.846-1.677-5.25-4.625L56 104z" fill="#2198d7"/><path d="M201 105h2l1 7h-2c-2-3-2-3-1.625-5.187L201 105z" fill="#2086c6"/><path d="M164 105c-2.931 1.954-4.558 2.647-8 3l-2-2c3.782-1.837 5.946-2.158 10-1z" fill="#1cc6d4"/><path d="M61 98l7 4v2c-2.375-.187-2.375-.187-5-1-1.312-2.562-1.312-2.562-2-5z" fill="#6be6f0"/><path d="M57 78h1l1 9-5 2 3-11z" fill="#377dbd"/><path d="M192 73h1c.286 7.429.286 7.429-2 11h-2c.672-3.806 1.727-7.352 3-11z" fill="#c1cdc5"/><path d="M113 213l9 1-1 2h-7l-1-3z" fill="#09041c"/><path d="M66 180c2.438.688 2.438.688 5 2 .813 2.625.813 2.625 1 5l-6-5v-2z" fill="#f62a7a"/><path d="M145 174v3l-6 1v-4c3.75-1.125 3.75-1.125 6 0z" fill="#2a0724"/><path d="M132 164l4 1v3l-7 1 3-1-1-3 1-1z" fill="#af228d"/><path d="M95 161l8 2-2 1v2c-2.437-.812-2.437-.812-5-2l-1-3z" fill="#31e6f3"/><path d="M101 140l4 1-2 5h-3l1-6z" fill="#2f2f85"/><path d="M189 70l3 1v7l-2 1-1-9z" fill="#edefe0"/><path d="M68 69l4 4-3 3h-2l1-7z" fill="#ecdbdb"/><path d="M137 193l-1 3-5 1v-2l-2-1c5.75-2.125 5.75-2.125 8-1z" fill="#24081f"/><path d="M139 186l2 1c-3.323 4.8-3.323 4.8-6.75 5.813L132 193c4.75-5.875 4.75-5.875 7-7z" fill="#d64265"/><path d="M174 188l2 1-2 2 1 2-4 2-1-4 4-3z" fill="#d62368"/><path d="M124 154h3v4h-6c1.313-2 1.313-2 3-4z" fill="#6f2498"/><path d="M112 55l-1 3-9-1v-1c3.435-.625 6.491-1 10-1z" fill="#f13782"/><path d="M118 226c3.35 1.117 3.793 1.747 5.688 4.563l1.324 1.941L126 234c-3.362-1.441-5.592-3.248-8-6v-2z" fill="#d3abad"/><path d="M186 168c0 3 0 3-1.312 4.387L180 176l-2-2 2.875-1.875c3.069-1.945 3.069-1.945 5.125-4.125z" fill="#b82c61"/><path d="M58 170c1.875.313 1.875.313 4 1l2 3h-5l-1-4z" fill="#a42381"/><path d="M83.25 127.313L85 128v3l-8-1c3.446-3.077 3.446-3.077 6.25-2.687z" fill="#1d7ad7"/><path d="M103 65v2l-7 4v-3c4.222-3 4.222-3 7-3z" fill="#452797"/></svg>