<svg width="854" height="854" viewBox="0 0 854 854" fill="none" xmlns="http://www.w3.org/2000/svg">
<circle cx="427" cy="426" r="321" fill="#FFFF05"/>
<path d="M212 315.6C204.267 322.667 191.733 334.133 184 341.2C176.267 348.133 165.333 358.4 159.733 364L149.333 374.133V424.133C149.333 451.6 149.733 475.333 150.133 477.067C150.667 478.8 167.467 495.2 188.933 514.8L226.667 549.333H384.133C520.533 549.333 541.467 549.067 541.067 547.467C540.8 546.4 522.133 527.733 499.333 505.867C460.933 469.067 448.8 457.467 409.867 419.6L395.067 405.333L323.867 405.6L252.667 406V426V446L315.6 446.4L378.533 446.667L397.6 465.067C408.133 475.067 421.867 488.4 428.4 494.533C434.8 500.8 440 506.267 440 506.933C440 507.467 395.467 508 341.067 508L242 507.867L221.733 489.067L201.333 470.267V425.867V381.467L221.6 362.667L241.867 344H285.6C311.2 344 329.333 343.467 329.333 342.8C329.333 342.133 328.8 341.333 328.133 341.067C327.467 340.8 318.133 332.133 307.467 321.6L287.867 302.667H256.933L226 302.8L212 315.6Z" fill="black"/>
<path d="M332.267 303.733C332.667 304.8 345.6 317.067 368 337.867C376.933 346.133 411.2 378.933 455.333 421.333C464.133 429.733 478.533 443.6 487.333 452C496.133 460.4 513.2 476.933 525.333 488.667C537.467 500.533 556.533 518.933 567.867 529.733L588.4 549.333H601.2C613.867 549.333 614.133 549.2 618.667 544.933C621.2 542.533 637.2 528.133 654 512.8C670.933 497.6 686 483.6 687.733 481.733L690.667 478.533V425.467V372.4L652.4 337.6L614.133 302.667H472.933C395.333 302.667 332 303.2 332.267 303.733ZM615.733 359.467C641.867 383.333 640.133 380.933 639.733 393.733L639.333 404.667L568 404.933L496.667 405.333L483.333 392.267C476 385.2 462.4 372 453.067 363.2C443.6 354.267 436 346.4 436 345.467C436 344.4 457.467 344 517.333 344H598.667L615.733 359.467ZM639.733 457.733C640 463.333 639.6 468.933 639.067 469.867C637.733 472.267 601.333 505.333 600.133 505.333C599.733 505.333 594.8 500.8 589.333 495.2C583.867 489.733 570.8 477.067 560.4 467.067C549.867 457.067 541.333 448.4 541.333 447.733C541.333 447.2 563.2 446.8 590.4 446.933L639.333 447.333L639.733 457.733Z" fill="black"/>
</svg>
