<svg width="48" height="48" viewBox="0 0 48 48" fill="none" xmlns="http://www.w3.org/2000/svg">
<circle cx="24" cy="24" r="24" fill="#252600"/>
<g clip-path="url(#clip0_1_9034)">
<path d="M26.2178 7.09027C25.4821 6.98517 24.7989 6.93262 24.0632 6.93262C23.38 6.93262 22.6968 6.98517 22.0137 7.03772V40.8286C22.6968 40.9337 23.38 40.9337 24.0632 40.9337C24.7989 40.9337 25.5346 40.8811 26.2178 40.776V7.09027Z" fill="#EFF501"/>
<path d="M23.959 21.6995C23.959 21.6995 28.058 21.8571 31.2637 18.7565C34.4694 15.656 35.7832 11.9248 35.7832 11.9248C35.7832 11.9248 40.8807 16.3392 41.196 23.1184C41.196 23.276 41.2486 23.4337 41.2486 23.5913C41.5113 31.1062 35.7306 36.0461 35.7306 36.0461C35.7306 36.0461 34.4168 32.3149 31.2637 29.2144C28.1106 26.1138 24.0115 26.2189 24.0115 26.2189L23.959 21.6995Z" fill="#EFF501"/>
<path fill-rule="evenodd" clip-rule="evenodd" d="M34.9293 34.2633C37.4461 31.5838 38.9878 27.9777 38.9878 24.0115C38.9878 20.0524 37.4516 16.4521 34.9428 13.7741C35.5203 12.6713 35.7832 11.9248 35.7832 11.9248C35.7832 11.9248 40.8807 16.3392 41.196 23.1184C41.196 23.1972 41.2091 23.276 41.2223 23.3548C41.2354 23.4337 41.2486 23.5125 41.2486 23.5913C41.5113 31.1062 35.7306 36.0461 35.7306 36.0461C35.7306 36.0461 35.4783 35.3294 34.9293 34.2633Z" fill="#FFFAA4"/>
<path d="M24.2305 21.6995C24.2305 21.6995 20.1314 21.8571 16.9258 18.7565C13.7201 15.656 12.4063 11.9248 12.4063 11.9248C12.4063 11.9248 7.30877 16.3392 6.99346 23.1184C6.99346 23.276 6.9409 23.4337 6.9409 23.5913C6.67814 31.1062 12.4589 36.0461 12.4589 36.0461C12.4589 36.0461 13.7726 32.3149 16.9258 29.2144C20.0789 26.1138 24.1779 26.2189 24.1779 26.2189L24.2305 21.6995Z" fill="#EFF501"/>
<path fill-rule="evenodd" clip-rule="evenodd" d="M13.2599 34.2633C10.7431 31.5838 9.20143 27.9777 9.20143 24.0115C9.20143 20.0524 10.7376 16.4521 13.2464 13.7741C12.6689 12.6713 12.406 11.9248 12.406 11.9248C12.406 11.9248 7.30852 16.3392 6.99321 23.1184C6.99321 23.1972 6.98007 23.276 6.96693 23.3548C6.95379 23.4337 6.94065 23.5125 6.94065 23.5913C6.67789 31.1062 12.4586 36.0461 12.4586 36.0461C12.4586 36.0461 12.711 35.3294 13.2599 34.2633Z" fill="#FFFAA4"/>
</g>
<defs>
<clipPath id="clip0_1_9034">
<rect width="34.3164" height="34.0536" fill="white" transform="translate(6.93164 6.93262)"/>
</clipPath>
</defs>
</svg>
