<svg width="391" height="391" viewBox="0 0 391 391" fill="none" xmlns="http://www.w3.org/2000/svg">
<rect x="6" y="6" width="378.196" height="378.196" rx="189.098" fill="white"/>
<rect x="6" y="6" width="378.196" height="378.196" rx="189.098" stroke="black" stroke-width="12"/>
<path fill-rule="evenodd" clip-rule="evenodd" d="M152.408 104H148.157L145.401 107.237L75.8164 188.969L70.7373 194.934L75.8164 200.9L145.401 282.632L148.157 285.869H152.408H277.684H286.887V276.667V224.707H268.482V267.464H172.533L230.056 200.955L235.263 194.934L230.056 188.914L172.534 122.405H268.482V165.161H286.887V113.203V104H277.684H152.408ZM152.462 127.335L94.91 194.934L152.462 262.534L210.928 194.934L152.462 127.335Z" fill="black"/>
</svg>
