<?xml version="1.0" encoding="UTF-8"?>
<!DOCTYPE svg PUBLIC "-//W3C//DTD SVG 1.1//EN" "http://www.w3.org/Graphics/SVG/1.1/DTD/svg11.dtd">
<svg xmlns="http://www.w3.org/2000/svg" version="1.1" width="256px" height="256px" style="shape-rendering:geometricPrecision; text-rendering:geometricPrecision; image-rendering:optimizeQuality; fill-rule:evenodd; clip-rule:evenodd" xmlns:xlink="http://www.w3.org/1999/xlink">
<g><path style="opacity:1" fill="#ad45ff" d="M 102.5,-0.5 C 104.167,-0.5 105.833,-0.5 107.5,-0.5C 124.404,3.45088 138.738,11.7842 150.5,24.5C 137.039,23.195 123.706,23.195 110.5,24.5C 108.67,16.0062 106.003,7.67283 102.5,-0.5 Z"/></g>
<g><path style="opacity:1" fill="#a533ff" d="M 150.5,24.5 C 156.16,30.507 160.16,37.507 162.5,45.5C 143.768,46.0159 125.102,46.6825 106.5,47.5C 109.374,40.1287 110.707,32.462 110.5,24.5C 123.706,23.195 137.039,23.195 150.5,24.5 Z"/></g>
<g><path style="opacity:1" fill="#9d22ff" d="M 162.5,45.5 C 166.527,54.6325 168.527,64.2992 168.5,74.5C 142.505,77.1509 116.505,77.1509 90.5,74.5C 87.56,74.3834 84.8933,75.0501 82.5,76.5C 86.7967,71.7021 91.2967,67.0355 96,62.5C 99.7524,57.597 103.252,52.597 106.5,47.5C 125.102,46.6825 143.768,46.0159 162.5,45.5 Z"/></g>
<g><path style="opacity:1" fill="#9512fd" d="M 168.5,74.5 C 169.155,85.0327 169.988,95.6994 171,106.5C 172.711,112.252 175.211,117.586 178.5,122.5C 172.175,123.566 165.842,124.566 159.5,125.5C 152.163,124.399 145.497,125.899 139.5,130C 137.167,130.667 134.833,130.667 132.5,130C 130.167,127.667 127.833,125.333 125.5,123C 136.182,122.832 146.849,122.332 157.5,121.5C 152.742,113.78 145.742,109.613 136.5,109C 124.11,108.918 111.777,108.251 99.5,107C 91.263,104.469 84.763,99.6352 80,92.5C 78.1819,98.6173 78.6819,104.617 81.5,110.5C 77.439,111.375 73.7723,110.375 70.5,107.5C 71.4866,112.773 74.1533,117.44 78.5,121.5C 77.4995,123.813 76.1662,125.813 74.5,127.5C 73.8333,127.5 73.5,127.167 73.5,126.5C 74.3029,125.577 74.4696,124.577 74,123.5C 68.22,126.307 62.3866,128.974 56.5,131.5C 48.9958,129.542 41.3291,127.709 33.5,126C 32.7476,125.329 32.4142,124.496 32.5,123.5C 38.7125,104.108 49.8792,88.1081 66,75.5C 65.445,79.183 64.445,82.8496 63,86.5C 60.9408,94.5837 61.2741,102.584 64,110.5C 66.8084,97.2078 72.9751,85.8744 82.5,76.5C 84.8933,75.0501 87.56,74.3834 90.5,74.5C 116.505,77.1509 142.505,77.1509 168.5,74.5 Z"/></g>
<g><path style="opacity:1" fill="#fefdfe" d="M 159.5,125.5 C 167.547,128.025 175.214,131.359 182.5,135.5C 184.795,138.297 187.295,140.964 190,143.5C 192.035,146.561 193.201,149.895 193.5,153.5C 193.762,154.978 193.429,156.311 192.5,157.5C 191.893,157.376 191.56,157.043 191.5,156.5C 182.722,147.609 172.055,142.109 159.5,140C 141.674,137.789 125.674,142.122 111.5,153C 107.561,156.429 104.228,160.263 101.5,164.5C 99.5519,161.938 98.0519,158.938 97,155.5C 93.4254,170.385 94.2587,185.052 99.5,199.5C 110.059,224.728 128.726,240.061 155.5,245.5C 146.16,245.581 137.16,243.914 128.5,240.5C 123.872,238.186 119.205,235.853 114.5,233.5C 111.048,230.601 107.382,227.934 103.5,225.5C 101.5,222.833 99.1667,220.5 96.5,218.5C 94.8333,216.5 93.1667,214.5 91.5,212.5C 89.1667,209.167 86.8333,205.833 84.5,202.5C 82.8193,199.797 81.1526,197.131 79.5,194.5C 77.9689,190.433 76.1356,186.433 74,182.5C 68.1767,187.078 62.1767,191.412 56,195.5C 55.5017,192.183 55.335,188.85 55.5,185.5C 57.0347,164.563 63.368,145.23 74.5,127.5C 76.1662,125.813 77.4995,123.813 78.5,121.5C 74.1533,117.44 71.4866,112.773 70.5,107.5C 73.7723,110.375 77.439,111.375 81.5,110.5C 78.6819,104.617 78.1819,98.6173 80,92.5C 84.763,99.6352 91.263,104.469 99.5,107C 111.777,108.251 124.11,108.918 136.5,109C 145.742,109.613 152.742,113.78 157.5,121.5C 146.849,122.332 136.182,122.832 125.5,123C 127.833,125.333 130.167,127.667 132.5,130C 134.833,130.667 137.167,130.667 139.5,130C 145.497,125.899 152.163,124.399 159.5,125.5 Z"/></g>
<g><path style="opacity:1" fill="#9612f8" d="M 223.5,126.5 C 223.38,127.586 222.713,128.253 221.5,128.5C 208.697,131.994 195.697,134.327 182.5,135.5C 175.214,131.359 167.547,128.025 159.5,125.5C 165.842,124.566 172.175,123.566 178.5,122.5C 188.126,128.795 195.626,126.795 201,116.5C 204.581,103.529 202.081,91.696 193.5,81C 193.833,80.8333 194.167,80.6667 194.5,80.5C 209.065,92.7342 218.731,108.068 223.5,126.5 Z"/></g>
<g><path style="opacity:1" fill="#f8f6f8" d="M 73.5,126.5 C 66.9471,133.256 61.6138,140.923 57.5,149.5C 50.9431,148.657 44.6098,147.323 38.5,145.5C 43.7763,139.867 49.7763,135.2 56.5,131.5C 62.3866,128.974 68.22,126.307 74,123.5C 74.4696,124.577 74.3029,125.577 73.5,126.5 Z"/></g>
<g><path style="opacity:1" fill="#9910ee" d="M 32.5,123.5 C 32.4142,124.496 32.7476,125.329 33.5,126C 41.3291,127.709 48.9958,129.542 56.5,131.5C 49.7763,135.2 43.7763,139.867 38.5,145.5C 35.5726,146.757 33.2393,148.757 31.5,151.5C 29.8333,152.833 28.1667,154.167 26.5,155.5C 26.5987,144.347 28.5987,133.681 32.5,123.5 Z"/></g>
<g><path style="opacity:1" fill="#9909ec" d="M 223.5,126.5 C 226.223,133.458 227.556,140.791 227.5,148.5C 217.182,152.036 206.515,154.703 195.5,156.5C 194.824,155.398 194.158,154.398 193.5,153.5C 193.201,149.895 192.035,146.561 190,143.5C 187.295,140.964 184.795,138.297 182.5,135.5C 195.697,134.327 208.697,131.994 221.5,128.5C 222.713,128.253 223.38,127.586 223.5,126.5 Z"/></g>
<g><path style="opacity:1" fill="#e9cefe" d="M 191.5,156.5 C 169.954,150.811 150.287,154.478 132.5,167.5C 122.211,166.03 111.878,165.03 101.5,164.5C 104.228,160.263 107.561,156.429 111.5,153C 125.674,142.122 141.674,137.789 159.5,140C 172.055,142.109 182.722,147.609 191.5,156.5 Z"/></g>
<g><path style="opacity:1" fill="#fce9e1" d="M 38.5,145.5 C 44.6098,147.323 50.9431,148.657 57.5,149.5C 56.0713,152.696 54.4046,155.696 52.5,158.5C 48.0614,157.312 43.5614,156.312 39,155.5C 36.1765,154.509 33.6765,153.175 31.5,151.5C 33.2393,148.757 35.5726,146.757 38.5,145.5 Z"/></g>
<g><path style="opacity:1" fill="#9e0ae4" d="M 227.5,148.5 C 228.702,153.689 228.702,159.023 227.5,164.5C 198.673,170.737 169.506,174.404 140,175.5C 136.317,175.499 132.817,175.165 129.5,174.5C 129.688,171.794 130.688,169.461 132.5,167.5C 150.287,154.478 169.954,150.811 191.5,156.5C 191.56,157.043 191.893,157.376 192.5,157.5C 193.429,156.311 193.762,154.978 193.5,153.5C 194.158,154.398 194.824,155.398 195.5,156.5C 206.515,154.703 217.182,152.036 227.5,148.5 Z"/></g>
<g><path style="opacity:1" fill="#fad5c6" d="M 31.5,151.5 C 33.6765,153.175 36.1765,154.509 39,155.5C 43.5614,156.312 48.0614,157.312 52.5,158.5C 51.8991,161.968 50.8991,165.301 49.5,168.5C 42.0217,167.804 34.6884,166.47 27.5,164.5C 26.8413,161.545 26.5079,158.545 26.5,155.5C 28.1667,154.167 29.8333,152.833 31.5,151.5 Z"/></g>
<g><path style="opacity:1" fill="#9f0fe0" d="M 73.5,126.5 C 73.5,127.167 73.8333,127.5 74.5,127.5C 63.368,145.23 57.0347,164.563 55.5,185.5C 54.5318,187.607 54.1984,189.941 54.5,192.5C 51.7938,192.425 49.1272,192.092 46.5,191.5C 46.5,189.5 46.5,187.5 46.5,185.5C 46.5,184.5 46.5,183.5 46.5,182.5C 47.2453,177.773 48.2453,173.106 49.5,168.5C 50.8991,165.301 51.8991,161.968 52.5,158.5C 54.4046,155.696 56.0713,152.696 57.5,149.5C 61.6138,140.923 66.9471,133.256 73.5,126.5 Z"/></g>
<g><path style="opacity:1" fill="#fdc0a4" d="M 27.5,164.5 C 34.6884,166.47 42.0217,167.804 49.5,168.5C 48.2453,173.106 47.2453,177.773 46.5,182.5C 41.2315,182.863 36.2315,182.029 31.5,180C 30.9341,179.005 30.2674,178.172 29.5,177.5C 28.0925,173.317 27.4258,168.984 27.5,164.5 Z"/></g>
<g><path style="opacity:1" fill="#a30bd9" d="M 227.5,164.5 C 228.881,176.474 224.548,185.474 214.5,191.5C 187.366,196.144 160.033,198.811 132.5,199.5C 131.272,194.34 130.605,194.34 130.5,199.5C 129.167,199.5 127.833,199.5 126.5,199.5C 126.5,194.5 126.5,189.5 126.5,184.5C 126.32,180.714 127.32,177.381 129.5,174.5C 132.817,175.165 136.317,175.499 140,175.5C 169.506,174.404 198.673,170.737 227.5,164.5 Z"/></g>
<g><path style="opacity:1" fill="#efdbfe" d="M 101.5,164.5 C 111.878,165.03 122.211,166.03 132.5,167.5C 130.688,169.461 129.688,171.794 129.5,174.5C 127.32,177.381 126.32,180.714 126.5,184.5C 125.834,189.017 125.167,193.683 124.5,198.5C 122.541,197.252 121.041,195.585 120,193.5C 119.503,195.81 119.337,198.143 119.5,200.5C 112.922,199.54 106.255,199.207 99.5,199.5C 94.2587,185.052 93.4254,170.385 97,155.5C 98.0519,158.938 99.5519,161.938 101.5,164.5 Z"/></g>
<g><path style="opacity:1" fill="#f9a680" d="M 29.5,177.5 C 30.2674,178.172 30.9341,179.005 31.5,180C 36.2315,182.029 41.2315,182.863 46.5,182.5C 46.5,183.5 46.5,184.5 46.5,185.5C 45.5151,189.634 45.1818,193.968 45.5,198.5C 42.7938,198.425 40.1272,198.092 37.5,197.5C 37.5,198.5 37.5,199.5 37.5,200.5C 33.6643,193.33 30.9977,185.663 29.5,177.5 Z"/></g>
<g><path style="opacity:1" fill="#fde4de" d="M 79.5,194.5 C 77.8008,194.34 76.1341,194.506 74.5,195C 68.489,200.001 62.1557,204.501 55.5,208.5C 54.9022,203.187 54.5688,197.854 54.5,192.5C 54.1984,189.941 54.5318,187.607 55.5,185.5C 55.335,188.85 55.5017,192.183 56,195.5C 62.1767,191.412 68.1767,187.078 74,182.5C 76.1356,186.433 77.9689,190.433 79.5,194.5 Z"/></g>
<g><path style="opacity:1" fill="#a916d2" d="M 214.5,191.5 C 196.479,208.341 175.145,215.507 150.5,213C 142.26,211.232 136.26,206.732 132.5,199.5C 160.033,198.811 187.366,196.144 214.5,191.5 Z"/></g>
<g><path style="opacity:1" fill="#fed6c5" d="M 79.5,194.5 C 81.1526,197.131 82.8193,199.797 84.5,202.5C 75.0021,207.649 66.0021,213.649 57.5,220.5C 56.4066,216.606 55.7399,212.606 55.5,208.5C 62.1557,204.501 68.489,200.001 74.5,195C 76.1341,194.506 77.8008,194.34 79.5,194.5 Z"/></g>
<g><path style="opacity:1" fill="#ab19ca" d="M 46.5,185.5 C 46.5,187.5 46.5,189.5 46.5,191.5C 49.1272,192.092 51.7938,192.425 54.5,192.5C 54.5688,197.854 54.9022,203.187 55.5,208.5C 55.7399,212.606 56.4066,216.606 57.5,220.5C 57.8333,223.167 58.1667,225.833 58.5,228.5C 54.7657,225.769 51.7657,222.436 49.5,218.5C 48.1504,211.712 46.8171,205.045 45.5,198.5C 45.1818,193.968 45.5151,189.634 46.5,185.5 Z"/></g>
<g><path style="opacity:1" fill="#fec6ac" d="M 84.5,202.5 C 86.8333,205.833 89.1667,209.167 91.5,212.5C 82.3986,218.42 73.3986,224.587 64.5,231C 63.4019,231.77 63.4019,232.603 64.5,233.5C 61.9108,232.581 59.9108,230.914 58.5,228.5C 58.1667,225.833 57.8333,223.167 57.5,220.5C 66.0021,213.649 75.0021,207.649 84.5,202.5 Z"/></g>
<g><path style="opacity:1" fill="#ed8559" d="M 45.5,198.5 C 46.8171,205.045 48.1504,211.712 49.5,218.5C 44.3568,213.339 40.3568,207.339 37.5,200.5C 37.5,199.5 37.5,198.5 37.5,197.5C 40.1272,198.092 42.7938,198.425 45.5,198.5 Z"/></g>
<g><path style="opacity:1" fill="#ffb593" d="M 91.5,212.5 C 93.1667,214.5 94.8333,216.5 96.5,218.5C 87.6867,224.412 79.02,230.578 70.5,237C 71.3805,237.708 72.0472,238.542 72.5,239.5C 69.4669,237.984 66.8003,235.984 64.5,233.5C 63.4019,232.603 63.4019,231.77 64.5,231C 73.3986,224.587 82.3986,218.42 91.5,212.5 Z"/></g>
<g><path style="opacity:1" fill="#f4e5fe" d="M 99.5,199.5 C 106.255,199.207 112.922,199.54 119.5,200.5C 124.327,222.997 137.66,237.997 159.5,245.5C 158.167,245.5 156.833,245.5 155.5,245.5C 128.726,240.061 110.059,224.728 99.5,199.5 Z"/></g>
<g><path style="opacity:1" fill="#ffa57b" d="M 96.5,218.5 C 99.1667,220.5 101.5,222.833 103.5,225.5C 96.0179,231.47 88.3513,237.303 80.5,243C 81.056,243.383 81.3893,243.883 81.5,244.5C 78.0078,243.59 75.0078,241.924 72.5,239.5C 72.0472,238.542 71.3805,237.708 70.5,237C 79.02,230.578 87.6867,224.412 96.5,218.5 Z"/></g>
<g><path style="opacity:1" fill="#b01dc6" d="M 126.5,184.5 C 126.5,189.5 126.5,194.5 126.5,199.5C 127.833,199.5 129.167,199.5 130.5,199.5C 130.605,194.34 131.272,194.34 132.5,199.5C 131.12,199.962 130.453,200.962 130.5,202.5C 134.313,215.145 142.646,223.311 155.5,227C 169.879,231.851 184.046,231.351 198,225.5C 198.667,226.167 198.667,226.833 198,227.5C 189.96,236.043 180.46,242.376 169.5,246.5C 166.193,245.949 162.86,245.616 159.5,245.5C 137.66,237.997 124.327,222.997 119.5,200.5C 119.337,198.143 119.503,195.81 120,193.5C 121.041,195.585 122.541,197.252 124.5,198.5C 125.167,193.683 125.834,189.017 126.5,184.5 Z"/></g>
<g><path style="opacity:1" fill="#ff9462" d="M 103.5,225.5 C 107.382,227.934 111.048,230.601 114.5,233.5C 107.89,238.088 101.223,242.755 94.5,247.5C 93.4376,248.425 93.4376,249.425 94.5,250.5C 89.738,249.284 85.4047,247.284 81.5,244.5C 81.3893,243.883 81.056,243.383 80.5,243C 88.3513,237.303 96.0179,231.47 103.5,225.5 Z"/></g>
<g><path style="opacity:1" fill="#ff7e43" d="M 114.5,233.5 C 119.205,235.853 123.872,238.186 128.5,240.5C 126.353,242.47 124.02,244.303 121.5,246C 123.891,246.691 123.891,247.691 121.5,249C 122.381,249.708 123.047,250.542 123.5,251.5C 121.983,251.489 120.816,250.823 120,249.5C 120.451,251.52 121.284,253.52 122.5,255.5C 118.833,255.5 115.167,255.5 111.5,255.5C 105.876,254.007 100.209,252.34 94.5,250.5C 93.4376,249.425 93.4376,248.425 94.5,247.5C 101.223,242.755 107.89,238.088 114.5,233.5 Z"/></g>
<g><path style="opacity:1" fill="#ff6a28" d="M 128.5,240.5 C 137.16,243.914 146.16,245.581 155.5,245.5C 156.833,245.5 158.167,245.5 159.5,245.5C 162.86,245.616 166.193,245.949 169.5,246.5C 168.4,247.558 167.066,248.392 165.5,249C 158.135,251.502 150.802,253.669 143.5,255.5C 139.167,255.5 134.833,255.5 130.5,255.5C 128.036,254.433 125.703,253.1 123.5,251.5C 123.047,250.542 122.381,249.708 121.5,249C 123.891,247.691 123.891,246.691 121.5,246C 124.02,244.303 126.353,242.47 128.5,240.5 Z"/></g>
</svg>
