<?xml version="1.0" standalone="no"?>
<!DOCTYPE svg PUBLIC "-//W3C//DTD SVG 20010904//EN"
 "http://www.w3.org/TR/2001/REC-SVG-20010904/DTD/svg10.dtd">
<svg version="1.0" xmlns="http://www.w3.org/2000/svg"
 width="256.000000pt" height="256.000000pt" viewBox="0 0 256.000000 256.000000"
 preserveAspectRatio="xMidYMid meet">

<g transform="translate(0.000000,256.000000) scale(0.100000,-0.100000)"
fill="#000000" stroke="none">
<path d="M1118 2550 c-1 -5 -32 -14 -68 -19 -58 -8 -144 -33 -250 -73 -135
-50 -283 -151 -415 -283 -87 -87 -126 -134 -181 -225 -38 -63 -75 -126 -81
-140 -49 -114 -83 -223 -94 -300 -5 -36 -14 -66 -19 -68 -13 -5 -13 -342 0
-342 5 0 12 -17 15 -37 24 -159 78 -306 162 -445 72 -116 120 -177 219 -274
169 -165 384 -277 644 -334 66 -14 439 -8 515 8 56 12 193 55 221 70 11 5 44
22 74 37 145 72 310 201 396 307 32 40 62 75 65 78 9 9 114 183 128 215 7 17
18 38 23 49 14 28 58 164 70 221 16 76 22 449 8 515 -34 155 -134 406 -175
440 -8 7 -15 17 -15 22 0 20 -88 128 -172 210 -192 189 -439 315 -690 353 -21
3 -38 10 -38 15 0 13 -337 13 -342 0z m-772 -740 c89 -69 313 -170 377 -170 9
0 20 -8 26 -17 10 -21 3 -193 -10 -208 -11 -14 -14 -94 -5 -127 12 -40 -34
-60 -138 -62 -70 -1 -89 3 -140 28 -63 31 -136 96 -136 121 0 11 5 13 18 6 42
-22 71 -30 133 -40 82 -14 136 -14 144 -1 3 6 0 10 -8 10 -21 0 -147 39 -193
60 -75 34 -144 108 -144 155 0 12 6 10 27 -9 40 -37 160 -95 222 -106 55 -10
118 -13 91 -3 -119 39 -217 92 -271 145 -77 76 -105 155 -100 277 l1 34 43
-39 c24 -22 52 -46 63 -54z m1969 15 c-6 -81 -21 -127 -63 -189 -42 -63 -111
-116 -186 -145 -28 -11 -64 -27 -81 -36 l-30 -16 55 6 c79 9 166 43 235 91 49
35 46 6 -4 -49 -47 -51 -116 -88 -226 -121 -75 -22 -78 -24 -50 -31 27 -8 135
7 238 31 15 4 27 2 27 -4 0 -19 -66 -75 -120 -101 -71 -33 -202 -42 -255 -17
-31 15 -33 19 -25 42 14 37 12 101 -4 127 -17 28 -19 192 -2 205 6 5 36 17 66
26 80 25 86 28 192 81 54 26 126 72 160 101 35 29 66 53 70 53 3 1 5 -24 3
-54z m-643 -62 c32 -18 58 -41 73 -67 22 -39 23 -51 23 -206 1 -91 -3 -221 -7
-290 l-8 -125 -3 185 c-2 102 -2 227 0 278 2 100 -6 123 -59 169 -26 23 -78
33 -66 13 3 -5 11 -10 17 -10 6 0 26 -16 45 -36 29 -31 35 -46 40 -98 8 -89
-8 -751 -18 -767 -7 -11 -14 -8 -30 14 -16 21 -29 27 -59 27 -54 0 -82 -30
-69 -73 5 -17 7 -32 5 -35 -9 -8 -376 -14 -459 -7 l-87 7 2 38 c2 53 -15 70
-68 70 -36 0 -47 -5 -60 -26 -13 -19 -19 -22 -24 -12 -17 31 -30 741 -15 803
9 36 50 83 85 97 23 9 24 10 7 20 -27 14 -110 -57 -117 -100 -4 -23 -8 -29
-19 -23 -22 14 -4 67 37 109 69 71 67 71 446 71 l338 1 50 -27z m-922 -571 c0
-42 -25 -69 -81 -87 -42 -14 -58 -15 -97 -5 -51 13 -122 49 -122 62 0 4 35 8
78 8 70 0 168 22 189 43 16 16 33 5 33 -21z m1106 19 c21 -20 112 -41 174 -41
37 0 70 -3 73 -6 18 -18 -107 -74 -164 -74 -32 0 -91 24 -113 45 -23 23 -22
85 2 85 10 0 22 -4 28 -9z m-1106 -161 c0 -32 -47 -60 -102 -60 -51 0 -92 15
-83 30 3 4 24 11 46 15 23 4 60 15 82 25 45 20 57 18 57 -10z m1122 11 c24
-11 63 -25 88 -31 41 -11 43 -13 25 -26 -30 -22 -127 -18 -153 6 -22 21 -31
70 -12 70 5 0 29 -9 52 -19z m-15 -167 c-3 -3 -12 -4 -19 -1 -8 3 -5 6 6 6 11
1 17 -2 13 -5z"/>
<path d="M1611 1663 c-5 -10 -13 -15 -16 -11 -13 13 -37 -21 -30 -43 18 -57
105 -40 105 21 0 19 -7 33 -19 40 -26 13 -28 13 -40 -7z"/>
<path d="M900 1650 c-25 -47 27 -96 75 -70 30 16 42 54 25 75 -19 23 -87 20
-100 -5z"/>
<path d="M1010 1543 c0 -6 9 -18 20 -28 26 -23 25 -47 -1 -63 -16 -10 -24 -10
-35 -1 -17 14 -18 56 -1 62 6 2 9 7 6 11 -3 3 -18 -5 -32 -18 -56 -52 -17
-141 61 -141 58 0 82 26 82 85 0 35 -5 52 -22 68 -25 23 -78 40 -78 25z"/>
<path d="M1490 1521 c-29 -24 -35 -35 -35 -71 0 -57 41 -95 93 -86 106 17 104
150 -3 180 -14 4 -32 -3 -55 -23z m70 -41 c0 -24 -38 -44 -56 -29 -19 16 -18
49 3 64 13 10 20 9 35 -4 10 -8 18 -22 18 -31z"/>
<path d="M1260 1387 c0 -7 -10 -23 -23 -37 -13 -14 -32 -39 -43 -55 -10 -17
-40 -60 -67 -97 -52 -72 -56 -107 -14 -109 20 -1 21 -2 2 -6 -36 -9 -40 -22
-13 -50 14 -16 45 -55 69 -88 24 -33 51 -69 61 -79 10 -11 20 -28 24 -38 12
-39 41 -17 115 85 40 56 82 111 91 121 23 26 23 35 -4 45 l-22 8 22 5 c36 10
26 40 -48 142 -38 53 -70 99 -70 102 0 3 -12 19 -27 35 -29 30 -53 38 -53 16z
m80 -108 c25 -39 55 -82 67 -97 24 -28 30 -52 13 -52 -5 0 -34 9 -65 21 -51
19 -59 19 -98 6 -65 -22 -113 -37 -120 -37 -16 0 -4 31 33 84 22 31 40 59 40
61 0 15 65 92 74 88 6 -2 31 -36 56 -74z m-105 -289 c8 0 15 -4 15 -10 0 -5
11 -12 25 -16 25 -6 25 -7 9 -25 -14 -15 -15 -21 -4 -34 7 -9 10 -18 6 -22 -4
-4 -21 10 -39 31 -17 22 -44 51 -59 67 -30 32 -25 46 8 24 13 -8 30 -15 39
-15z m112 -16 c-3 -3 -12 -4 -19 -1 -8 3 -5 6 6 6 11 1 17 -2 13 -5z"/>
</g>
</svg>
