<svg width="32" height="32" viewBox="0 0 32 32" fill="none" xmlns="http://www.w3.org/2000/svg">
<path d="M32 16C32 24.8366 24.8366 32 16 32C7.16344 32 0 24.8366 0 16C0 7.16344 7.16344 0 16 0C24.8366 0 32 7.16344 32 16Z" fill="#E479FF"/>
<path d="M13.2613 17.5065C14.3506 17.5065 15.234 16.5416 15.234 15.3534C15.234 14.1651 14.3506 13.2002 13.2613 13.2002C12.1721 13.2002 11.2887 14.1651 11.2887 15.3534C11.2887 16.5416 12.1721 17.5065 13.2613 17.5065Z" fill="black"/>
<path d="M23.7818 17.5065C24.8711 17.5065 25.7545 16.5416 25.7545 15.3534C25.7545 14.1651 24.8711 13.2002 23.7818 13.2002C22.6926 13.2002 21.8092 14.1651 21.8092 15.3534C21.8092 16.5416 22.6926 17.5065 23.7818 17.5065Z" fill="black"/>
<path d="M26.7 22.9254L26.5462 20.975L26.2906 20.9956C21.122 21.4293 15.9312 21.5858 10.7477 21.4652L10.4921 21.4601L10.45 23.4182L10.7055 23.4233C15.9535 23.5465 21.2088 23.3848 26.4444 22.946L26.7 22.9254Z" fill="black"/>
</svg>
