<?xml version="1.0" encoding="utf-8"?>
<!-- Generator: Adobe Illustrator 26.3.1, SVG Export Plug-In . SVG Version: 6.00 Build 0)  -->
<svg version="1.1" id="Layer_1" xmlns="http://www.w3.org/2000/svg" xmlns:xlink="http://www.w3.org/1999/xlink" x="0px" y="0px"
	 viewBox="0 0 4000 4000" style="enable-background:new 0 0 4000 4000;" xml:space="preserve">
<style type="text/css">
	.st0{fill:url(#SVGID_1_);}
	.st1{fill:url(#SVGID_00000088825156460997010530000004681392280211060655_);}
	.st2{fill:url(#SVGID_00000000218328670740381230000017146933021598154929_);}
	.st3{fill:url(#SVGID_00000011009040373000798520000018178695211845934262_);}
	.st4{fill:url(#SVGID_00000101818739718141032460000009173629310523850425_);}
	.st5{fill:url(#SVGID_00000049907979062387584820000013650697249372606132_);}
	.st6{fill:#94FF0B;}
	.st7{fill:#C26E80;}
	.st8{fill:#6B473A;}
	.st9{fill:#FFB1BA;}
	.st10{fill:#E0A27E;}
	.st11{fill:#D5665F;}
	.st12{fill:#FFD8C1;}
	.st13{fill:#18141B;}
	.st14{fill:#4E5458;}
	.st15{fill:#29231F;}
	.st16{fill:#FEC8A9;}
	.st17{fill:#1B4C3A;}
	.st18{fill:#FF0E4B;}
	.st19{fill:#1FA673;}
	.st20{fill:#5E3640;}
	.st21{fill:#32464E;}
	.st22{fill:#8B2942;}
	.st23{fill:#FD96AF;}
</style>
<rect width="4000" height="4000"/>
<g>
	
		<radialGradient id="SVGID_1_" cx="-0.4819" cy="4001.2468" r="2" gradientTransform="matrix(473.55 0 0 -473.726 3176.78 1897483.5)" gradientUnits="userSpaceOnUse">
		<stop  offset="0" style="stop-color:#94FF0B;stop-opacity:0"/>
		<stop  offset="0.7" style="stop-color:#94FF0B;stop-opacity:0.6"/>
		<stop  offset="1" style="stop-color:#94FF0B"/>
	</radialGradient>
	<path class="st0" d="M3418.9,1170c0,166.1-43.7,329.3-126.7,473.1c-83,143.8-202.4,263.3-346.2,346.4
		c-143.8,83.1-306.9,126.8-472.9,126.8s-329.2-43.7-473-126.7c0,166.1,43.7,329.3,126.7,473.2c83,143.9,202.5,263.3,346.3,346.4
		c143.8,83.1,307,126.8,473,126.8c166.1,0,329.2-43.7,473-126.8c143.8-83.1,263.2-202.5,346.3-346.4
		c83-143.9,126.7-307.1,126.7-473.2c0-166.1-43.8-329.3-126.8-473.2C3682.1,1372.5,3562.7,1253,3418.9,1170z"/>
	
		<radialGradient id="SVGID_00000024716397087091547280000016969651622978660499_" cx="-0.9765" cy="4000.3862" r="2" gradientTransform="matrix(476.106 0 0 -475.803 2940.1001 1906198.25)" gradientUnits="userSpaceOnUse">
		<stop  offset="0" style="stop-color:#94FF0B;stop-opacity:0"/>
		<stop  offset="0.7" style="stop-color:#94FF0B;stop-opacity:0.6"/>
		<stop  offset="1" style="stop-color:#94FF0B"/>
	</radialGradient>
	<path style="fill:url(#SVGID_00000024716397087091547280000016969651622978660499_);" d="M2946.5,2934.4
		c-124.4,0.1-247.6-24.4-362.5-71.9s-219.4-117.3-307.3-205.1c-88-87.9-157.7-192.3-205.3-307.1c-47.6-114.9-72-238-71.9-362.3
		c-143.9,83.1-263.5,202.5-346.6,346.3c-83.1,143.9-126.9,307-126.9,473.1c0,166.1,43.7,329.3,126.8,473.1
		c83.1,143.9,202.6,263.4,346.5,346.5c143.9,83.1,307.2,126.9,473.4,126.9c166.2,0.1,329.5-43.6,473.5-126.6
		c144-83,263.6-202.4,346.7-346.2c83.2-143.8,127-307,127.1-473.1C3276.1,2891.2,3112.7,2934.7,2946.5,2934.4z"/>
	
		<radialGradient id="SVGID_00000038414238602738431190000014326087124848440980_" cx="-0.9842" cy="4002.1143" r="2.0001" gradientTransform="matrix(473.346 0 0 -472.998 2939.1201 1894162)" gradientUnits="userSpaceOnUse">
		<stop  offset="0" style="stop-color:#94FF0B;stop-opacity:0"/>
		<stop  offset="0.7" style="stop-color:#94FF0B;stop-opacity:0.6"/>
		<stop  offset="1" style="stop-color:#94FF0B"/>
	</radialGradient>
	<path style="fill:url(#SVGID_00000038414238602738431190000014326087124848440980_);" d="M2473.3,224
		c-166.2-0.2-329.5,43.4-473.3,126.6c144,83,263.5,202.5,346.6,346.3c83.1,143.8,126.8,307,126.7,473.1
		c0.1,166.1-43.6,329.2-126.7,473.1c-83.1,143.8-202.6,263.3-346.6,346.3c143.9,83,307.2,126.7,473.3,126.7
		c166.2,0,329.4-43.7,473.3-126.8c143.9-83,263.4-202.4,346.5-346.2c83.1-143.8,126.8-306.9,126.8-473
		c0-250.9-99.8-491.5-277.3-668.9S2724.4,224,2473.3,224z"/>
	
		<radialGradient id="SVGID_00000136410447693205100580000015518464973198952325_" cx="-1.9776" cy="4000.3799" r="2.0006" gradientTransform="matrix(474.65 0 0 -474.785 2466.3311 1902129.375)" gradientUnits="userSpaceOnUse">
		<stop  offset="0" style="stop-color:#94FF0B;stop-opacity:0"/>
		<stop  offset="0.7" style="stop-color:#94FF0B;stop-opacity:0.6"/>
		<stop  offset="1" style="stop-color:#94FF0B"/>
	</radialGradient>
	<path style="fill:url(#SVGID_00000136410447693205100580000015518464973198952325_);" d="M1526.7,2809
		c-0.1-166.3,43.6-329.6,126.7-473.6c83.1-144,202.6-263.5,346.6-346.6c-143.9-83.1-307.2-126.8-473.4-126.8
		c-166.2,0-329.4,43.8-473.3,126.9c-143.9,83.1-263.4,202.7-346.5,346.6S580,2642.8,580,2809s43.7,329.5,126.8,473.5
		s202.6,263.5,346.5,346.6c143.9,83.1,307.2,126.9,473.3,126.9c166.2,0,329.4-43.7,473.4-126.8c-143.9-83.1-263.5-202.6-346.6-346.6
		C1570.4,3138.6,1526.6,2975.3,1526.7,2809z"/>
	
		<radialGradient id="SVGID_00000134239062589897289660000006606003857097856437_" cx="-1.9887" cy="4002.1177" r="2" gradientTransform="matrix(472.432 0 0 -472.567 2465.5181 1892437.25)" gradientUnits="userSpaceOnUse">
		<stop  offset="0" style="stop-color:#94FF0B;stop-opacity:0"/>
		<stop  offset="0.7" style="stop-color:#94FF0B;stop-opacity:0.6"/>
		<stop  offset="1" style="stop-color:#94FF0B"/>
	</radialGradient>
	<path style="fill:url(#SVGID_00000134239062589897289660000006606003857097856437_);" d="M1999,348.7
		c-143.8-83-307-126.7-473-126.7c-166.1,0-329.2,43.8-473,126.8c-143.8,83.1-263.2,202.5-346.2,346.4
		c-83,143.9-126.7,307-126.7,473.2c143.8-83,307-126.7,473-126.7c166.1,0,329.2,43.8,473,126.8c143.8,83.1,263.2,202.5,346.3,346.4
		c83,143.9,126.7,307,126.8,473.1c143.8-83,263.3-202.5,346.3-346.4c83-143.9,126.7-307.1,126.6-473.2
		c0.1-166.1-43.6-329.4-126.6-473.3C2262.3,551.2,2142.9,431.7,1999,348.7z"/>
	
		<radialGradient id="SVGID_00000134213604288302219580000004573256821703982265_" cx="-2.488" cy="4001.252" r="2.0002" gradientTransform="matrix(472.709 0 0 -472.312 2229.094 1891826.75)" gradientUnits="userSpaceOnUse">
		<stop  offset="0" style="stop-color:#94FF0B;stop-opacity:0"/>
		<stop  offset="0.7" style="stop-color:#94FF0B;stop-opacity:0.6"/>
		<stop  offset="1" style="stop-color:#94FF0B"/>
	</radialGradient>
	<path style="fill:url(#SVGID_00000134213604288302219580000004573256821703982265_);" d="M1526.6,1168.7
		c-217.6-125.5-476.1-159.4-718.7-94.4s-449.5,223.6-575,441c-125.6,217.4-159.6,475.7-94.5,718.1
		c65.1,242.4,223.8,449.1,441.4,574.6c-0.1-166.1,43.6-329.3,126.7-473.2c83.1-143.9,202.6-263.4,346.5-346.5
		c143.9-83.1,307.2-126.9,473.5-126.9c166.2,0,329.6,43.7,473.6,126.7c0.1-166.1-43.7-329.3-126.8-473.1
		C1790.1,1371.2,1670.6,1251.7,1526.6,1168.7z"/>
	<path class="st6" d="M3896,1989c-0.4-166.3-44.3-329.6-127.3-473.7c-83-144.1-202.3-264-346.1-347.8
		c-0.4-166.4-44.5-329.7-127.9-473.7c-83.4-144-203.2-263.5-347.3-346.7c-144.2-83.2-307.6-127-474.1-127.2
		c-166.5-0.2-330,43.3-474.4,126.2C1854.6,263.3,1691,219.8,1524.5,220c-166.5,0.2-330,44.1-474.1,127.2
		C906.2,430.4,786.5,550,703.1,693.9s-127.5,307.3-127.9,473.7c-143.9,83.5-263.4,203.3-346.5,347.5
		C145.7,1659.2,102,1822.7,102,1989c0,166.3,43.7,329.8,126.8,473.9c83,144.2,202.5,264,346.5,347.5
		c0.4,166.4,44.5,329.7,127.9,473.7c83.4,144,203.2,263.5,347.3,346.7c144.2,83.2,307.7,127.1,474.1,127.2
		c166.5,0.2,330.1-43.3,474.4-126.2c144.4,82.8,307.9,126.4,474.4,126.2c166.5-0.2,330-44.1,474.1-127.2
		c144.2-83.2,263.9-202.7,347.3-346.7c83.4-144,127.5-307.3,127.9-473.7c143.7-83.8,263-203.7,346.1-347.7
		C3851.7,2318.6,3895.6,2155.3,3896,1989z M2472.4,227.2c250.1,0,490,99.3,666.8,276c176.9,176.7,276.2,416.4,276.2,666.4
		s-99.4,489.7-276.2,666.4c-176.8,176.7-416.7,276-666.8,276c-10.3,0-20.5,0-30.8-0.5c-3.6,0-7.3-0.4-10.6-0.5
		c-6.8,0-13.4-0.5-20.1-1l-13.1-1.1l-17.5-1.4l-13.8-1.6c-5.6-0.6-11.2-1.2-16.7-1.9l-14.2-2.1c-5.4-0.8-10.8-1.5-16.1-2.4
		c-5.4-0.9-9.7-1.8-14.7-2.6c-5-0.9-10.4-1.8-15.6-2.8c-5.2-1-9.7-2-14.7-3.1c-5-1.1-10.3-2.1-15.3-3.3c-5.1-1.2-9.8-2.4-14.7-3.6
		c-4.9-1.2-10.1-2.4-15.1-3.7l-14.7-4.1l-14.7-4.3l-14.7-4.5l-14.7-4.7c-4.8-1.6-9.5-3.4-14.2-5.1c-4.8-1.7-9.8-3.4-14.7-5.2
		l-13.9-5.4c-4.8-1.9-9.8-3.7-14.7-5.7l-13.6-5.8l-14.7-6.3c-4.5-2-8.9-4.1-13.3-6.2l-14.7-6.7l-11.7-6.9c-4.8-2.4-9.5-4.8-14.2-7.3
		c-4.7-2.6-8.5-4.7-12.7-7.3l-11.3-6.2c3.8-2.2,7.3-4.6,11.3-6.9c4-2.3,8.6-5.1,12.8-7.8l13.7-8.9l12.8-8.4c4.4-2.9,8.7-6,13.1-9
		l12.6-8.9l12.5-9.3c4.1-3.2,8.4-6.2,12.5-9.5l12-9.5c4.1-3.3,8.3-6.6,12.3-10l11.5-9.8l12.2-10.5l10.8-9.9c4-3.7,8.1-7.3,12-11.1
		l10.3-10c4-3.9,8-7.3,11.9-11.7c3.9-4.3,6.5-6.7,9.8-10.2c3.2-3.4,7.8-8,11.6-12.1c3.8-4.1,6.2-7,9.3-10.4
		c3.1-3.4,7.3-8.3,11.2-12.5l8.9-10.6c3.7-4.3,7.3-8.7,10.9-13.1c3.6-4.4,5.6-7.3,8.4-10.6c2.8-3.3,7.3-9,10.6-13.6
		c3.3-4.5,5.3-7.3,8-10.8c2.6-3.4,6.9-9.2,10.3-13.9l7.3-10.9c3.3-4.8,6.7-9.6,9.9-14.7c2.4-3.7,4.7-7.3,7.3-11
		c3.2-4.9,6.3-9.8,9.4-14.7c2.4-3.7,4.6-7.3,6.8-11.3c3-5,6.1-10,9-15l6.3-11.4c2.9-5.1,5.8-10.3,8.5-15.4c2.1-3.9,4-7.8,6-11.6
		c2.6-5.3,5.4-10.5,8-15.8c1.9-3.9,3.7-7.8,5.6-11.7c2.6-5.4,5.1-10.6,7.3-16c1.8-4,3.4-8,5.2-12c2.4-5.4,4.8-10.7,7.3-16.1
		c1.7-4.1,3.2-8.3,4.9-12.4c2.1-5.4,4.3-10.7,6.4-16.1c1.6-4.3,3.1-8.5,4.6-12.8c1.9-5.4,3.9-10.8,5.8-16.2c1.5-4.3,2.8-8.7,4.2-13
		c1.8-5.4,3.6-10.9,5.3-16.4c1.3-4.4,2.6-8.9,3.8-13.3c1.2-4.5,3.2-10.8,4.7-16.3c1.5-5.5,2.3-9.1,3.5-13.7c1.2-4.6,2.8-10.8,4-16.2
		c1.2-5.4,2.1-9.5,3.1-14.2c1-4.8,2.4-10.6,3.5-16c1.1-5.4,1.8-9.9,2.7-14.7c0.9-4.8,2-10.4,2.9-15.6c0.9-5.2,1.5-10.3,2.4-15.4
		c0.8-5.1,1.6-10.2,2.3-15.3c0.7-5.1,1.3-10.8,1.9-16.1c0.6-5.4,1.2-9.9,1.8-14.7c0.5-4.8,1-11.7,1.5-17.5c0-4.5,0.8-9.2,1.2-13.7
		c0.4-6.8,0.7-13.6,1-20.5c0-3.7,0.4-7.3,0.5-10.9c0-10.5,0.5-21,0.5-31.5c0-10.5,0-21-0.5-31.5c0-3.6-0.4-7.3-0.5-10.8
		c0-6.9-0.6-13.7-1-20.5c-0.4-4.6-0.8-9.1-1.2-13.7c-0.5-5.8-0.9-11.7-1.5-17.5c-0.6-5.8-1.2-9.8-1.7-14.7c-0.5-4.8-1.3-10.9-2-16.3
		c-0.7-5.4-1.5-10.1-2.3-15.2c-0.8-5.1-1.5-10.3-2.4-15.5c-0.9-5.2-1.8-10.3-2.8-15.3s-1.8-10.1-2.8-15.2
		c-0.9-5.1-2.3-10.5-3.4-15.7c-1.2-5.2-2.1-9.7-3.2-14.7c-1.2-5-2.7-10.6-4-15.9c-1.3-5.3-2.3-9.4-3.6-14c-1.3-4.6-3-10.7-4.6-16
		c-1.5-5.3-2.6-9.2-4-13.6c-1.4-4.5-3.5-10.7-5.1-16c-1.7-5.3-2.9-8.9-4.3-13.3c-1.5-4.4-3.8-10.6-5.7-15.8
		c-1.9-5.2-3.1-8.8-4.7-13.2c-1.6-4.4-4.2-10.5-6.2-15.8c-2.1-5.3-3.4-8.5-5.1-12.8c-1.8-4.3-4.5-10.6-6.8-15.8
		c-2.3-5.2-3.5-8.3-5.3-12.4c-2.4-5.3-4.9-10.4-7.3-15.6c-1.9-4-3.7-8.1-5.7-12.1c-2.6-5.2-5.2-10.3-7.8-15.4c-2.1-4-4-8-6.2-12
		c-2.7-5.1-5.6-10-8.4-15.1c-2.1-3.9-4.3-7.8-6.5-11.7c-2.3-3.9-5.8-9.8-8.7-14.7c-2.9-4.8-4.6-7.8-7-11.6c-3-4.9-6.2-9.7-9.3-14.7
		c-3.1-5-4.8-7.3-7.3-11.4c-2.5-4-6.4-9.5-9.6-14.2l-7.8-11.2c-3.3-4.6-6.7-9.2-10.1-13.7c-3.4-4.5-5.4-7.3-8.1-11
		c-2.8-3.7-7-8.9-10.5-13.4l-8.5-10.8c-3.5-4.3-7.3-8.7-10.9-12.9c-3.5-4.3-5.9-7.3-9-10.7c-3-3.4-7.3-8.3-11.1-12.5
		c-3.8-4.2-6.2-7.3-9.5-10.5c-3.2-3.2-7.3-8-11.4-12c-4.1-4-6.5-6.9-9.9-10.3c-3.4-3.4-7.8-7.8-11.8-11.6c-4-3.8-6.8-6.7-10.3-10
		c-3.5-3.3-8-7.3-12-11.1c-4-3.7-7.3-6.7-10.8-9.9c-3.5-3.2-8.2-7.3-12.3-10.6l-11.4-9.6c-4.1-3.4-8.3-6.7-12.5-10.1l-11.8-9.5
		c-4.2-3.2-8.4-6.4-12.7-9.5l-12.3-9.2c-4.3-3.2-8.7-6.1-12.9-9.2l-12.8-8.9l-13.6-7.9c-4.5-2.9-8.9-5.9-13.4-8.7l-13.2-8.1
		c-3.7-2.2-7.3-4.5-11-6.7C2148.5,269.7,2309.1,227.3,2472.4,227.2z M1525.7,227.2c123.9-0.1,246.5,24.3,361,71.6
		c114.5,47.3,218.4,116.8,306,204.3c87.6,87.5,157,191.4,204.4,305.8c47.4,114.4,71.7,236.9,71.7,360.7c0,10.4,0,20.8-0.5,31.2
		c0,3.3-0.4,6.6-0.5,10c0,7.3-0.6,14.1-1,21.1c0,4-0.7,7.9-1,11.9c-0.5,6.4-1,12.8-1.6,19.1c0,4.2-1,8.3-1.4,12.4
		c-0.7,6.2-1.4,12.2-2.2,18.4c-0.6,4.3-1.2,8.5-1.9,12.8c-0.9,5.9-1.7,11.8-2.6,17.7l-2.4,13.1c-1.1,5.8-2.1,11.5-3.2,17.2
		c-0.9,4.3-1.9,8.7-2.8,13c-1.3,5.7-2.4,11.4-3.7,17c-1,4.3-2.2,8.5-3.2,12.8c-1.5,5.7-2.8,11.4-4.3,17c-1.2,4.3-2.4,8.4-3.7,12.7
		c-1.5,5.6-3.1,11.1-4.8,16.7c-1.2,4.2-2.6,8.4-4,12.5c-1.8,5.6-3.4,11.1-5.4,16.6c-1.4,4.1-2.9,8.2-4.4,12.3
		c-2,5.5-3.9,11-5.9,16.4c-1.5,4.1-3.2,8.1-4.8,12.2c-2.1,5.4-4.2,10.8-6.4,16.1c-1.7,4-3.5,8-5.3,12c-2.3,5.4-4.5,10.6-6.9,15.9
		l-5.6,11.9c-2.5,5.2-4.9,10.5-7.3,15.7c-1.9,4-4,7.8-6,11.7c-2.6,5.1-5.2,10.3-7.9,15.4l-6.4,11.5c-2.8,5.1-5.6,10.1-8.4,15.1
		c-2.2,3.8-4.5,7.3-6.8,11.3c-2.9,5-5.8,10-8.9,14.7c-2.3,3.7-4.7,7.3-7.3,11.1c-3.1,4.8-6.2,9.8-9.4,14.7c-3.2,4.9-5,7.3-7.3,11
		c-2.4,3.7-6.5,9.5-9.8,14.2l-7.9,10.8c-3.4,4.6-6.7,9.2-10.2,13.8l-8.3,10.6c-3.5,4.5-7,8.9-10.6,13.4l-8.7,10.3
		c-3.7,4.3-7.3,8.7-11,13.1l-9,10.1c-3.8,4.2-7.3,8.4-11.5,12.6c-4.1,4.2-6.2,6.6-9.4,9.9c-3.1,3.3-7.8,8.2-11.7,12.2l-9.9,9.7
		c-4,4-8,7.9-12,11.7s-6.8,6.4-10.3,9.5l-12.4,11.3l-10.7,9.5c-4.2,3.6-8.4,7.3-12.6,10.8c-4.3,3.4-7.3,6-11.2,9
		c-3.8,3-8.6,7-13,10.3c-4.4,3.4-7.3,5.8-11.5,8.7c-4.2,2.9-8.7,6.7-13.2,9.9l-12,8.4c-4.5,3.2-9,6.3-13.5,9.4
		c-4.5,3.1-8.2,5.4-12.4,8.1c-4.2,2.7-9.1,6-13.7,8.9c-4.6,2.9-8.5,5.2-12.8,7.8l-11.2,6.7c0-4.3,0-8.5,0-12.8
		c0-4.3,0-10.3-0.4-15.5c-0.4-5.1-0.5-10.6-0.8-15.9c-0.3-5.3-0.5-10.3-0.9-15.4c-0.4-5.1-0.9-10.6-1.3-15.8
		c-0.4-5.3-0.9-10.3-1.4-15.3c-0.5-5.1-1.2-10.5-1.8-15.7c-0.6-5.2-1.2-10.2-1.9-15.3c-0.7-5.1-1.5-10.4-2.3-15.6
		c-0.8-5.2-1.5-10.1-2.4-15.1c-0.9-5-1.8-10.3-2.9-15.5c-1-5.2-1.8-10-2.9-14.7c-1-4.7-2.2-10.3-3.4-15.4c-1.2-5.1-2.1-9.9-3.3-14.7
		c-1.2-4.8-2.6-10.2-3.9-15.3c-1.3-5.1-2.5-9.8-3.8-14.7c-1.3-4.8-2.9-10.1-4.3-15.1c-1.5-5-2.8-9.7-4.3-14.7
		c-1.5-5-3.2-10-4.8-14.7c-1.7-4.7-3.1-9.6-4.7-14.7c-1.6-5.1-3.5-9.8-5.4-14.7c-1.8-4.8-3.4-9.5-5.1-14.2
		c-1.8-4.7-3.9-9.8-5.9-14.7c-2-4.9-3.7-9.3-5.6-13.9c-1.9-4.6-4.2-9.7-6.3-14.7c-2.1-5-4-9.2-6-13.6c-2.1-4.5-4.5-9.6-6.8-14.7
		c-2.3-5.1-4.2-8.9-6.4-13.3c-2.2-4.4-4.8-9.5-7.3-14.2l-6.8-13.1c-2.6-4.7-5.1-9.2-7.3-13.9l-7.3-12.9c-2.7-4.6-5.5-9.2-8.3-13.8
		s-5-8.4-7.3-12.5c-2.3-4.2-5.8-9.1-8.7-13.6c-2.9-4.5-5.2-8.2-7.9-12.2c-2.7-4-6.1-8.9-9.2-13.3l-8.3-11.9
		c-3.2-4.4-6.5-8.7-9.7-13.1c-3.2-4.4-5.7-7.8-8.6-11.6l-10.2-12.9c-3-3.7-5.9-7.3-9-11.2c-3.1-3.9-7.3-8.4-10.6-12.5
		c-3.2-4.2-6.2-7.3-9.3-10.9c-3.2-3.6-7.3-8.3-11.1-12.4c-3.7-4.1-6.3-7.3-9.5-10.5c-3.2-3.2-7.8-8.1-11.7-12.2l-9.8-10.1
		c-4-4-8.2-8-12.3-12l-9.8-9.6c-4.3-4-8.6-7.8-12.9-11.7c-4.3-3.9-6.6-6.2-10.1-9.2c-3.4-3-8.9-7.3-13.3-11.4l-10.3-8.8
		c-4.6-3.7-9.2-7.3-13.9-11.1c-3.5-2.7-6.9-5.6-10.4-8.3c-4.8-3.7-9.8-7.3-14.7-10.9c-3.4-2.6-6.8-5.2-10.3-7.3
		c-5.4-3.9-10.9-7.3-16.3-11.4l-9.4-6.5c-6.3-4.3-12.8-8.3-19.2-12.4l-7.3-4.7c-9-5.6-18-11-27.1-16.3
		c-144.5-83.3-308.3-127.1-475.1-127c-10.4,0-20.8,0-31.1,0.5c-3.5,0-7.3,0-10.5,0.5c-6.8,0-13.7,0.5-20.5,1l-12.6,1
		c-6.1,0.5-12.2,1-18.3,1.5c-4.5,0.4-9,1-13.4,1.5c-5.8,0.6-11.5,1.2-17.3,2c-4.6,0.6-9.2,1.3-13.9,2.1c-4.6,0.7-11.2,1.5-16.7,2.4
		l-14.2,2.6l-16.1,2.9l-14.2,3l-15.9,3.4c-4.8,1.1-9.5,2.3-14.7,3.5l-15.6,4c-4.8,1.2-9.5,2.6-14.2,4l-15.4,4.4l-14.2,4.5l-15.2,4.9
		c-4.7,1.5-9.4,3.2-14,4.9l-14.7,5.4l-13.9,5.4c-4.9,1.9-9.9,3.8-14.7,5.9c-4.8,2.1-9.1,3.8-13.7,5.8s-9.8,4.2-14.7,6.4
		c-4.8,2.2-8.9,4.1-13.4,6.2c-4.5,2.1-9.8,4.5-14.7,6.8l-13.2,6.7c-4.8,2.5-9.6,4.8-14.7,7.3c-5.1,2.5-8.6,4.7-12.9,7.3l-11.3,6.2
		c1.8-248.8,101.8-486.8,278.3-662.2s415.2-274.1,664.2-274.5H1525.7z M109.3,1988.9c0-165.4,43.6-327.9,126.4-471.2
		c82.8-143.3,201.8-262.2,345.2-344.9c143.4-82.7,306-126.2,471.5-126.2c165.5,0,328.2,43.5,471.5,126.2c9,5.2,18,10.6,26.9,16.1
		l8.1,5.3c6,3.8,12.1,7.7,18.1,11.7l9.6,6.7l15.9,11.1c3.4,2.4,6.7,5,10.1,7.3l14.7,11.1c3.3,2.6,6.5,5.2,9.8,7.8
		c4.8,3.7,9.7,7.3,14.7,11.4c3.3,2.7,6.5,5.5,9.7,8.2c4.6,4,9.2,7.8,13.8,11.8c3.2,2.8,6.2,5.6,9.3,8.5c4.5,4,9,8.1,13.4,12.2
		l9.1,8.9c4.3,4.2,8.7,8.3,12.9,12.5c2.9,3,5.8,6.1,8.7,9.2c4.2,4.3,8.4,8.6,12.5,13c2.9,3,5.7,6.2,8.5,9.3c4,4.5,8.1,8.9,12,13.4
		c2.7,3.1,5.4,6.3,8.1,9.5c3.9,4.6,7.9,9.2,11.7,13.9c2.6,3.2,5.1,6.5,7.8,9.8c3.7,4.7,7.3,9.4,11.2,14.2c2.6,3.4,5,6.7,7.3,10.1
		c3.6,4.8,7.3,9.5,10.7,14.7c2.4,3.4,4.8,6.9,7.3,10.3c3.4,4.9,6.8,9.8,10.1,14.7c2.3,3.4,4.6,7.3,6.9,10.6c3.2,5,6.5,10,9.7,15
		l6.5,10.8c3.1,5.1,6.2,10.2,9.2,15.3l6.2,11.1c2.9,5.1,5.9,10.3,8.7,15.5l5.9,11.3c2.7,5.2,5.5,10.5,8.1,15.8
		c1.9,3.8,3.7,7.7,5.5,11.6c2.6,5.3,5.1,10.6,7.3,15.9c1.8,3.9,3.5,7.9,5.3,11.9c2.3,5.3,4.7,10.6,7,16.1c1.7,4,3.2,8.1,4.9,12.1
		c2.1,5.4,4.3,10.8,6.4,16.2c1.6,4.1,3.1,8.3,4.5,12.4c2,5.4,4,10.9,5.9,16.3c1.5,4.3,2.8,8.5,4.2,12.7c1.8,5.5,3.7,10.9,5.4,16.4
		c1.3,4.3,2.6,8.7,3.8,13.1c1.6,5.4,3.2,10.9,4.7,16.4c1.2,4.4,2.3,8.9,3.4,13.3c1.1,4.4,2.9,10.9,4.2,16.4
		c1.3,5.4,2.1,9.1,3.1,13.6c1,4.5,2.5,10.9,3.6,16.4c1.1,5.5,1.8,9.2,2.6,13.9c0.9,4.7,2.1,10.9,3,16.3c1,5.4,1.5,9.5,2.3,14.2
		c0.7,4.8,1.7,10.9,2.4,16.3c0.7,5.4,1.2,9.6,1.8,14.7c0.6,5.1,1.3,10.8,1.9,16.2l1.3,14.7c0.4,5.4,1,10.8,1.3,16.2
		c0.4,5.4,0.6,10,0.9,14.7c0.3,4.7,0.6,10.7,0.8,16.1c0.2,5.4,0,10.2,0.4,15.3v12.8c-3.7-2.1-7.3-4.1-11.3-6.2l-12.9-7.3l-14.2-7.3
		c-4.5-2.2-8.9-4.5-13.4-6.7c-4.5-2.1-9.5-4.5-14.7-6.8l-13.6-6.3l-14.7-6.2l-13.9-5.9l-14.7-5.7c-4.7-1.9-9.5-3.8-14.2-5.6
		l-14.7-5.2c-4.8-1.7-9.5-3.4-14.7-5.1c-5.1-1.6-9.8-3.2-14.7-4.8l-14.7-4.6l-14.7-4.3l-14.7-4.1l-15.1-3.8l-14.7-3.7
		c-5.1-1.2-10.3-2.2-15.4-3.3l-14.7-3.2c-5.2-1-10.5-1.9-15.8-2.9c-5.3-1-9.7-1.8-14.7-2.6s-10.7-1.6-16.1-2.4l-14.7-2.1
		c-5.6-0.7-11.2-1.3-16.8-1.9c-5.7-0.6-9.2-1.2-13.9-1.6c-6-0.6-12-1-18.1-1.5l-12.8-1c-6.8-0.4-13.7-0.7-20.5-1l-10.6-0.5
		c-10.3-0.4-20.7-0.5-31-0.5c-166.8-0.1-330.7,43.8-475.2,127.1c-9.1,5.3-18.1,10.7-27,16.2l-9.6,6.2c-5.6,3.6-11.3,7.3-16.8,10.9
		c-3.8,2.6-7.3,5.2-11.2,7.8c-4.8,3.4-9.7,6.7-14.7,10.1l-10.6,9.4c-4.3,3.2-8.8,6.5-13.1,9.8l-11.9,9.5c-4.1,3.3-8.4,6.5-12.4,9.9
		l-11.7,10c-4,3.4-8,6.7-11.9,10.2c-3.9,3.4-7.3,7.3-11.5,10.4l-11.5,10.5c-3.7,3.5-7.3,7.3-11.1,10.8c-3.7,3.4-7.3,7.3-11.1,10.8
		c-3.7,3.4-7.3,7.3-10.8,11.1c-3.5,3.8-7.3,7.3-10.6,11.1c-3.3,3.7-6.9,7.7-10.4,11.5c-3.5,3.8-6.9,7.3-10.2,11.4
		c-3.3,4-6.8,7.9-10.1,11.9c-3.3,4-6.6,7.7-9.8,11.7c-3.2,4-6.5,8.1-9.7,12.1l-9.5,12c-3.2,4.1-6.2,8.3-9.2,12.4
		c-3.1,4.1-6.1,8.1-9,12.3l-8.9,12.8c-2.9,4.2-5.8,8.3-8.6,12.5c-2.8,4.3-5.7,8.7-8.4,13c-2.8,4.3-5.6,8.5-8.2,12.8
		c-2.6,4.3-5.4,8.8-8,13.2c-2.6,4.4-5.3,8.6-7.9,13.1c-2.6,4.4-5.1,9-7.3,13.5c-2.3,4.5-5,8.9-7.3,13.4c-2.3,4.5-4.7,9.1-7.3,13.6
		c-2.6,4.5-4.8,9-7.3,13.6c-2.6,4.6-4.4,9.2-6.6,13.7c-2.2,4.6-4.5,9.3-6.6,14c-2.1,4.7-4.2,9.3-6.2,14c-2.1,4.7-4.1,9.4-6.1,14.1
		c-2,4.7-3.9,9.5-5.8,14.2c-1.9,4.7-3.8,9.5-5.6,14.3c-1.8,4.8-3.5,9.6-5.3,14.7c-1.8,5.1-3.6,9.6-5.2,14.7
		c-1.6,5.1-3.2,9.7-4.8,14.7c-1.6,5-3.2,9.8-4.8,14.7c-1.5,4.9-2.9,9.8-4.3,14.7c-1.5,4.9-2.9,10-4.3,14.7
		c-1.4,4.7-2.6,9.8-3.8,14.7c-1.2,4.8-2.6,10-3.8,15.1c-1.2,5.1-2.3,10-3.4,14.7c-1.1,4.7-2.3,10.2-3.4,15.3c-1,5.1-1.9,10-2.9,15.1
		c-1,5.1-2,10.3-2.9,15.4c-0.9,5.1-1.6,10.1-2.4,15.2c-0.8,5.1-1.6,10.3-2.3,15.5c-0.7,5.2-1.2,10.2-1.8,15.3
		c-0.6,5.1-1.3,10.4-1.9,15.6c-0.6,5.2-0.9,10.3-1.3,15.4c-0.4,5.1-1,10.5-1.3,15.8c-0.4,5.3-0.7,10.3-0.9,15.5
		c-0.2,5.2-0.7,10.6-0.8,15.9c-0.1,5.4,0,10.3,0,15.5c0,5.2,0,8.5,0,12.8c-141.7-83.4-259.2-202.2-341-344.7
		c-81.8-142.5-125-303.9-125.4-468.2L109.3,1988.9z M1525.7,3750.6c-250.1,0-490-99.3-666.8-276
		c-176.9-176.7-276.2-416.4-276.2-666.4c0-249.9,99.4-489.6,276.2-666.4c176.9-176.7,416.7-276,666.8-276c10.3,0,20.5,0,30.8,0.5
		l10.3,0.5c6.8,0,13.7,0.5,20.4,1c4.1,0,8.3,0.7,12.4,1l18.3,1.5l13.1,1.5c5.8,0.7,11.6,1.2,17.3,2c4.6,0.6,9.1,1.3,13.6,2l16.8,2.5
		l13.7,2.5c5.5,1,10.9,1.9,16.4,3c5.4,1.1,9.2,1.9,13.9,2.9c4.6,1,10.7,2.2,16.1,3.4l13.9,3.4l15.9,4l13.9,3.9
		c5.2,1.5,10.4,2.9,15.6,4.4l13.9,4.4l15.3,4.9c4.6,1.5,9.2,3.2,13.9,4.8l14.7,5.4l13.8,5.4l14.7,5.8l13.8,5.9l14.3,6.2
		c4.6,2.1,9.2,4.3,13.7,6.4l14,6.6c4.5,2.2,9,4.5,13.6,6.9c4.6,2.3,9.2,4.6,13.7,7.3c4.5,2.7,9,4.9,13.5,7.3
		c4.5,2.4,7.3,3.9,10.6,5.9l-10.6,6.5c-4.6,2.8-9.2,5.5-13.7,8.4l-12.9,8.3c-4.5,2.9-9,5.9-13.4,8.9c-4.4,3-8.3,5.7-12.4,8.6
		l-13,9.2l-11.8,8.9c-4.4,3.3-8.8,6.5-13.1,9.9c-4.3,3.4-7.3,6.1-11.4,9.1c-4,3-8.7,6.9-12.9,10.4c-4.3,3.5-7.3,6.2-11,9.4
		c-3.7,3.1-8.4,7.3-12.5,10.8c-4.1,3.5-7.3,6.5-10.6,9.6l-12.3,11.4l-10.1,9.8l-12,11.8c-3.2,3.3-6.4,6.7-9.6,10
		c-3.2,3.4-7.9,8.1-11.7,12.3l-9.2,10.2c-3.8,4.3-7.3,8.4-11.4,12.8c-4,4.3-5.9,6.9-8.8,10.4c-2.9,3.5-7.3,8.7-11,13.1
		c-3.7,4.4-5.6,7.3-8.4,10.6c-2.9,3.3-7.3,9-10.6,13.6l-8,11.2c-3.5,4.6-6.9,9.2-10.3,14c-2.6,3.6-5,7.3-7.3,11
		c-2.3,3.7-6.6,9.5-9.8,14.7c-2.5,3.7-4.8,7.3-7.3,11.2c-3.2,4.8-6.3,9.7-9.3,14.7c-2.3,3.8-4.6,7.3-6.9,11.4
		c-2.9,5-5.9,9.9-8.8,14.7c-2.9,4.8-4.3,7.8-6.5,11.7c-2.8,5.1-5.7,10.1-8.4,15.2c-2.7,5.1-4.1,8-6.2,11.9
		c-2.6,5.1-5.3,10.2-7.9,15.3l-5.9,12.3c-2.4,5.1-4.9,10.3-7.3,15.5c-2.4,5.2-3.6,8.4-5.4,12.5c-1.8,4.2-4.6,10.3-6.8,15.6
		c-1.8,4.2-3.4,8.5-5.1,12.8c-1.8,4.2-4.2,10.5-6.2,15.8c-2.1,5.3-3.2,8.7-4.7,13.1c-1.5,4.3-3.9,10.6-5.7,15.9
		c-1.8,5.3-2.9,8.9-4.3,13.4c-1.5,4.5-3.5,10.6-5.1,15.8c-1.6,5.3-2.6,9.3-4,13.9c-1.4,4.6-3.1,10.5-4.5,15.7
		c-1.4,5.2-2.4,9.6-3.7,14.7c-1.2,5.1-2.7,10.3-3.9,15.6c-1.2,5.3-2.2,9.8-3.2,14.7c-1,4.8-2.3,10.3-3.4,15.5
		c-1,5.2-1.9,10.3-2.9,15.4c-1,5.1-2,10-2.8,15.1c-0.8,5.1-1.6,10.5-2.4,15.8c-0.8,5.3-1.5,10-2.2,14.7c-0.7,4.7-1.3,10.9-2,16.4
		c-0.7,5.5-1.2,9.7-1.7,14.7c-0.5,5-1,11.8-1.5,17.7c-0.4,4.6-0.8,9-1.2,13.5c-0.4,6.9-0.7,13.8-1,20.7c0,3.6,0,7.3-0.5,10.7
		c0,10.5-0.5,21-0.5,31.5c0,10.5,0,21,0.5,31.5c0,3.6,0.4,7.3,0.5,10.7c0.4,6.9,0.6,13.8,1,20.7c0.4,4.5,0.8,8.9,1.2,13.5
		c0.4,5.9,0.9,11.8,1.5,17.7c0.6,5.9,1.2,9.7,1.7,14.7c0.5,5,1.2,11,2,16.4c0.7,5.4,1.5,10,2.2,15c0.7,5.1,1.5,10.5,2.4,15.7
		c0.9,5.2,1.8,10.1,2.8,15.2c1,5.1,1.8,10.3,2.8,15.3c1,5.1,2.3,10.3,3.4,15.5c1.2,5.1,2.1,9.9,3.2,14.7c1.2,4.8,2.6,10.4,3.9,15.6
		c1.3,5.2,2.3,9.6,3.7,14.7c1.3,5.1,3,10.4,4.5,15.6c1.5,5.2,2.6,9.4,4,14c1.4,4.6,3.4,10.6,5.1,15.8c1.8,5.2,2.9,9,4.3,13.5
		c1.5,4.5,3.8,10.6,5.7,15.8c1.9,5.3,3.1,8.7,4.7,13.1c1.6,4.4,4.2,10.5,6.2,15.7c2.1,5.2,3.4,8.6,5.1,12.8
		c1.8,4.3,4.5,10.4,6.7,15.6l5.5,12.7c2.3,5.1,4.8,10.2,7.3,15.3c2.5,5.1,3.9,8.3,5.9,12.4c2,4.1,5.2,10.1,7.8,15.2
		c2.6,5.1,4.1,8.1,6.2,12.1c2.7,5.1,5.5,10.1,8.3,15c2.8,5,4.3,7.9,6.6,11.8c2.3,3.9,5.8,9.8,8.7,14.7c2.9,4.8,4.6,7.8,7,11.6
		c2.3,3.8,6.1,9.6,9.2,14.7c3.1,5.1,4.8,7.3,7.3,11.5l9.6,14.1l7.7,10.2c3.3,4.6,6.7,9.2,10.1,13.7c3.4,4.5,5.4,7.3,8.1,11
		c2.8,3.7,7,8.9,10.4,13.3l8.6,10.9c3.5,4.4,7.3,8.7,10.8,12.9l9,10.7c3.7,4.2,7.3,8.3,11.2,12.5c3.8,4.2,6.2,7.3,9.5,10.5
		c3.2,3.2,7.3,8,11.4,12s6.6,7.3,10,10.3c3.4,3,7.8,7.7,11.7,11.5l10.4,10c4,3.7,7.9,7.3,12,10.9c4,3.6,7.3,6.7,10.9,10
		c3.6,3.3,8.1,7,12.1,10.4c4,3.4,7.3,6.6,11.5,9.8c4.1,3.2,8.2,6.7,12.3,10l12,9.5c4.1,3.2,8.4,6.3,12.5,9.5l12.5,9.3l12.6,8.9
		c4.3,3.1,8.7,6.2,13.1,9.1c4.5,2.9,8.4,5.6,12.6,8.4l13.7,8.9l12.8,7.8l11.4,7c-142,80.7-302.6,123.1-465.9,123.1L1525.7,3750.6z
		 M2472.4,3750.6c-123.8,0.1-246.5-24.3-360.9-71.6c-114.4-47.3-218.4-116.7-305.9-204.3c-87.6-87.5-157-191.4-204.4-305.7
		c-47.4-114.3-71.7-236.9-71.7-360.6c0-10.4,0-20.8,0.5-31.3c0-3.3,0.4-6.5,0.5-9.8c0-7.3,0.6-14.2,1-21.3c0-4,0.7-7.9,1-11.7
		c0.5-6.4,1-12.8,1.6-19.2c0.4-4.2,1-8.4,1.5-12.5c0.7-6.1,1.3-12.2,2.1-18.2c0.6-4.3,1.2-8.6,1.9-12.9c0.9-5.9,1.7-11.8,2.7-17.7
		c0.7-4.3,1.5-8.6,2.3-12.8c1-5.8,2.1-11.7,3.2-17.5c0.9-4.3,1.8-8.6,2.8-12.9c1.2-5.7,2.4-11.4,3.7-17.1c1-4.3,2.2-8.5,3.2-12.8
		c1.5-5.7,2.8-11.3,4.3-16.9c1.2-4.3,2.4-8.5,3.7-12.8c1.6-5.6,3.2-11.1,4.8-16.6c1.2-4.3,2.7-8.5,4.1-12.7c1.7-5.5,3.4-11,5.3-16.4
		c1.4-4.2,3-8.3,4.5-12.5c1.9-5.4,3.8-10.9,5.9-16.3c1.5-4.1,3.2-8.1,4.8-12.3c2.1-5.3,4.2-10.8,6.4-16.1c1.7-4,3.5-8,5.3-12
		c2.3-5.3,4.6-10.6,6.9-15.9c1.8-4,3.7-8,5.6-12c2.4-5.2,4.8-10.4,7.3-15.6l6-11.8l7.9-15.2c2.1-4,4.3-7.8,6.5-11.7
		c2.1-4,5.5-10,8.4-14.7c2.2-3.8,4.6-7.3,6.8-11.4c2.9-4.9,5.8-9.8,8.8-14.7c3-4.8,4.8-7.3,7.3-11.4c2.6-4,6.1-9.5,9.2-14.3
		c3.2-4.8,5.1-7.3,7.3-11.2l9.6-13.9c2.6-3.7,5.4-7.3,8-10.9c2.6-3.6,6.7-9.2,10.1-13.6c3.4-4.5,5.6-7.3,8.4-10.7
		c2.8-3.4,7-9,10.5-13.3c3.5-4.3,5.9-7,8.7-10.5c2.9-3.5,7.3-8.7,10.9-12.9c3.6-4.2,6.1-6.9,9.2-10.3c3.1-3.4,7.3-8.4,11.2-12.5
		c3.9-4.1,6.4-6.7,9.6-10.1l11.6-12.1l10-9.7c4-3.9,7.9-7.9,12-11.7l10.4-9.6c4-3.7,8.1-7.3,12.3-11.1c4.2-3.8,7.3-6.2,10.8-9.4
		c3.4-3.1,8.3-7.3,12.5-10.7l11.2-9.1c4.3-3.4,8.5-6.9,12.8-10.3l11.7-8.7l13.1-9.8c4-2.9,8-5.6,12-8.4c4-2.8,8.9-6.3,13.4-9.4
		c4.6-3.1,8.3-5.4,12.4-8.1l13.7-8.9l12.8-7.8l11.1-6.7c0,4.3,0,8.5,0,12.8c0,4.3,0,10.3,0.4,15.5s0.5,10.6,0.8,15.9
		c0.3,5.3,0.5,10.3,0.9,15.4c0.4,5.1,0.9,10.6,1.3,15.8c0.4,5.3,0.9,10.3,1.4,15.3c0.5,5.1,1.3,10.5,1.8,15.7
		c0.6,5.2,1.3,10.2,1.9,15.3c0.7,5.1,1.5,10.4,2.3,15.6s1.5,10.1,2.4,15.1c0.9,5,1.8,10.3,2.9,15.5c1,5.1,1.8,10,2.9,15
		c1,5,2.2,10.2,3.3,15.3c1.1,5.1,2.2,10,3.4,14.7c1.2,4.7,2.6,10.1,3.9,15.2c1.3,5.1,2.5,9.9,3.8,14.7c1.3,4.8,2.9,10,4.3,15
		c1.5,5,2.8,9.8,4.3,14.7c1.5,4.9,3.1,9.9,4.8,14.7c1.6,4.8,3.2,9.7,4.8,14.7c1.6,5,3.5,9.8,5.3,14.7l5.2,14.7
		c1.9,4.8,3.9,9.7,5.8,14.7c1.9,5,3.7,9.5,5.7,14.1l6.2,14.3l6.7,13.5l6.7,14.1l6.5,13.6l7.3,13.9c2.3,4.4,4.5,8.9,6.9,13.3
		c2.4,4.4,5.1,9.2,7.7,13.8c2.6,4.6,4.8,8.7,7.3,13.1c2.6,4.3,5.4,8.9,8.1,13.5c2.7,4.6,5.1,8.6,7.3,12.8s5.7,8.9,8.6,13.3
		c2.9,4.4,5.3,8.4,8.1,12.5c2.8,4.1,6,8.7,9,13.1c3,4.3,5.6,8.2,8.4,12.2c2.9,4,6.3,8.5,9.5,12.8c3.1,4.2,5.9,8,8.9,11.9
		c3,3.9,6.6,8.4,9.9,12.6c3.3,4.2,6,7.3,9.2,11.5c3.1,4.2,7.3,8.4,10.5,12.5c3.2,4.1,6.2,7.3,9.4,11c3.2,3.7,7.3,8.2,11,12.3
		c3.7,4,6.4,7.3,9.6,10.7c3.2,3.4,7.7,7.9,11.5,12c3.8,4,6.5,6.9,9.9,10.3c3.4,3.4,8.1,7.9,12.1,11.7l10.1,9.8
		c4.2,3.9,8.4,7.3,12.7,11.5c4.2,4.2,6.7,6.3,10.3,9.4c3.5,3.1,8.8,7.3,13.2,11.3l10.4,8.9c4.6,3.8,9.4,7.3,14.1,11.2l10.2,8.2
		c4.9,3.7,9.9,7.3,14.7,11.1l10.2,7.3c5.3,3.8,10.7,7.3,16.1,11.2l9.6,6.7c6.2,4.1,12.3,8.1,18.6,12l7.9,5.1
		c8.9,5.6,18,11,27.1,16.3c144.5,83.3,308.3,127.1,475.1,127.1c10.4,0,20.8,0,31.1-0.5l10.4-0.5c6.9,0,13.7-0.6,20.5-1l12.5-1
		c6.2-0.4,12.3-0.9,18.4-1.5c4.4-0.4,8.8-1,13.2-1.5c5.8-0.7,11.7-1.3,17.5-2.1l13.4-1.9c5.7-0.9,11.5-1.6,17.2-2.6l13.6-2.4
		l16.7-3.1c4.5-0.9,9.1-1.9,13.6-2.9l16.5-3.5l13.7-3.4c5.4-1.3,10.9-2.6,16.3-4.1c5.4-1.5,9.1-2.6,13.7-3.8
		c4.5-1.2,10.7-2.9,16-4.5l13.6-4.3c5.3-1.7,10.6-3.3,15.8-5.1l13.5-4.8c5.2-1.8,10.4-3.6,15.5-5.5l13.4-5.2c5.1-2,10.3-4,15.3-6.1
		c5.1-2.1,8.8-3.7,13.2-5.6l15.2-6.6l13-6l14.7-7.3c4.3-2.1,8.6-4.3,12.8-6.5c4.3-2.1,9.8-5,14.7-7.3l12.6-6.9
		c3.9-2.1,7.8-4.2,11.6-6.4c-2,248.6-102.1,486.4-278.6,661.6C2959.8,3651.8,2721.2,3750.3,2472.4,3750.6L2472.4,3750.6z
		 M3417.4,2805.2c-143.4,82.6-306,126.1-471.5,126.1s-328.1-43.5-471.5-126.1c-9-5.2-18-10.6-26.9-16.1c-3.4-2.1-6.9-4.5-10.3-6.7
		c-5.3-3.5-10.6-6.8-15.8-10.3c-5.1-3.5-7.9-5.4-11.8-8.1s-9.2-6.3-13.7-9.6c-4.5-3.3-8-5.9-12-8.9l-12.9-9.6l-12-9.6
		c-4-3.2-8.1-6.4-12.1-9.7c-4-3.3-7.8-6.6-11.7-9.9c-3.9-3.3-7.9-6.7-11.8-10.1c-3.9-3.4-7.3-6.8-11.2-10.2l-11.5-10.5l-10.7-10.5
		l-11.5-10.6c-3.4-3.5-6.7-7.3-10.1-10.6c-3.4-3.2-7.3-7.3-11.1-11.5s-6.6-7.3-9.8-10.9s-7.3-7.8-10.7-11.9c-3.4-4-6.3-7.3-9.5-11.1
		c-3.2-3.8-6.9-8.1-10.3-12.2l-8.9-11.3c-3.4-4.3-6.8-8.4-10-12.7c-3.2-4.2-5.7-7.3-8.5-11.4c-2.8-4.1-6.5-8.7-9.7-13.1l-8.1-11.7
		c-3.1-4.5-6.2-8.9-9.3-13.4c-3-4.5-5.1-7.9-7.7-11.8l-8.9-13.8c-2.4-4-4.8-8-7.3-12c-2.6-4-5.7-9.4-8.5-14.1l-6.8-12.1
		c-2.7-4.8-5.4-9.7-8.1-14.7c-2.6-5-4.2-8.1-6.4-12.3c-2.1-4.1-5.1-9.8-7.3-14.7c-2.2-4.8-4-8.4-5.9-12.5c-2-4.1-4.8-10-7.3-15
		s-3.7-8.4-5.6-12.7c-1.9-4.2-4.5-10.1-6.6-15.2c-2.1-5.1-3.5-8.6-5.2-12.8s-4.2-10.3-6.2-15.6c-2-5.2-3.2-8.6-4.8-12.9
		c-1.6-4.3-3.8-10.5-5.7-15.8s-2.9-8.8-4.3-13.1c-1.5-4.3-3.5-10.6-5.1-15.9s-2.6-9-4-13.4c-1.3-4.5-3.2-10.6-4.6-16
		c-1.5-5.4-2.3-9.1-3.5-13.6c-1.2-4.5-2.8-10.6-4.1-16.1c-1.3-5.4-2.1-9.2-3.2-13.9c-1.1-4.6-2.4-10.7-3.5-16.1
		c-1.1-5.4-1.8-9.3-2.6-14c-0.9-4.7-2.1-10.8-3-16.2c-0.9-5.4-1.5-9.5-2.3-14.3c-0.7-4.8-1.7-10.8-2.4-16.2
		c-0.7-5.4-1.3-9.7-1.8-14.7c-0.6-5-1.3-10.7-1.8-16.1c-0.5-5.4-1-9.9-1.4-14.7c-0.4-4.8-0.9-10.7-1.3-16.1
		c-0.4-5.3-0.6-10-0.9-14.7c-0.3-4.6-0.6-10.7-0.8-16.1c-0.2-5.4,0-10.2-0.4-15.3V1996c3.7,2.1,7.3,4.1,11.4,6.2l12.8,7.3l14.7,7.3
		c4.3,2.2,8.7,4.5,13.1,6.6c4.4,2.1,9.8,4.7,14.7,7c4.9,2.3,8.7,4.2,13.2,6.2s9.9,4.3,14.7,6.4c4.8,2.1,8.9,3.9,13.4,5.7
		c4.5,1.8,10,4,15.1,5.9c5.1,2,9,3.6,13.6,5.3c4.6,1.7,10.2,3.7,15.3,5.5c5.1,1.8,9.1,3.3,13.7,4.8c4.6,1.5,10.4,3.3,15.5,5
		l13.9,4.3c5.2,1.6,10.5,3,15.7,4.5l14,3.9c5.3,1.4,10.6,2.6,16,4c5.4,1.3,9.3,2.4,14,3.4s10.8,2.3,16.2,3.5l13.9,3l16.5,2.9
		l13.9,2.6l16.9,2.5c4.5,0.7,9.1,1.4,13.7,2c5.7,0.7,11.5,1.3,17.3,2l13.4,1.5c6,0.6,12.1,1,18.2,1.5c4.2,0.4,8.4,0.8,12.6,1
		c6.8,0.4,13.6,0.7,20.5,1c3.5,0,7.3,0.4,10.6,0.5c10.3,0,20.7,0.5,31,0.5c166.9-0.2,330.9-44.3,475.3-128
		c9.2-5.3,18.2-10.7,27.1-16.2c3-1.9,5.9-3.9,8.9-5.7c5.9-3.8,11.7-7.3,17.5-11.4c3.4-2.3,6.7-4.7,10-7c5.3-3.6,10.6-7.3,15.8-10.9
		c3.4-2.5,6.8-5.1,10.3-7.7c4.9-3.7,9.9-7.3,14.7-11c3.5-2.7,6.9-5.5,10.4-8.3c4.7-3.7,9.4-7.3,14-11.1l10.3-8.7
		c4.5-3.8,9-7.3,13.4-11.4c4.4-4.1,6.8-6.2,10.2-9.2l12.7-11.6c3.4-3.2,6.8-6.5,10.1-9.8c3.4-3.3,8.1-7.8,12-11.7
		c4-4,6.5-6.8,9.8-10.2c3.3-3.4,7.9-8,11.6-12.1c3.7-4.1,6.3-7.3,9.5-10.5c3.2-3.2,7.3-8.2,11.1-12.4c3.8-4.2,6.2-7.3,9.3-10.9
		c3.1-3.6,7.3-8.4,10.6-12.5l8.9-11.3c3.4-4.3,6.8-8.6,10.1-12.9c3.3-4.3,5.7-7.7,8.6-11.5l9.8-13.1l8.3-12
		c3.1-4.5,6.2-8.8,9.2-13.3c3-4.5,5.3-8.1,7.9-12.2c2.6-4.1,5.9-8.9,8.7-13.5c2.9-4.5,5.1-8.4,7.3-12.5c2.3-4.2,5.6-9.2,8.2-13.8
		c2.6-4.6,4.9-8.5,7.3-12.8c2.5-4.3,5.3-9.2,7.8-13.9c2.5-4.7,4.6-8.7,6.8-13.1c2.3-4.4,4.9-9.4,7.3-14.2c2.4-4.8,4.3-8.9,6.5-13.3
		c2.1-4.4,4.6-9.5,6.8-14.7c2.2-5.1,4-9.1,5.9-13.6c2-4.5,4.3-9.6,6.4-14.7s3.7-9.2,5.6-13.8c1.9-4.6,4-9.8,5.8-14.7
		c1.8-4.8,3.4-9.4,5.1-14.1c1.7-4.7,3.7-9.8,5.4-14.7c1.8-4.8,3.1-9.5,4.7-14.2c1.6-4.7,3.3-10,4.8-15.1c1.5-5.1,2.9-9.5,4.3-14.7
		c1.4-5.1,3-10.1,4.4-15.2c1.4-5.1,2.5-9.8,3.7-14.7c1.3-4.9,2.7-10.2,3.9-15.3c1.2-5.1,2.3-9.8,3.4-14.7c1.1-4.8,2.3-10.3,3.4-15.5
		c1.1-5.2,1.9-9.9,2.9-14.7c0.9-4.8,2-10.3,2.9-15.5c0.9-5.2,1.6-10,2.3-14.7s1.7-10.5,2.4-15.7c0.7-5.2,1.3-10.1,1.8-15.2
		c0.6-5.1,1.3-10.5,1.8-15.8c0.5-5.3,0.9-10.2,1.4-15.3c0.4-5.1,1-10.6,1.3-15.8c0.4-5.3,0.7-10.3,0.9-15.4c0.2-5.1,0.7-10.6,0.8-16
		c0.1-5.4,0-10.3,0.4-15.4c0.4-5.1,0-8.6,0-12.9c142.3,83.4,260.3,202.6,342.1,345.8c81.8,143.2,124.6,305.3,124.1,470.2
		c-0.5,164.9-44.3,326.8-127,469.4C3679,2604.2,3560.3,2722.7,3417.4,2805.2z"/>
	<path class="st7" d="M2250,1750h-125v125h125V1750z"/>
	<path class="st8" d="M1875,1750v125h125h125v-125h-125H1875z"/>
	<path class="st8" d="M2375,1750h-125v125h125V1750z"/>
	<path class="st8" d="M3000,1750h-125h-125v125h125h125h125v-125H3000z"/>
	<path class="st9" d="M2125,1625v-125h-125v125v125h125V1625z"/>
	<path class="st9" d="M2250,2000h-125v125h125V2000z"/>
	<path class="st9" d="M2250,2125v125v125h125v-125v-125H2250z"/>
	<path class="st10" d="M2500,2000v-125v-125h-125v125v125v125v125h125v-125V2000z"/>
	<path class="st10" d="M2625,2250h-125v125h125h125v-125H2625z"/>
	<path class="st11" d="M2625,2625h-125h-125v125h125h125h125v-125H2625z"/>
	<path class="st12" d="M3000,1250v-125h-125v-125h-125V875h-125v125h-750v125h-125v125h-125v250h-125v125h-125v125h-125v500h375
		v-125h125v250h125v125h125v250h125v-125h125v-125h625v125h250v-750h-125v125h-125v-125h-125v-125h375v-500H3000z M1375,2125v-250
		h125v250H1375z M2625,2375h-125v-125h-125v125h-125v-250h-125v-250h-250v-125h125v-250h125v250h375v500h250v125H2625z"/>
	<path class="st12" d="M2375,2000v-125h-125v125v125h125V2000z"/>
	<path class="st12" d="M2250,2875h125v-125h-125h-125v125H2250z"/>
	<path class="st12" d="M2750,2750v125h125h125v-125h-125H2750z"/>
	<path class="st13" d="M2625,750h-125h-125h-125h-125h-125h-125h-125h-125v125h125h125h125h125h125h125h125h125h125V750H2625z"/>
	<path class="st13" d="M1500,1000v125h125v-125V875h-125V1000z"/>
	<path class="st13" d="M2875,875h-125v125h125V875z"/>
	<path class="st13" d="M3000,1000h-125v125h125V1000z"/>
	<path class="st13" d="M1500,1125h-125v125h125V1125z"/>
	<path class="st13" d="M3125,1125h-125v125h125V1125z"/>
	<path class="st13" d="M1250,1375v125v125v125h125v-125v-125v-125v-125h-125V1375z"/>
	<path class="st13" d="M3125,1250v125v125v125v125v125v125v125v125v125v125v125v125h125v-125v-125v-125v-125v-125v-125v-125v-125
		v-125v-125v-125v-125H3125z"/>
	<path class="st13" d="M1125,1875v125v125v125h125v-125v-125v-125v-125h-125V1875z"/>
	<path class="st13" d="M2250,1875h-125v125h125V1875z"/>
	<path class="st13" d="M3000,1875h-125v125h125V1875z"/>
	<path class="st13" d="M1375,2250h-125v125h125V2250z"/>
	<path class="st13" d="M1375,2625v125v125v125h125v-125v-125v-125v-125v-125h-125v125V2625z"/>
	<path class="st14" d="M1500,3250v-125v-125h-125h-125h-125v125h125h125v125v125h125h125v-125H1500z"/>
	<path class="st14" d="M1750,3375h-125v125h125V3375z"/>
	<path class="st15" d="M3000,2625h-125v-125h-125h-125h-125h-125h-125v125h-125v125h125h125v-125h125h125h125v125h125h125v125h-125
		h-125v-125h-125h-125h-125v125h-125h-125v-125h-125v-125v-125h-125v-125h-125v-125v-125h-125v125h-125v125v125v125h125v125v125h125
		v125h125v125h125v125h125v125h125v125h125h125h125h125h125v-125v-125h125v-125h125v-125v-125v-125v-125H3000z"/>
	<path class="st16" d="M2500,875h-125h-125h-125h-125h-125h-125h-125v125v125h-125v125h-125v125v125v125h125v-125h125v-125v-125h125
		v-125h125v-125h125h125h125h125h125h125V875H2500z"/>
	<path class="st16" d="M1500,2000v-125h-125v125v125h125V2000z"/>
	<path class="st16" d="M1500,2250h-125v125h125V2250z"/>
	<path class="st16" d="M2125,3250h-125v-125h-125v-125h-125v-125h-125v-125v-125h-125v125v125v125v125v125h125v125h125v125h125v125
		h125h125h125v-125v-125h-125V3250z"/>
	<path class="st17" d="M2125,3625h-125h-125v125h125h125h125v-125H2125z"/>
	<path class="st18" d="M1250,3375h-125h-125v125h125v125h125v-125V3375z"/>
	<path class="st18" d="M3125,3500v-125h-125h-125v125h125H3125z"/>
	<path class="st18" d="M1000,3500H875v125h125V3500z"/>
	<path class="st18" d="M1500,3500h-125v125h125V3500z"/>
	<path class="st18" d="M2625,3500h-125v125h125V3500z"/>
	<path class="st18" d="M2875,3500h-125v125h125V3500z"/>
	<path class="st18" d="M3250,3500h-125v125v125h125v-125V3500z"/>
	<path class="st18" d="M875,3625H750v125h125V3625z"/>
	<path class="st18" d="M1125,3625h-125v125h125V3625z"/>
	<path class="st18" d="M1375,3625h-125v125h125V3625z"/>
	<path class="st18" d="M1625,3625h-125v125h125V3625z"/>
	<path class="st18" d="M2500,3625h-125v125h125V3625z"/>
	<path class="st18" d="M3000,3625h-125v125h125V3625z"/>
	<path class="st18" d="M1500,3750h-125v125h125V3750z"/>
	<path class="st18" d="M3125,3750h-125v125h125V3750z"/>
	<path class="st18" d="M3375,3750h-125v125h125V3750z"/>
	<path class="st19" d="M2000,3750h-125v125v125h125h125v-125v-125H2000z"/>
	<path class="st20" d="M1625,3500h-125v125h125h125v125v125v125h125v-125v-125v-125v-125h-125H1625z"/>
	<path class="st20" d="M2250,3500v125v125h125v-125v-125H2250z"/>
	<path class="st20" d="M2125,3875v125h125v-125v-125h-125V3875z"/>
	<path class="st21" d="M1000,3375H875v125h125V3375z"/>
	<path class="st21" d="M1375,3375v-125v-125h-125h-125v125v125h125v125h125h125h125v-125h-125H1375z"/>
	<path class="st21" d="M875,3500H750v125h125V3500z"/>
	<path class="st21" d="M750,3625H625v125h125V3625z"/>
	<path class="st21" d="M500,3875v125h125v-125v-125H500V3875z"/>
	<path class="st21" d="M2750,3750h-125h-125h-125v125h125h125v125h125v-125h125v-125H2750z"/>
	<path class="st22" d="M1125,3500h-125v125h125V3500z"/>
	<path class="st22" d="M1375,3500h-125v125h125V3500z"/>
	<path class="st22" d="M2500,3500h-125v125h125V3500z"/>
	<path class="st22" d="M1500,3625h-125v125h125V3625z"/>
	<path class="st22" d="M1625,3750h-125v125h-125v-125h-125v-125h-125v125h-125v-125H875v125H750H625v125v125h125h125h125h125h125
		h125h125h125h125v-125v-125v-125h-125V3750z"/>
	<path class="st22" d="M2750,3625v-125h-125v125h-125v125h125h125h125v-125H2750z"/>
	<path class="st22" d="M2375,3875v-125h-125v125v125h125h125h125v-125h-125H2375z"/>
	<path class="st22" d="M3000,3875v-125h-125v125h-125v125h125h125h125v-125H3000z"/>
	<path class="st23" d="M3125,3500h-125h-125v125h125v125h125v-125V3500z"/>
	<path class="st23" d="M3375,3625h-125v125h125V3625z"/>
	<path class="st23" d="M3125,3750v125v125h125h125v-125h-125v-125H3125z"/>
</g>
</svg>
